SplineFontDB: 3.0
FontName: Neo-EulerBB
FullName: Neo Euler BB
FamilyName: Neo Euler BB
Weight: Medium
Copyright: Created by .'D/ -3FJ,,,, with FontForge 2.0 (http://fontforge.sf.net)
UComments: "2009-9-24: Created." 
Version: 001.000
ItalicAngle: 0
UnderlinePosition: -100
UnderlineWidth: 50
Ascent: 800
Descent: 200
LayerCount: 2
Layer: 0 0 "Back"  1
Layer: 1 0 "Fore"  0
NeedsXUIDChange: 1
XUID: [1021 862 584604386 3385988]
OS2Version: 0
OS2_WeightWidthSlopeOnly: 0
OS2_UseTypoMetrics: 1
CreationTime: 1253805665
ModificationTime: 1254566298
OS2TypoAscent: 0
OS2TypoAOffset: 1
OS2TypoDescent: 0
OS2TypoDOffset: 1
OS2TypoLinegap: 0
OS2WinAscent: 0
OS2WinAOffset: 1
OS2WinDescent: 0
OS2WinDOffset: 1
HheadAscent: 0
HheadAOffset: 1
HheadDescent: 0
HheadDOffset: 1
OS2Vendor: 'PfEd'
DEI: 91125
Encoding: UnicodeFull
UnicodeInterp: none
NameList: Adobe Glyph List
DisplaySize: -96
AntiAlias: 1
FitToEm: 1
WinInfo: 8450 13 5
BeginChars: 1114112 57

StartChar: u1D538
Encoding: 120120 120120 0
Width: 829
Flags: W
HStem: -34 40<595.729 727.734> 42 40<722.356 772.255> 248 40<243.951 476.834> 300 39.9883<305.92 447.423> 667 40<297 486.085>
DStem2: 35.5889 21.7461 6.73926 -20.9238 0.996543 0.0830764<0 91.1542> 223.338 277.383 253.152 248 0.450745 0.892653<-203.922 -12.7899 93.1084 285.949> 297 666.609 274.468 629.161 0.991815 -0.127681<0 54.7885> 423.02 549.185 392.803 512.147 0.290995 -0.956725<26.6414 207.348 303.81 554.933> 520.169 692.704 486.085 667 0.285226 -0.95846<14.9147 593.99> 706.988 19.0723 719.012 -19.0723 0.944023 0.329879<-66.5863 69.7615>
LayerCount: 2
Back
SplineSet
131 10 m 1xa8
 5 -1 l 1
 3 9 l 1
 138 210 262 415 373 628 c 0
 374 629 374 631 374 633 c 0
 374 634 373 637 371 637 c 2x70
 277 649 l 1
 277 687 l 1
 501 687 l 1
 612 314 l 2
 632 249 653 184 685 123 c 0
 693 109 701 95 713 82 c 0
 729 66 739 62 756 62 c 0
 773 62 795 66 814 70 c 1
 821 42 l 1
 785 26 750 11 713 0 c 0
 689 -8 665 -14 640 -14 c 0
 618 -14 596 -8 582 8 c 0
 563 31 551 58 543 86 c 2
 492 268 l 1
 241 268 l 1
 207 204 165 97 131 10 c 1xa8
461 320 m 2
 464 320 470 322 470 325 c 0
 470 328 470 336 469 338 c 2
 404 543 l 2
 402 549 397 551 395 551 c 0
 393 551 389 548 386 543 c 2
 281 335 l 2
 279 332 279 330 279 326 c 0
 279 323 286 320 290 320 c 2
 461 320 l 2
EndSplineSet
Fore
SplineSet
392.803 512.147 m 1
 305.92 339.988 l 1
 447.423 339.88 l 1
 392.803 512.147 l 1
290 300 m 1
 268.03 305.915 272.94 302.877 266.17 309.5 c 0
 265.451 310.203 259 323 259 326 c 0
 259 336.825 261.56 341.769 263.663 345.037 c 2
 368.498 552.651 l 1
 375.396 560.852 376.816 564.555 384.069 568.262 c 0
 384.772 568.621 393.062 571.492 395 571 c 0
 399.987 569.732 409.44 570.121 417.973 558.858 c 0
 418.754 557.827 421.226 554.567 423.02 549.185 c 2
 487.65 345.353 l 2
 489.095 342.104 490 338.096 490 325 c 1
 471.683 306.683 483.882 304.612 468.305 300.903 c 0
 467.32 300.669 463.453 300 461 300 c 2
 290 300 l 1
6.73926 -20.9238 m 1
 -14.6113 -4.92188 l 1
 -16.6113 5.07812 l 1
 -13.6025 20.1514 l 1
 117.398 215.197 237.945 413.916 346.24 619.999 c 1
 274.468 629.161 l 1
 257 649 l 1
 257 687 l 1
 277 707 l 1
 501 707 l 1
 520.169 692.704 l 1
 631.143 319.793 l 2
 651.09 254.964 671.173 191.389 702.538 132.606 c 0
 710.149 118.342 717.057 106.596 727.419 95.8535 c 0
 740.085 82.7236 744.457 82 756 82 c 0
 766.776 82 783.28 83.9717 809.88 89.5713 c 1
 833.402 74.8506 l 1
 840.402 46.8506 l 1
 829.123 23.7236 l 1
 792.975 7.65723 757.328 -7.13851 719.012 -19.0723 c 0
 693.937 -26.8817 668.239 -34 640 -34 c 0
 614.693 -34 585.882 -27.4784 566.765 -4.9541 c 0
 545.136 20.5294 532.266 50.7705 523.756 80.5547 c 2
 476.834 248 l 1
 253.152 248 l 1
 221.078 184.844 181.707 84.8057 149.628 2.71973 c 1
 132.739 -9.92383 l 1
 6.73926 -20.9238 l 1
116.893 28.8447 m 1
 150.088 113.73 189.86 214.366 223.338 277.383 c 1
 241 288 l 1
 492 288 l 1
 511.258 273.396 l 1
 562.244 91.4453 l 2
 569.734 65.2295 580.39 41.0746 597.235 20.9541 c 0
 602.332 14.8663 614.23 6 640 6 c 0
 661.761 6 683.764 11.8066 706.988 19.0723 c 0
 728.947 25.9424 750.693 33.9678 772.554 42.918 c 1
 765.985 42.2656 760.548 42 756 42 c 0
 735.724 42 719.529 46.51 698.581 68.1465 c 0
 684.351 82.8449 675.026 99.2032 667.462 113.394 c 0
 633.996 176.172 612.91 243.036 592.857 308.207 c 2
 486.085 667 l 1
 297 667 l 1
 297 666.609 l 1
 372.267 656.92 l 2
 374.267 656.92 394 634 394 633 c 0
 394 631.088 388.644 616.242 387.301 614.073 c 2
 390.736 618.757 l 1
 283.745 413.449 164.757 215.624 35.5889 21.7461 c 1
 116.893 28.8447 l 1
EndSplineSet
EndChar

StartChar: u1D539
Encoding: 120121 120121 1
Width: 726
Flags: W
HStem: -22 40<140.777 492.984> 20 40<285.597 401.772> 326.339 39.4654<295.006 405.047> 641 40<282.195 422.895> 683 40<84.3662 509.277>
VStem: 117 40<45.0211 633.39> 242 40<64.5742 326.339 405.296 637.411> 461 40<471.984 604.219> 476 40<133.273 265.935> 597 40<485.509 619.659> 621 40<122.352 273.237>
DStem2: 285.584 64.0459 262.613 31.2637 0.875375 -0.483445<-14.378 40.1208>
LayerCount: 2
Back
SplineSet
421 379 m 1xec
 421 368 l 1
 457 365 492 359 526 348 c 0
 552 340 577 328 596 311 c 0
 626 283 641 246 641 207 c 0
 641 154 623 101 581 63 c 0
 555 39 521 25 486 15 c 0
 440 3 393 -2 345 -2 c 2
 101 -2 l 1
 101 14 l 1
 110 20 125 27 129 36 c 0
 136 51 137 67 137 84 c 2
 137 566 l 2
 137 592 137 627 123 640 c 0
 111 651 96 660 40 676 c 1
 40 697 l 1
 46 703 l 1xda
 354 703 l 2
 401 703 446 700 491 689 c 0
 523 681 555 670 578 649 c 0
 607 623 617 586 617 550 c 0
 617 511 600 474 570 446 c 0
 530 410 473 390 421 379 c 1xec
262 117 m 2
 262 94 262 58 271 50 c 0
 279 43 292 40 303 40 c 0
 353 40 406 50 442 83 c 0
 478 116 496 162 496 209 c 0
 496 245 478 278 450 304 c 0
 432 321 406 329 380 335 c 0
 343 344 300 346 262 347 c 1
 262 117 l 2
262 385 m 1
 295 385 333 387 365 396 c 0
 389 402 413 412 431 428 c 0
 464 458 481 500 481 542 c 0
 481 574 470 607 445 630 c 0
 431 642 413 648 395 653 c 0
 369 659 343 661 316 661 c 0xec
 303 661 287 660 275 656 c 0
 270 655 266 650 265 646 c 1
 262 641 262 618 262 604 c 2
 262 385 l 1
EndSplineSet
Fore
SplineSet
282 405.296 m 1xff
 308.674 406.114 336.772 409.275 359.867 415.328 c 0
 396.156 424.84 413.175 438.836 417.63 442.873 c 0
 446.275 468.836 461 505.348 461 542 c 0
 461 569.571 451.871 596.83 431.722 615.048 c 0
 425.127 621.011 416.584 626.258 390.075 633.621 c 1
 365.984 639.181 342.025 641 316 641 c 0
 300.289 641 289.845 639.501 283.207 637.606 c 1
 282.442 633.567 282.034 621.512 282 604 c 2
 282 405.296 l 1xff
242 604 m 2
 242.044 626.896 242.489 641.024 244.987 649.588 c 0
 245.19 650.284 245.267 650.859 246.627 654.14 c 0
 250.504 663.488 258.785 672.202 269.596 675.274 c 0
 278.648 677.847 293.086 681 316 681 c 0
 343.975 681 372.135 679.314 399.925 672.379 c 0
 418.637 667.709 440.61 660.79 458.278 644.952 c 0
 488.642 617.734 501 578.429 501 542 c 0
 501 494.652 481.9 446.969 444.37 413.127 c 0
 439.488 408.725 434.317 404.795 428.936 401.269 c 1
 498.348 417.669 536.192 442.106 556.487 460.743 c 0
 583.043 485.13 597 516.883 597 550 c 0xff40
 597 582.568 587.882 613.085 564.582 634.17 c 0
 540.345 656.103 502.631 665.543 486.2 669.585 c 0
 443.408 680.111 400.169 683 354 683 c 2
 84.3662 683 l 1
 112.312 673.052 125.663 664.721 136.562 654.699 c 0
 140.875 650.732 144.018 646.117 146.4 641.515 c 0
 155.945 623.079 156.952 598.931 157 566 c 2
 157 84 l 2
 157 66.3242 156.205 47.1816 147.2 27.71 c 0
 145.688 24.4395 143.653 21.2305 140.777 18 c 1
 345 18 l 2
 391.617 18 436.759 22.3486 480.729 34.291 c 0
 514.46 43.4531 544.982 57.2278 567.508 77.7637 c 0
 604.478 111.468 621 158.371 621 207 c 0
 621 260.627 589.1 290.241 582.509 296.237 c 0
 572.379 305.453 553.174 318.456 519.98 328.928 c 0
 487.71 339.108 454.216 345.163 419.339 348.069 c 1
 401 368 l 1
 401 379 l 1
 410.865 391.17 l 1
 397.632 384.869 383.734 380.317 370.133 376.672 c 0
 345.881 370.173 319.882 367.095 295.006 365.804 c 1
 324.574 364.313 355.69 361.35 384.612 354.461 c 0
 411.412 348.077 440.741 340.044 463.671 318.598 c 0
 494.488 289.774 516 251.89 516 209 c 0xfea0
 516 157.941 496.704 106.014 455.515 68.2568 c 0
 434.132 48.6562 390.881 19.3574 303 20 c 0
 290.74 20.0898 283.799 21.168 272.646 25.8633 c 2
 272.646 25.8633 269.595 27.1953 267.58 28.2705 c 0
 265.386 29.4424 264.734 29.8252 262.613 31.2637 c 0
 261.61 31.9443 260.049 33.0078 257.771 35 c 2
 257.771 35 250.859 43.7852 249.998 45.5801 c 0
 244.127 57.8145 242 74.1475 242 117 c 2
 242 347 l 1
 261.25 365.75 l 1
 242 385 l 1
 242 604 l 2
282 117 m 2
 282 111.45 281.711 74.9209 285.584 64.0459 c 0
 285.866 63.873 286.201 63.6729 286.415 63.5586 c 2
 286.415 63.5586 287.588 62.9729 288.169 62.7285 c 0
 293.599 60.4444 298.485 60.0157 303 60 c 0
 375.341 59.7479 411.088 81.7951 428.485 97.7432 c 0
 460.041 126.669 476 167.04 476 209 c 0xfe80
 476 238.11 461.355 266.059 436.329 289.402 c 0
 427.252 297.869 413.384 306.569 375.388 315.539 c 0
 347.21 322.191 313.854 325.061 282 326.339 c 1
 282 117 l 2
110.909 44.5264 m 1
 115.736 55.0459 117 67.7969 117 84 c 2
 117 566 l 2
 116.962 592.255 116.179 612.888 110.879 623.123 c 0
 110.127 624.575 109.566 625.184 109.438 625.301 c 0
 98.1485 635.646 81.0928 643.459 34.5059 656.77 c 1
 20 676 l 1
 20 697 l 1
 25.8574 711.143 l 1
 31.8574 717.143 l 1
 46 723 l 1
 354 723 l 2
 401.831 723 448.632 720.053 495.8 708.415 c 0
 528.895 700.249 563.965 688.649 591.418 663.83 c 0
 624.062 634.318 637 592.807 637 550 c 0xfe40
 637 505.117 617.489 462.295 583.513 431.257 c 0
 556.053 406.172 522.516 389.366 491.072 377.904 c 1
 504.798 374.935 518.441 371.351 532.02 367.072 c 0
 573.013 354.156 596.969 337.319 609.491 325.763 c 0
 643.708 294.185 661 251.108 661 207 c 0xfe20
 661 149.629 641.229 90.8536 594.492 48.2363 c 0
 564.725 21.0928 527.796 5.62898 491.271 -4.29102 c 0
 443.486 -17.2694 394.383 -22 345 -22 c 2
 101 -22 l 1
 81 -2 l 1
 81 14 l 1
 89.9062 30.6406 l 1
 102.201 38.2891 106.608 40.6123 110.125 43.8262 c 2
 110.909 44.5264 l 1
EndSplineSet
EndChar

StartChar: u1D53B
Encoding: 120123 120123 2
Width: 899
Flags: W
HStem: -21 40<140.326 542.563> 22 40<296.693 483.118> 635 40<286.144 517.039> 678 40<100.812 623.073>
VStem: 121 40<57.5247 635.467> 246 40<71.1996 631.903> 654 40<237.254 507.578> 808 40<250.99 512.846>
LayerCount: 2
Back
SplineSet
109 -1 m 1xd8
 109 13 l 1
 118 25 134 39 138 53 c 0
 141 63 141 88 141 106 c 2
 141 535 l 2
 141 565 141 602 134 625 c 0
 131 637 123 648 110 654 c 0
 92 661 64 665 44 668 c 1
 44 692 l 1
 50 698 l 1xb8
 465 698 l 2
 520 698 575 693 628 678 c 0
 670 666 710 648 741 620 c 0
 809 559 828 470 828 384 c 0
 828 285 802 183 723 112 c 1
 636 32 513 -1 391 -1 c 2
 109 -1 l 1xd8
266 185 m 2
 266 149 267 114 273 79 c 0
 274 70 280 62 287 56 c 0
 303 42 333 42 357 42 c 0
 440 42 525 63 585 117 c 0
 617 147 638 185 651 224 c 0
 668 274 674 326 674 378 c 0
 674 421 670 465 656 506 c 0
 645 539 630 570 604 593 c 0
 577 617 542 630 507 639 c 0
 459 651 409 655 359 655 c 0xd8
 334 655 303 655 281 651 c 0
 272 649 269 639 267 631 c 0
 266 627 266 594 266 575 c 2
 266 185 l 2
EndSplineSet
Fore
SplineSet
286 185 m 2
 286 149.359 287.21 114.974 292.795 81.7939 c 0
 293.096 80.0078 294.301 77.4297 295.583 75.7705 c 0
 297.134 73.7637 298.135 72.8692 300.093 71.1182 c 0
 307.358 64.6212 322.902 62 357 62 c 0
 424.8 62 510.511 76.1309 571.471 131.729 c 0
 600.845 158.519 619.719 193.815 632.045 230.381 c 0
 648.017 277.762 654 327.521 654 378 c 0
 654 419.774 649.88 461.622 637.05 499.606 c 0
 626.426 531.059 612.778 558.495 590.73 578.036 c 0
 576.674 590.494 553.511 606.562 502.084 619.613 c 0
 456.288 631.235 407.939 635 359 635 c 0
 335.496 635 307.237 634.868 288.175 631.938 c 0
 287.871 631.207 287.416 629.735 286.403 626.149 c 0
 286.399 626.136 286 626.141 286 575 c 2
 286 185 l 2
246 575 m 2
 246 596.297 245.693 628.591 247.597 635.851 c 0
 248.997 641.189 250.394 646.79 253.975 653.11 c 0
 259.168 662.275 266.861 668.631 277.042 670.601 c 0
 301.999 675.429 333.865 675 359 675 c 0
 410.061 675 461.789 671.069 511.916 658.387 c 0
 548.268 649.189 586.434 635.308 617.27 607.964 c 0
 647.171 581.448 663.307 546.852 674.95 512.394 c 0
 689.853 468.287 694 422.225 694 378 c 0
 694 324.479 687.721 270.327 669.955 217.619 c 0
 656.019 176.272 633.789 134.798 598.529 102.271 c 0
 575.362 80.9014 501.827 22 357 22 c 0
 332.859 22 296.308 20.8838 273.907 40.8818 c 0
 268.485 45.7227 267.468 46.7373 263.933 51.3115 c 0
 259.037 57.6465 254.86 65.7285 253.205 76.2061 c 0
 247.373 113.122 246 148.641 246 185 c 2
 246 575 l 2
100.812 678 m 1
 106.986 676.389 112.828 674.539 117.815 672.399 c 0
 136.768 664.269 148.422 647.419 153.269 630.337 c 0
 161.322 601.952 161 555.913 161 535 c 2
 161 106 l 2
 161 76.4893 160.49 58.3701 157.193 47.3789 c 2
 157.193 47.3789 156.02 43.7979 155.652 42.8652 c 0
 152.213 34.1472 146.58 26.4863 140.326 19 c 1
 391 19 l 2
 493.414 19 619.056 43.5879 709.547 126.799 c 1
 782.788 192.623 808 288.196 808 384 c 0
 808 467.43 789.347 549.627 727.619 605.135 c 0
 693.735 635.604 650.283 650.882 622.529 658.763 c 0
 571.922 673.133 518.799 678 465 678 c 2
 100.812 678 l 1
89 13 m 1
 93 25 l 1
 106.401 41.6787 115.341 49.6748 118.439 57.5352 c 2
 118.439 57.5352 114.278 43.0703 118.807 58.6211 c 0
 121.372 67.4307 121 101.138 121 106 c 2
 121 535 l 2
 121 572.923 119.886 601.814 114.731 619.663 c 0
 112.692 626.723 108.975 632.803 102.185 635.601 c 0
 88.0352 641.431 67.0859 644.313 41.0332 648.222 c 1
 24 668 l 1
 24 692 l 1
 29.8574 706.143 l 1
 35.8574 712.143 l 1
 50 718 l 1
 465 718 l 2
 521.202 718 578.108 712.972 633.471 697.237 c 0
 677.301 684.78 720.085 665.697 754.381 634.865 c 0
 828.515 568.219 848 472.57 848 384 c 0
 848 281.804 821.212 173.377 736.453 97.2012 c 1
 644.423 12.5752 516.451 -21 391 -21 c 2
 109 -21 l 1
 89 -1 l 1
 89 13 l 1
EndSplineSet
EndChar

StartChar: u1D53C
Encoding: 120124 120124 3
Width: 640
Flags: W
HStem: -27.9629 40.8252<370.323 564.999> -20 40<150.086 439.545> 41 40<271.595 514.123> 323 40<255.245 467> 369 39.7129<257.494 459.301> 625 40<255.473 474.043> 676.007 39.9932<62.7549 218.163>
VStem: 89 40<35.1592 631.057> 214 40<109.742 322.754 408.758 625> 467 40<360.79 384.947> 489 40<651.558 688.111>
LayerCount: 2
Back
SplineSet
595 76 m 1xe4
 605 68 l 1
 579 -8 l 1
 465 -1 351 0 237 0 c 0
 205 0 157 0 142 4 c 1
 127 12 109 32 109 51 c 2
 109 480 l 2
 109 524 109 594 105 612 c 0
 101 627 96 642 81 648 c 0
 59 658 35 663 11 666 c 1xcc
 11 689 l 1
 18 696 l 1xd4
 179 696 383 696 496 709 c 1
 509 704 l 1
 509 642 l 1
 497 631 l 1xe4
 420 636 270 645 269 645 c 0xd4
 263 645 254 644 246 641 c 1
 241 638 239 635 238 631 c 0
 234 620 234 608 234 595 c 2
 234 415 l 2
 234 408 237 401 243 395 c 0
 245 392 250 389 254 389 c 0
 316 389 471 405 474 406 c 0
 475 406 483 401 487 398 c 1
 487 340 l 1
 418 343 338 343 262 343 c 0
 255 343 247 343 242 338 c 0
 235 332 234 324 234 316 c 0
 234 251 234 174 243 123 c 0
 245 106 248 89 261 77 c 0
 275 65 291 61 310 61 c 0
 325 61 595 76 595 76 c 1xe4
EndSplineSet
Fore
SplineSet
473.162 385.675 m 1x3f80
 473.208 385.584 l 1
 473.162 385.675 l 1x3f80
62.7549 676.007 m 1
 71.5 673.406 80.1992 670.254 88.8516 666.389 c 0
 91.9844 664.989 105.891 659.838 115.661 641.151 c 0
 120.346 632.19 122.675 624.16 124.424 616.746 c 0
 130.168 592.396 129 511.677 129 480 c 2
 129 51 l 1
 129 51 129.035 50.0781 129.068 49.7715 c 2
 129.068 49.7715 129.193 48.832 129.298 48.3281 c 2
 129.298 48.3281 129.514 47.3633 129.719 46.6797 c 0
 130.517 44.0273 134.884 32.5342 149.506 22.8604 c 1
 161.475 21.0029 200.227 20 237 20 c 0x7fa0
 346.066 20 455.401 19.0908 564.999 12.8623 c 1
 579.449 55.1016 l 1
 520.55 51.8242 324.878 41 310 41 c 0
 288.412 41 265.68 46.0488 247.709 62.0596 c 0
 228.17 79.4678 225.256 102.798 223.221 120.094 c 1
 213.672 174.203 214 250.831 214 316 c 0
 214 325.169 214.756 340.576 228.421 352.664 c 0
 231.902 355.744 235.55 358.467 241.431 360.46 c 0
 249.119 363.066 255.784 362.99 262 363 c 0
 330.528 363.109 402.461 363.008 467 360.79 c 1
 467 384.947 l 1xbfc0
 430.892 380.851 312.586 369.582 254 369 c 1
 254 369 246.036 370.078 244.974 370.406 c 0
 236.653 372.976 241.864 370.488 226.359 383.906 c 1
 214.47 397.71 214 411.868 214 415 c 2
 214 595 l 2
 214 603.402 213.837 621.21 218.881 636.924 c 0
 221.873 646.246 227.065 652.963 235.71 658.149 c 2
 238.978 659.727 l 1
 250.218 663.941 260.863 665 269 665 c 0
 273.142 665 426.176 655.585 489 651.558 c 1
 489 688.111 l 1xbfa0
 383.125 677.01 210.962 676.083 62.7549 676.007 c 1
617.494 83.6172 m 1
 623.923 61.5264 l 1
 597.923 -14.4736 l 1
 577.774 -27.9629 l 1xbfc0
 464.473 -21.0059 350.884 -20 237 -20 c 0
 207.172 -20 155.78 -20.373 136.847 -15.3242 c 1
 132.588 -13.6475 l 1
 101.583 5.3584 93.917 26.8389 91.4141 35.1592 c 0
 90.4082 38.5029 93.6094 23.4062 90.1289 40.2197 c 2
 90.1289 40.2197 91.7578 22.5547 89.2969 45.5068 c 1
 89.2969 45.5068 89 30.6914 89 51 c 2
 89 480 l 2
 89 535.455 88.2284 595.695 85.5762 607.254 c 0
 85.2002 608.893 83.2731 616.766 80.2139 622.618 c 0
 78.4285 626.033 76.0977 628.292 73.1484 629.611 c 0
 53.8154 638.257 31.4473 643.288 8.51953 646.154 c 1
 -9 666 l 1
 -9 689 l 1
 -3.14258 703.143 l 1
 3.85742 710.143 l 1
 18 716 l 1
 178.815 716 383.04 716.137 493.714 728.869 c 1
 503.18 727.667 l 1
 516.18 722.667 l 1
 529 704 l 1
 529 642 l 1x7fa0
 522.515 627.257 l 1
 510.515 616.257 l 1
 495.704 611.042 l 1
 347.693 620.653 269.092 625 269 625 c 0
 266.418 625 261.47 624.68 256.52 623.377 c 1
 254.409 617.133 254 610.258 254 595 c 2
 254 415 l 2
 254 413.6 254.742 411.543 257.143 409.143 c 2
 257.494 408.713 l 1
 329.383 409.829 461.595 424.121 470.176 425.62 c 2
 474 426 l 2
 479 426 487.944 422.292 499 414 c 1
 507 398 l 1
 507 340 l 1x7fc0
 486.131 320.019 l 1
 417.784 322.99 337.987 323 262 323 c 0
 258.83 323 256.641 323.011 255.176 322.756 c 1
 254.54 321.478 254 318.65 254 316 c 0
 254 251.169 254.328 173.797 262.779 125.906 c 1
 265.584 102.062 269.593 96.1123 274.291 91.9404 c 0
 279.466 87.3457 288.409 81 310 81 c 0
 324.136 81 593.655 95.9561 593.891 95.9688 c 2
 607.494 91.6172 l 1
 617.494 83.6172 l 1
EndSplineSet
EndChar

StartChar: u1D53D
Encoding: 120125 120125 4
Width: 525
Flags: W
HStem: 323 40<252.245 467> 369 39.8154<252.529 453.562> 624 40<253.105 465.212> 677.684 40.3164<78.1357 220.869> 684.243 41.6436<289.13 474>
VStem: 78.0176 40.6221<11.0967 202.178> 91 40<296.665 635.927> 212 40<38.2168 322.789 409.188 622.679> 467 40<360.874 385.243> 474 40<650.788 684.243>
DStem2: 118.64 11.0967 115.275 -31.292 0.96459 0.263755<0 107.78>
LayerCount: 2
Back
SplineSet
238 23 m 1xd0
 110 -12 l 1
 98 -4 l 1xd0
 105 165 111 333 111 501 c 0
 111 551 111 606 106 623 c 0
 102 638 87 653 71 659 c 0
 53 666 31 668 12 670 c 1xa8
 12 690 l 1
 20 698 l 1
 181 698 419 698 494 706 c 1
 494 638 l 1
 487 630 l 1
 382 636 277 644 261 644 c 0
 251 644 243 641 238 636 c 0xd0
 235 632 232 624 232 609 c 2
 232 415 l 2xc8
 232 408 233 400 238 395 c 0xd0
 242 391 245 389 249 389 c 0
 323 389 400 401 474 406 c 1
 487 394 l 1
 487 340 l 1
 428 343 333 343 257 343 c 0
 250 343 242 343 237 338 c 0
 232 334 232 324 232 316 c 0xc8
 232 315 237 121 238 23 c 1xd0
EndSplineSet
Fore
SplineSet
249.657 322.647 m 2xe1
 249.529 322.615 249.407 322.579 249.293 322.54 c 2
 249.494 322.383 l 1
 249.657 322.647 l 2xe1
115.275 -31.292 m 1
 98.9062 -28.6406 l 1
 86.9062 -20.6406 l 1
 78.0176 -3.17188 l 1xed80
 85.0146 165.753 91 333.477 91 501 c 0
 91 558.823 89.7266 607.09 86.7441 617.602 c 0
 84.9404 623.958 76.165 635.612 63.8643 640.316 c 0
 49.6796 645.741 34.3877 647.532 9.90625 650.109 c 1
 -8 670 l 1
 -8 690 l 1
 -2.14258 704.143 l 1
 5.85742 712.143 l 1
 20 718 l 1xf3
 180.575 718 419.812 718.199 491.879 725.887 c 1
 514 706 l 1
 514 638 l 1xeb40
 509.052 624.83 l 1
 502.052 616.83 l 1
 485.859 610.032 l 1
 403.66 614.729 274.217 624 261 624 c 0
 257.241 624 254.63 623.684 253.526 622.704 c 0
 252.931 622.175 253.031 620.871 252.792 619.542 c 0
 252.048 615.401 252 610.948 252 609 c 2
 252 415 l 2
 252.209 411.373 251.895 410.098 252.138 409.143 c 2
 252.529 408.815 l 1
 323.371 409.194 398.695 420.957 472.651 425.954 c 1
 487.565 420.696 l 1
 500.565 408.696 l 1
 507 394 l 1
 507 340 l 1xe980
 485.984 320.025 l 1
 427.948 322.977 332.937 323 257 323 c 0
 255.017 323 253.416 323.003 252.138 322.944 c 1
 251.989 320.398 252 317.322 252 316 c 0
 252 286.725 256.505 169.622 257.999 23.2041 c 1
 243.275 3.70801 l 1
 115.275 -31.292 l 1
217.821 38.2168 m 1
 216.512 139.722 212 313.792 212 316 c 0
 212 320.452 211.771 329.877 214.392 338.262 c 0
 215.133 340.632 220.788 348.065 223.682 352.88 c 1
 226.969 356.167 230.55 358.467 236.431 360.46 c 0
 244.119 363.066 250.784 362.99 257 363 c 0
 324.686 363.108 407.357 363.019 467 360.874 c 1
 467 385.243 l 1xf580
 466.79 385.437 l 1
 396.485 380.196 322.158 369 249 369 c 1
 249 369 241.744 369.845 240.838 370.095 c 0
 233.423 372.141 231.3 374.328 223.857 380.857 c 0
 220.567 383.744 217.899 387.9 215.696 393.315 c 0
 212.459 401.273 212.504 406.271 212 415 c 2
 212 609 l 2
 212 615.625 212.49 621.43 213.423 626.618 c 0
 215.818 639.942 219.698 644.066 222 648 c 2
 223.857 650.143 l 2
 233.649 659.935 247.148 664 261 664 c 0
 278.941 664 373.728 656.689 474 650.788 c 1
 474 684.243 l 1xe940
 391.781 678.631 219.294 677.738 78.1357 677.684 c 1
 97.5303 670.296 118.656 651.932 125.256 628.398 c 0
 131.958 604.501 131 526.528 131 501 c 0xf340
 131 337.813 125.358 174.815 118.64 11.0967 c 1
 217.821 38.2168 l 1
EndSplineSet
EndChar

StartChar: u1D53E
Encoding: 120126 120126 5
Width: 845
Flags: W
HStem: -34 40<306.368 608.572> 19 40<404.103 586.254> 284.107 38.8779<427.357 580.313> 295.157 40.8281<554.159 716.343> 641 40<379.959 543.024> 689 40<350.424 633.545>
VStem: 70 40<202.082 461.153> 216 40<224.133 491.023> 587 40<60.4738 223.644> 713.223 40<49.2419 295.157>
DStem2: 427.357 284.107 396.67 246.044 0.99814 -0.0609572<0 163.496> 659.504 519.967 675.604 480.339 0.733063 0.680161<0 104.022>
LayerCount: 2
Back
SplineSet
398 303 m 1
 738 316 l 1
 730 223 733 129 740 36 c 1
 641 10 540 -14 437 -14 c 0
 347 -14 256 9 192 68 c 0
 115 138 90 237 90 334 c 0
 90 436 122 539 202 612 c 0
 280 682 389 709 496 709 c 0
 557 709 620 703 672 674 c 0
 711 653 740 621 759 585 c 1
 662 495 l 1
 644 503 l 1
 630 548 608 592 571 625 c 0
 543 651 504 661 465 661 c 0
 413 661 362 643 325 609 c 0
 293 580 273 543 259 504 c 0
 242 455 236 404 236 353 c 0
 236 262 258 167 330 101 c 0
 378 57 445 39 513 39 c 0
 536 39 560 39 583 42 c 0
 594 43 605 48 606 59 c 0
 607 77 607 117 607 146 c 2
 607 221 l 1
 605 236 595 252 578 255 c 0
 577 255 458 262 398 266 c 1
 398 303 l 1
EndSplineSet
Fore
SplineSet
659.504 519.967 m 1xefc0
 733.738 588.844 l 1
 716.631 616.256 692.604 639.84 662.389 656.462 c 0
 615.318 682.356 555.773 689 496 689 c 0
 407.389 689 295.578 669.69 215.42 597.171 c 0
 140.277 529.189 110 432.018 110 334 c 0
 110 240.137 134.269 147.742 205.505 82.752 c 0
 229.78 60.6055 298.134 6 437 6 c 0
 531.451 6 625.432 26.9482 718.847 51.1494 c 1
 715.436 99.998 713.223 149.217 713.223 198.529 c 0
 713.223 230.725 714.167 262.961 716.343 295.157 c 1xdfc0
 427.357 284.107 l 1
 517.804 278.211 577.043 275 578 275 c 2
 581.476 274.695 l 1
 601.649 271.136 615.04 256.541 621.59 241.979 c 0
 624.686 235.096 624.889 232.938 626.824 223.644 c 1
 627 221 l 1
 627 146 l 2
 627 110.756 627.079 75.1094 625.943 57.54 c 0
 625.55 51.4541 622.704 37.2842 606.408 28.3447 c 0
 598.711 24.123 594.052 23.3857 585.199 22.125 c 0
 560.478 18.6055 536.011 19 513 19 c 0
 395.092 19 335.489 68.8369 316.485 86.2568 c 0
 238.616 157.637 216 259.103 216 353 c 0
 216 405.552 221.958 459.039 240.141 510.656 c 0
 254.562 551.596 276.376 591.686 311.519 623.773 c 0
 352.828 661.492 408.437 681 465 681 c 0
 507.242 681 551.053 670.156 584.461 639.791 c 0
 621.693 605.949 644.688 563.35 659.504 519.967 c 1xefc0
737.236 335.985 m 1
 757.927 314.286 l 1
 754.626 275.916 753.223 237.281 753.223 198.529 c 0
 753.223 144.944 755.906 91.1348 759.943 37.501 c 1
 745.08 16.6562 l 1
 645.786 -9.4209 543.13 -34 437 -34 c 0
 352.272 -34 252.053 -14.0644 178.495 53.248 c 0
 96.0928 128.654 70 233.863 70 334 c 0
 70 439.982 103.106 549.489 188.58 626.829 c 0
 276.657 706.524 397.185 729 496 729 c 0
 542.174 729 618.346 726.328 681.611 691.538 c 0
 724.271 668.079 756.067 633.404 776.688 594.335 c 1
 772.604 570.339 l 1
 675.604 480.339 l 1
 653.877 476.724 l 1
 635.877 484.724 l 1
 624.903 497.059 l 1
 611.545 539.996 590.674 580.383 557.539 610.209 c 0
 547.807 618.969 520.435 641 465 641 c 0
 423.769 641 375.323 627.876 338.481 594.227 c 0
 309.845 568.071 290.974 534.569 277.859 497.344 c 0
 261.576 451.124 256 402.448 256 353 c 0
 256 264.897 277.384 176.363 343.515 115.743 c 0
 386.539 76.3047 448.371 59 513 59 c 0
 535.989 59 559.569 59.049 580.801 61.875 c 0
 581.953 62.0284 584.238 62.2051 586.182 62.959 c 1
 586.988 80.9121 587 118.474 587 146 c 2
 587 219.206 l 2
 586.414 222.062 586.225 223.093 585.11 225.571 c 0
 582.586 231.185 579.285 234.783 575.411 235.111 c 0
 556.045 236.753 436.635 243.38 396.67 246.044 c 1
 378 266 l 1
 378 303 l 1
 397.236 322.985 l 1xefc0
 737.236 335.985 l 1
EndSplineSet
EndChar

StartChar: u1D540
Encoding: 120128 120128 6
Width: 461
Flags: W
HStem: -19 67.5479<48 76.158 361.39 387> -19 40<105.622 334.556> 676 40<97.1221 334.098>
VStem: 132 40<64.5711 631.799> 260.046 39.9082<66.6975 631.752>
LayerCount: 2
Back
SplineSet
278 618 m 2
 277 367 l 2
 277 280 277 158 280 106 c 0
 282 80 293 51 323 44 c 2
 387 30 l 1
 387 1 l 1
 48 1 l 1
 48 29 l 1
 122 45 l 2
 138 49 150 65 150 81 c 0
 152 124 152 275 152 372 c 0
 152 455 152 541 146 622 c 0
 145 636 133 647 118 651 c 2
 49 666 l 1
 49 692 l 1
 53 696 l 1
 376 696 l 1
 380 692 l 1
 380 665 l 1
 302 649 l 2
 286 646 278 632 278 618 c 2
EndSplineSet
Fore
SplineSet
297 366.96 m 2xb8
 297 280.116 296.732 157.95 299.954 107.343 c 0
 301.409 84.4893 310.007 67.5684 327.409 63.5078 c 2
 391.273 49.5381 l 1
 407 30 l 1
 407 1 l 1
 387 -19 l 1
 48 -19 l 1
 28 1 l 1
 28 29 l 1
 43.7734 48.5479 l 1
 117.461 64.4756 l 2
 125.181 66.4053 129.762 75.3262 130.011 81.4648 c 0
 131.699 123.132 132 275.205 132 372 c 0
 132 454.991 131.963 540.578 126.053 620.549 c 0
 125.639 626.147 117.979 630.318 113.299 631.566 c 2
 44.751 646.456 l 1
 29 666 l 1
 29 692 l 1
 34.8574 706.143 l 1
 38.8574 710.143 l 1
 53 716 l 1
 376 716 l 1
 390.143 710.143 l 1
 394.143 706.143 l 1
 400 692 l 1
 400 665 l 1
 384.019 645.408 l 1
 305.853 629.375 l 2
 302.652 628.775 298.033 626.36 298 617.96 c 2
 297 366.96 l 2xb8
258 618.04 m 2
 258.081 638.303 269.275 663.211 298.147 668.625 c 2
 334.098 676 l 1
 97.1221 676 l 1
 122.701 670.434 l 1
 148.865 663.457 164.485 643.329 165.947 623.451 c 0
 171.981 541.417 172 455.009 172 372 c 0
 172 274.795 172.052 124.879 169.989 80.5352 c 1
 169.989 54.6787 149.742 31.3252 126.539 25.5244 c 2
 105.622 21 l 1
 334.556 21 l 1x78
 318.591 24.4922 l 2
 274.748 34.7227 261.846 76.668 260.046 104.657 c 0
 256.615 158.01 257 279.884 257 367.04 c 2
 258 618.04 l 2
EndSplineSet
EndChar

StartChar: u1D541
Encoding: 120129 120129 7
Width: 457
Flags: W
HStem: 650 75<82 131.946> 685 40<132.892 378.571>
VStem: 160 40<-42.9199 641.927> 285 40<2.03703 636.857>
LayerCount: 2
Back
SplineSet
305 513 m 2xa0
 305 167 l 2
 305 101 304 52 292 16 c 0
 275 -35 260 -57 217 -92 c 0
 191 -113 161 -133 133 -151 c 0
 112 -165 82 -181 62 -192 c 1
 45 -164 l 1
 64 -152 93 -132 113 -114 c 0
 138 -92 155 -66 164 -37 c 0
 178 8 180 65 180 128 c 2
 180 559 l 2
 180 583 180 609 177 631 c 0
 175 646 162 656 147 661 c 0
 123 668 98 670 73 670 c 1
 73 697 l 1
 82 705 l 1x60
 404 705 l 1
 412 697 l 1
 412 672 l 1
 390 667 345 658 344 658 c 0
 330 654 316 643 312 629 c 0
 305 605 305 552 305 513 c 2xa0
EndSplineSet
Fore
SplineSet
325 167 m 2x70
 325 119.438 325.669 53.7608 310.974 9.67578 c 0
 292.407 -46.0243 273.809 -71.6522 229.596 -107.535 c 0
 202.639 -129.413 172.034 -149.387 143.955 -167.732 c 0
 121.484 -182.414 91.5156 -198.593 71.6387 -209.524 c 1
 44.9043 -202.38 l 1
 27.9043 -174.38 l 1
 34.3203 -147.09 l 1
 41.1709 -142.764 75.6189 -120.503 99.7041 -99.0596 c 0
 122.108 -79.1131 137.005 -56.4668 144.9 -31.0654 c 0
 157.635 9.90527 160 65.4453 160 128 c 2
 160 559 l 2
 160 582.951 160.279 608.42 157.18 628.327 c 0
 156.568 632.253 154.808 634.633 149.412 638.007 c 0
 146.177 640.03 143.156 641.287 141.038 641.913 c 0
 119.679 648.223 96.9463 650 73 650 c 1
 53 670 l 1
 53 697 l 1
 59.7129 711.948 l 1
 68.7129 719.948 l 1
 82 725 l 1xb0
 404 725 l 1
 418.143 719.143 l 1
 426.143 711.143 l 1
 432 697 l 1
 432 672 l 1
 416.433 652.497 l 1
 395.566 647.755 362.676 641.032 349.494 638.77 c 1
 341.415 635.841 337.577 633.214 333.997 628.635 c 0
 332.52 626.745 331.642 624.918 331.215 623.453 c 0
 325.19 602.769 325 546.388 325 513 c 2
 325 167 l 2x70
285 513 m 2
 285 573.532 286.156 611.705 292.785 634.547 c 0
 294.858 641.687 298.297 647.917 302.485 653.273 c 0
 312.602 666.212 322.701 671.502 338.506 677.23 c 1
 344 678 l 2
 344.018 678 346.759 685 378.571 685 c 2
 132.892 685 l 1x70
 139.619 683.701 146.326 682.086 152.962 680.087 c 0
 158.955 678.281 165.099 675.374 170.619 671.922 c 0
 192.247 658.398 195.381 642.269 196.82 633.673 c 0
 200.826 609.745 200 583.049 200 559 c 2
 200 128 l 2
 200 64.5547 198.341 6.1016 183.1 -42.9346 c 0
 172.97 -75.5263 153.672 -104.638 126.296 -128.94 c 0
 122.335 -132.457 118.129 -135.995 113.815 -139.484 c 2
 122.046 -134.268 l 2
 149.728 -116.244 179.461 -96.709 204.404 -76.4648 c 0
 246.29 -42.4697 258.338 -21.7421 273.026 22.3242 c 0
 281.946 49.084 285 80.9219 285 167 c 2
 285 513 l 2
EndSplineSet
EndChar

StartChar: u1D542
Encoding: 120130 120130 8
Width: 747
Flags: W
HStem: 680.611 40.3818<87.3105 261.642 584.938 645.403>
VStem: 124 40<12.4121 628.341> 248 40.0664<118.717 286.543 424.574 593.367>
DStem2: 159.505 12.4121 155.148 -31.0312 0.951571 0.30743<0 106.966> 291.81 338.467 288.066 286.543 0.702277 -0.711904<34.336 440.619> 288.224 424.574 294.465 373.188 0.690587 0.723249<0 387.762> 399.22 396.634 365.713 373.146 0.739173 -0.673516<0 448.086> 369.906 423.641 399.22 396.634 0.732187 0.681103<3.06851 376.494> 595.468 19.0889 597.862 -23.3896 0.919489 0.393115<-6.42953 117.483>
LayerCount: 2
Back
SplineSet
280 387 m 1xa0
 576 697 l 1
 682 702 l 1
 682 687 l 1
 381 407 l 2
 378 405 376 399 376 397 c 0
 376 393 378 388 379 388 c 2
 728 70 l 1
 728 54 l 1
 590 -5 l 1
 491 108 388 219 278 324 c 1
 268 324 l 1xa0
 268 226 269 128 279 30 c 1
 149 -12 l 1
 139 -2 l 1xc0
 143 111 144 225 144 338 c 0
 144 430 144 584 142 614 c 0
 140 632 118 646 100 652 c 0
 89 655 64 661 46 665 c 1
 46 691 l 1
 50 695 l 1
 276 701 l 1
 283 694 l 1
 273 591 268 490 268 387 c 1
 280 387 l 1xa0
EndSplineSet
Fore
SplineSet
561.535 710.812 m 1
 575.058 716.978 l 1
 681.058 721.978 l 1
 702 702 l 1
 702 687 l 1
 695.622 672.356 l 1
 399.22 396.634 l 1
 741.471 84.7832 l 1
 748 70 l 1
 748 54 l 1
 735.862 35.6104 l 1
 597.862 -23.3896 l 1
 574.957 -18.1797 l 1
 483.425 86.2969 388.581 188.922 288.066 286.543 c 1
 288.405 201.295 290.28 116.465 298.896 32.0303 c 1
 285.148 10.9688 l 1
 155.148 -31.0312 l 1
 134.857 -26.1426 l 1
 124.857 -16.1426 l 1
 119.013 -1.29199 l 1
 123 111.351 124 225.118 124 338 c 0
 124 447.868 124.285 584.948 122.083 612.23 c 0
 121.887 614.653 120.997 615.325 118.556 618.055 c 0
 111.157 626.327 99.6455 631.269 94.207 632.865 c 0
 83.9609 635.872 59.3213 641.552 41.6611 645.477 c 1
 26 665 l 1
 26 691 l 1
 31.8574 705.143 l 1
 35.8574 709.143 l 1
 49.4688 714.993 l 1
 275.469 720.993 l 1
 290.143 715.143 l 1
 297.143 708.143 l 1
 302.906 692.067 l 1
 294.185 602.237 289.292 513.992 288.224 424.574 c 1
 561.535 710.812 l 1
294.465 373.188 m 1
 280 367 l 1
 268 367 l 1
 248 387 l 1
 248 485.534 252.55 582.282 261.642 680.611 c 1
 87.3105 675.983 l 1
 94.7432 674.205 101.343 672.532 105.793 671.135 c 0
 124.184 665.36 138.812 655.408 148.371 644.721 c 0
 160.473 631.189 161.659 618.913 161.917 615.77 c 0
 164.56 583.558 164 402.745 164 338 c 0
 164 229.909 163.087 120.802 159.505 12.4121 c 1
 257.538 44.084 l 1
 248.877 137.865 248 231.181 248 324 c 1
 268 344 l 1
 278 344 l 1
 291.81 338.467 l 1
 398.84 236.301 499.142 128.62 595.468 19.0889 c 1
 703.492 65.2734 l 1
 365.713 373.146 l 2
 359.615 378.54 356 387.534 356 397 c 0
 356 399 356.806 403.425 357.04 404.3 c 0
 360.457 417.057 367.252 419.829 369.906 423.641 c 2
 645.403 680.252 l 1
 584.938 677.399 l 1
 294.465 373.188 l 1
EndSplineSet
EndChar

StartChar: u1D543
Encoding: 120131 120131 9
Width: 620
Flags: W
HStem: -20 40<130.499 552.278> 33 40<277.995 485.651> 682 40<97.6533 314.782>
VStem: 107.757 42.2432<54.9629 642.947> 235 40<73.0105 635.727>
LayerCount: 2
Back
SplineSet
575 75 m 1
 588 66 l 1
 567 -5 l 1
 477 0 256 0 100 0 c 1
 100 17 l 1
 109 27 124 40 127 50 c 0
 130 62 130 96 130 119 c 2
 130 565 l 2
 130 588 129 606 125 629 c 0
 122 641 108 657 95 662 c 1
 78 667 60 670 42 671 c 1
 42 694 l 1
 50 702 l 1
 345 702 l 1
 353 694 l 1
 353 667 l 1
 334 665 311 662 289 655 c 1
 277 650 262 642 259 626 c 0
 256 612 255 573 255 544 c 2
 255 253 l 2
 255 196 255 108 260 73 c 0
 262 60 274 53 282 53 c 0
 385 53 540 71 575 75 c 1
EndSplineSet
Fore
SplineSet
130.499 20 m 1
 264.235 20 457.848 19.8193 552.278 15.7422 c 1
 563.462 53.5518 l 1
 511.872 47.6992 376.621 33 282 33 c 1
 282 33 276.687 33.3927 275.718 33.5645 c 0
 249.627 38.189 244.227 58.5254 240.217 70.0654 c 1
 235.077 106.046 235 198.041 235 253 c 2
 235 544 l 2
 235 565.415 235.479 611.313 239.394 629.938 c 0
 240.105 633.324 242.823 648.602 259.808 661.566 c 0
 267.536 667.466 275.183 671.307 282.122 673.76 c 0
 292.859 677.555 304.074 680.107 314.782 682 c 1
 97.6533 682 l 1
 101.411 680.927 l 1
 117.639 674.686 139.266 654.289 144.554 633.139 c 1
 149.169 606.603 150 585.237 150 565 c 2
 150 119 l 2
 150 89.46 149.797 58.7715 146.279 44.7012 c 1
 146.279 44.7012 144.674 40.167 144.31 39.3652 c 2
 144.31 39.3652 142.861 36.4199 142.12 35.1436 c 2
 142.12 35.1436 140.639 32.6993 139.727 31.3682 c 0
 137.008 27.4007 133.974 23.7881 130.499 20 c 1
599.384 82.4434 m 1
 607.179 60.3271 l 1
 586.179 -10.6729 l 1
 565.891 -24.9688 l 1
 477.244 -20.0439 255.842 -20 100 -20 c 1
 80 -0 l 1
 80 17 l 1
 85.1338 30.3789 l 1
 98.2881 44.3496 103.148 48.749 106.728 53.9746 c 2
 107.443 55.0264 l 2
 106.887 53.749 104.222 47.5254 107.757 55.2988 c 0
 107.757 55.3447 107.757 55.3906 107.757 55.4424 c 0
 107.757 55.4561 107.757 55.4824 107.757 55.4824 c 2
 107.757 55.5215 107.757 55.5586 107.757 55.5654 c 0
 110.977 68.0717 110 112.499 110 119 c 2
 110 565 l 2
 110 587.475 109.545 603.108 105.446 624.861 c 0
 104.468 630.055 95.4404 640.87 88.5889 643.073 c 0
 73.2958 647.991 57.416 650.113 40.8906 651.031 c 1
 22 671 l 1
 22 694 l 1
 27.8574 708.143 l 1
 35.8574 716.143 l 1
 50 722 l 1
 345 722 l 1
 359.143 716.143 l 1
 367.143 708.143 l 1
 373 694 l 1
 373 667 l 1
 355.094 647.109 l 1
 336.522 645.154 315.547 642.786 295.878 636.24 c 0
 293.169 635.339 288.571 633.201 284.077 629.771 c 0
 281.379 627.711 279.268 625.249 278.606 622.062 c 0
 276.656 612.658 275 579.746 275 544 c 2
 275 253 l 2
 275 199.959 274.271 110.714 279.783 75.9346 c 0
 280.101 73.9316 281.244 73.2158 282 73 c 0
 382.983 73 537.921 90.8926 572.729 94.8711 c 1
 586.384 91.4434 l 1
 599.384 82.4434 l 1
107.443 55.0264 m 1
 107.537 55.2441 l 1
 107.443 55.0264 l 1
EndSplineSet
EndChar

StartChar: u1D544
Encoding: 120132 120132 10
Width: 1157
Flags: W
HStem: -36 40<893.396 1020.87> -21 40<478 540.668> 34.0391 39.9609<1030.85 1060.49> 681 40<156.341 324.939 853.376 976.767>
VStem: 180 40<453.147 636.674> 850 40<6.99618 238.738> 963 40<244.355 670.275>
DStem2: 67.4277 7.1123 111.555 22.5996 0.205595 0.978637<24.2287 568.95> 111.555 22.5996 107.324 -21 0.948594 0.316496<0 58.0278> 166.604 40.9502 204.866 23.6885 0.115726 0.993281<0 454.303> 279.065 540.571 258.85 487.579 0.380561 -0.924756<41.3115 560.324> 531.877 19 561.731 -10.251 0.496118 0.868255<0 94.3473> 713.377 455.456 748.691 436.632 0.443982 0.896036<-202.087 202.077>
LayerCount: 2
Back
SplineSet
244 533 m 2xf8
 185 26 l 1
 101 -2 l 1
 87 3 l 1
 162 360 l 2
 179 442 200 543 200 606 c 0
 200 628 187 652 150 662 c 0
 134 666 117 668 100 669 c 1
 100 693 l 1
 108 701 l 1
 333 701 l 1
 398 520 468 341 556 167 c 0
 557 165 560 163 562 163 c 0
 564 163 567 165 569 167 c 0
 629 265 731 445 731 446 c 0
 775 528 817 610 844 698 c 1
 1006 700 l 1
 1012 688 l 1
 993 668 l 1
 984 657 983 643 983 595 c 2xf4
 983 449 l 2xf8
 983 360 988 272 996 184 c 0
 1000 143 1005 84 1023 68 c 0
 1033 59 1050 54 1063 54 c 0
 1081 54 1106 56 1121 58 c 1
 1125 31 l 2
 1124 31 1033 6 987 -7 c 0
 967 -12 948 -16 928 -16 c 0
 914 -16 900 -14 891 -6 c 0
 878 6 870 22 870 38 c 0xf4
 870 207 868 365 855 533 c 0
 855 537 852 544 847 544 c 0
 845 544 842 539 838 533 c 0
 730 355 640 183 544 -1 c 1
 470 -1 l 1
 404 181 341 354 261 532 c 0
 259 536 255 539 252 539 c 0
 248 539 244 536 244 533 c 2xf8
EndSplineSet
Fore
SplineSet
204.866 23.6885 m 1x7e
 191.324 7.02637 l 1
 107.324 -21 l 1x7e
 94.2734 -20.835 l 1
 80.2734 -15.835 l 1
 67.4277 7.1123 l 1
 142.422 364.086 l 2
 159.371 445.843 180 546.951 180 606 c 0
 180 628.016 161.83 638.244 144.966 642.645 c 0
 130.715 646.363 115.044 648.08 98.8252 649.034 c 1
 80 669 l 1
 80 693 l 1
 85.8574 707.143 l 1
 93.8574 715.143 l 1
 108 721 l 1
 333 721 l 1
 351.823 707.76 l 1
 414.126 534.271 480.912 363.004 563.55 196.575 c 1
 626.636 301.153 708.329 445.467 713.001 454.697 c 2
 713.377 455.456 l 1
 757.263 537.243 798.568 618.109 824.88 703.866 c 1
 843.753 717.998 l 1
 1005.75 719.998 l 1
 1023.89 708.944 l 1
 1029.89 696.944 l 1
 1026.5 674.225 l 1
 1007.99 654.78 l 2
 1006.81 653.129 1006.69 653.239 1005.71 649.634 c 0
 1003.97 643.18 1003 632.094 1003 595 c 2
 1003 449 l 2
 1003 360.75 1007.79 273.413 1015.91 185.876 c 0
 1019.7 145.092 1024.44 100.862 1034.77 84.8926 c 0
 1035.57 83.6632 1036.23 83.0039 1036.33 82.9072 c 0
 1040.81 78.877 1052.39 74 1063 74 c 0
 1079.58 74 1104.45 75.9697 1118.36 77.8242 c 1
 1140.78 60.9307 l 1
 1144.78 33.9307 l 1
 1125 11 l 2
 1124.95 11 1124.77 10.5781 992.145 -26.3242 c 0
 971.868 -31.9658 950.704 -36.2275 928 -36 c 0xbe
 917.42 -35.8936 905.587 -35.4932 892.694 -30.1797 c 0
 887.531 -28.0518 882.161 -25.0332 877.573 -20.835 c 0
 862.042 -6.62109 850 14.5215 850 38 c 0
 850 193.934 848.266 340.774 837.812 494.006 c 1
 737.584 326.768 652.618 163.949 561.731 -10.251 c 1
 544 -21 l 1
 470 -21 l 1
 451.198 -7.81836 l 1
 389.66 161.877 331.036 322.971 258.85 487.579 c 1
 204.866 23.6885 l 1x7e
224.067 534.156 m 2
 224.067 537.156 227.269 545.066 227.706 545.77 c 0
 235.335 558.03 246.668 557.823 252 559 c 0
 254.93 559.646 261.23 557.284 262.059 556.94 c 0
 270.066 553.616 268.819 552.867 279.065 540.571 c 1
 357.504 366.046 419.736 196.215 484.021 19 c 1
 531.877 19 l 1x7e
 625.795 198.98 714.694 368.619 821.13 543.734 c 0
 823.268 547.252 826.379 551.809 828.756 554.66 c 0
 829.876 556.004 845.08 562.528 847 564 c 1
 870.034 564 874.506 539.999 874.971 533.771 c 0
 887.569 364.923 890 207.148 890 38 c 0
 890 28.7705 894.839 17.6501 904.427 8.82227 c 0
 905.167 8.14068 906.169 7.53223 907.936 6.80371 c 0
 915.347 3.74902 925.934 3.91406 928 4 c 0xbe
 945.295 3.94141 962.273 7.42871 981.855 12.3242 c 2
 1060.49 34.0391 l 1
 1040.07 34.6729 1020.99 42.9336 1009.67 53.0928 c 0
 1006.19 56.2129 1003.49 59.5967 1001.19 63.165 c 0
 986.964 85.1484 981.693 122.05 976.088 182.124 c 0
 967.837 270.553 963 359.25 963 449 c 2
 963 595 l 2
 963 620.862 962.919 644.599 967.101 660.07 c 0
 969.957 670.64 974.441 676.705 976.767 679.638 c 1
 858.703 678.18 l 1
 831.076 593.493 790.65 514.882 748.926 437.107 c 1
 748.691 436.632 l 2
 741.578 422.578 643.154 250.096 586.057 156.557 c 1
 583.143 152.857 l 1
 573.843 143.558 564.036 143 562 143 c 0
 552.444 143 542.489 149.394 538.132 158.015 c 0
 451.761 328.893 382.735 504.142 318.942 681 c 1
 156.341 681 l 1
 202.872 668.099 220 635.78 220 606 c 0
 220 539.049 198.629 438.157 181.578 355.914 c 2
 111.555 22.5996 l 1
 166.604 40.9502 l 1
 224.067 534.156 l 2
EndSplineSet
EndChar

StartChar: u1D546
Encoding: 120134 120134 11
Width: 881
Flags: W
HStem: -35 40<269.312 483.08> 11 40<370.546 483.684> 700 40<460.774 618.118>
VStem: 52 40<195.547 460.743> 190 40<227.66 486.345> 659 40<187.955 481.375> 802 40<248.897 515.06>
LayerCount: 2
Back
SplineSet
72 330 m 0
 72 438 108 553 193 630 c 0
 270 700 370 720 489 720 c 0
 574 720 661 699 722 644 c 0
 795 577 822 483 822 391 c 0
 822 333 814 275 794 220 c 0
 778 174 753 131 716 97 c 0
 630 19 510 -15 389 -15 c 0
 309 -15 229 7 172 59 c 0
 137 91 114 131 98 174 c 0
 79 224 72 277 72 330 c 0
210 366 m 0
 210 263 235 157 316 83 c 0
 352 50 402 31 454 31 c 0
 507 31 561 48 599 82 c 0
 629 109 645 145 658 181 c 1
 673 228 679 276 679 325 c 0
 679 387 672 449 652 508 c 0
 636 554 612 599 574 634 c 0
 541 664 494 680 447 680 c 0
 394 680 343 656 306 622 c 0
 272 592 253 558 239 518 c 0
 221 469 210 417 210 366 c 0
EndSplineSet
Fore
SplineSet
220.175 524.752 m 0
 234.516 564.62 253.977 602.767 292.617 636.861 c 0
 321.946 663.812 361.864 687.145 407.354 696.098 c 1
 327.418 687.662 260.657 664.385 206.44 615.189 c 0
 124.604 540.932 92 430.258 92 330 c 0
 92 278.742 98.9668 228.213 116.72 181.039 c 0
 132.118 140.122 153.417 103.049 185.487 73.7676 c 0
 237.535 26.2454 312.521 5 389 5 c 0
 419.695 5 452.447 7.31344 485.695 12.8471 c 1
 475.155 11.6109 464.553 11 454 11 c 0
 397.145 11 342.528 31.6349 302.498 68.2451 c 0
 215.709 147.619 190 260.087 190 366 c 0
 190 419.884 201.851 473.811 220.175 524.752 c 0
230 366 m 0
 230 265.913 254.368 166.466 329.502 97.7549 c 0
 361.548 68.4484 406.855 51 454 51 c 0
 502.807 51 552.28 66.959 585.643 96.8857 c 0
 611.619 120.188 626.361 152.248 639.068 187.437 c 1
 653.335 232.14 659 277.621 659 325 c 0
 659 385.51 652.361 445.279 633.084 501.504 c 0
 617.97 545.586 595.343 587.34 560.498 619.245 c 0
 531.999 645.34 489.524 660 447 660 c 0
 400.127 660 353.468 637.862 319.383 607.139 c 0
 288.59 579.382 271.485 549.234 257.825 511.248 c 0
 240.815 463.946 230 414.116 230 366 c 0
179.56 644.811 m 0
 261.952 719.574 368.122 740 489 740 c 0
 566.791 740 665.247 722.689 735.458 658.794 c 0
 812.222 588.935 842 489.985 842 391 c 0
 842 331.174 833.437 271.078 812.843 213.297 c 0
 795.633 165.01 769.562 118.726 729.484 82.2295 c 0
 638.82 -0.33185 513.614 -35 389 -35 c 0
 313.583 -35 224.583 -16.0908 158.513 44.2324 c 0
 120.539 78.9033 96.2031 121.998 79.2803 166.961 c 0
 59.3525 219.908 52 275.258 52 330 c 0
 52 442.241 89.2002 562.817 179.56 644.811 c 0
460.774 699.591 m 1
 507.592 696.811 553.538 679.844 587.502 648.755 c 0
 628.868 610.89 654.438 562.556 670.916 514.496 c 0
 692.048 452.86 699 388.49 699 325 c 0
 699 274.379 692.665 223.861 676.932 174.563 c 1
 663.639 137.752 646.469 97.7148 612.357 67.1143 c 0
 589.902 46.9703 562.973 32.4597 534.141 23.2467 c 1
 594.112 39.1775 653.254 66.9301 702.516 111.771 c 0
 736.75 142.933 759.664 183.237 775.157 226.703 c 0
 793.861 279.175 802 334.826 802 391 c 0
 802 479.118 776.464 567.146 708.542 629.206 c 0
 685.562 650.203 620.765 700 489 700 c 0
 479.435 700 470.027 699.869 460.774 699.591 c 1
EndSplineSet
EndChar

StartChar: u1D54A
Encoding: 120138 120138 12
Width: 654
Flags: W
HStem: -34 40<186.859 397.489> 15 40<275.46 401.843> 703 40<373.044 511.753>
VStem: 110 40<455.698 604.806> 221 40<521.329 639.569> 448 40<100.069 209.366> 569 40<138.927 281.005>
DStem2: 66.0596 100.296 106.786 85.8916 0.664789 0.747031<13.7873 123.943> 495.783 573.183 508.29 532.222 0.788905 0.614515<0 91.3964>
LayerCount: 2
Back
SplineSet
496 548 m 1
 479 553 l 1
 474 591 458 629 428 656 c 0
 406 676 376 685 345 685 c 0
 317 685 290 676 271 658 c 1
 249 639 241 611 241 584 c 0
 241 550 253 516 280 492 c 0
 314 461 356 438 398 416 c 0
 444 393 499 365 527 339 c 0
 565 305 589 261 589 213 c 0
 589 163 567 115 528 80 c 0
 463 21 375 -14 283 -14 c 0
 238 -14 193 -2 154 19 c 0
 124 35 100 60 81 87 c 1
 178 196 l 1
 197 189 l 1
 197 146 213 102 247 71 c 0
 272 49 305 35 340 35 c 0
 374 35 405 49 428 70 c 0
 454 93 468 125 468 158 c 0
 468 196 443 227 414 254 c 0
 392 274 343 300 305 320 c 0
 265 341 228 365 195 395 c 0
 158 429 130 472 130 520 c 0
 130 572 146 623 187 660 c 0
 240 708 316 723 390 723 c 0
 423 723 455 721 487 713 c 0
 510 707 533 698 550 682 c 0
 568 665 582 644 591 622 c 1
 496 548 l 1
EndSplineSet
Fore
SplineSet
373.044 702.72 m 1
 398.053 698.541 421.954 688.429 441.416 670.832 c 0
 471.746 643.409 488.351 607.59 495.783 573.183 c 1
 566.137 627.984 l 1
 558.479 642.44 548.357 656.065 536.28 667.448 c 0
 519.532 683.233 493.528 690.718 482.051 693.622 c 0
 452.376 701.131 422.213 703 390 703 c 0
 384.192 703 378.542 702.904 373.044 702.72 c 1
178.337 166.294 m 1
 106.786 85.8916 l 1
 122.758 65.793 141.698 48.297 163.447 36.6279 c 0
 199.631 17.2141 241.562 6 283 6 c 0
 369.914 6 453.213 39.3556 514.6 94.8467 c 0
 549.516 126.409 569 168.91 569 213 c 0
 569 254.119 548.16 292.795 513.527 324.22 c 0
 492.598 343.211 453.39 365.34 388.888 398.197 c 0
 346.424 419.828 303.245 444.134 266.619 477.137 c 0
 234.862 505.752 221 545.444 221 584 c 0
 221 614.683 229.756 648.793 257.586 672.828 c 0
 263.632 678.556 270.218 683.464 277.214 687.597 c 1
 239.391 675.629 215.527 658.825 200.412 645.164 c 0
 164.427 612.64 150 567.029 150 520 c 0
 150 475.891 177.807 437.808 208.493 409.763 c 0
 239.831 381.121 275.364 358.169 314.306 337.703 c 0
 341.208 323.564 401.843 292.396 427.541 268.719 c 0
 460.683 238.183 488 202.255 488 158 c 0
 488 119.344 471.419 82.1055 441.368 55.125 c 0
 414.882 31.3447 379.577 15 340 15 c 0
 299.608 15 261.761 30.8781 233.656 56.1035 c 0
 200.781 85.6105 183.112 125.819 178.337 166.294 c 1
473.356 533.812 m 1
 459.171 550.391 l 1
 454.651 584.741 440.137 618.077 414.584 641.168 c 0
 397.135 656.936 372.242 665 345 665 c 0
 321.188 665 299.212 656.537 284.414 643.172 c 0
 268.559 628.852 261 607.317 261 584 c 0
 261 554.556 271.478 526.628 293.381 506.863 c 0
 325.098 478.243 365.065 455.18 407.112 433.803 c 0
 483.447 394.994 517.871 374.272 540.473 353.78 c 0
 581.378 316.693 609 267.881 609 213 c 0
 609 157.09 584.236 103.866 541.4 65.1533 c 0
 472.538 2.91992 380.085 -34 283 -34 c 0
 234.438 -34 186.438 -21.0855 144.553 1.37207 c 0
 110.822 19.4574 84.8379 46.793 64.6436 75.4902 c 1
 66.0596 100.296 l 1
 163.06 209.296 l 1
 184.914 214.767 l 1
 203.914 207.767 l 1
 217 189 l 1
 217 150.843 230.901 112.339 260.344 85.8916 c 0
 281.798 66.6203 310.392 55 340 55 c 0
 368.423 55 394.771 67.0381 414.632 84.875 c 0
 436.238 104.28 448 130.656 448 158 c 0
 448 190.545 424.03 217.562 400.459 239.281 c 0
 382.426 255.897 343.926 276.941 295.694 302.297 c 0
 254.657 323.87 216.003 348.697 181.507 380.237 c 0
 142.154 416.218 110 463.842 110 520 c 0
 110 578.165 128.8 634.336 173.588 674.836 c 0
 232.363 727.984 313.522 743 390 743 c 0
 423.787 743 457.683 741.1 491.949 732.378 c 0
 516.492 726.131 542.841 716.236 563.72 696.552 c 0
 583.954 677.475 599.45 654.164 609.511 629.572 c 1
 603.29 606.222 l 1
 508.29 532.222 l 1
 490.356 528.812 l 1
 473.356 533.812 l 1
EndSplineSet
EndChar

StartChar: u1D54B
Encoding: 120139 120139 13
Width: 543
Flags: W
HStem: 617.024 40.5479<42 172.511> 629 40<115.424 236.793 405.19 608> 683 40<113.336 522.782> 693.572 40.4121<42 233.145 411.071 608>
VStem: 2 40<657.572 691.719> 229.009 40.3613<13.0322 202.483> 237 40<295.182 626.786> 365 40<292.845 629> 608 40<665.17 693.572>
DStem2: 269.37 13.0322 263.477 -30.2354 0.961776 0.273839<0 119.086>
LayerCount: 2
Back
SplineSet
257 496 m 2x50
 257 629 l 2
 257 637 252 643 248 644 c 1
 245 646 240 647 232 647 c 2x30
 31 637 l 1
 22 646 l 1
 22 704 l 1
 30 712 l 1x90
 126 710 222 703 318 703 c 0x30
 418 703 518 710 618 714 c 1
 628 704 l 1
 628 654 l 1
 617 645 l 1
 606 645 474 649 406 649 c 0
 396 649 393 648 389 645 c 0
 386 643 385 641 385 634 c 2
 385 496 l 2
 385 341 392 185 402 30 c 1
 258 -11 l 1
 249 1 l 1
 254 166 257 331 257 496 c 2x50
EndSplineSet
Fore
SplineSet
405 629 m 2x5b80
 405 496 l 2
 405 341.602 411.976 186.025 421.959 31.2881 c 1
 407.477 10.7646 l 1
 263.477 -30.2354 l 1
 242 -23 l 1
 233 -11 l 1
 229.009 1.60547 l 1x5d80
 234.004 166.444 237 331.242 237 496 c 2
 237 626.786 l 1
 235.787 626.934 234.227 627.013 232.497 627.013 c 2
 31.9941 617.024 l 1
 16.8574 622.857 l 1
 7.85742 631.857 l 1
 2 646 l 1
 2 704 l 1
 7.85742 718.143 l 1
 15.8574 726.143 l 1
 30.417 731.996 l 1
 127.11 729.981 222.972 723 318 723 c 0xab80
 417.066 723 516.802 729.969 617.2 733.984 c 1
 632.143 728.143 l 1
 642.143 718.143 l 1
 648 704 l 1
 648 654 l 1
 640.665 638.521 l 1
 629.665 629.521 l 1
 617 625 l 1
 604.833 625 473.67 629 406 629 c 2
 406 629 405.602 629 405 629 c 2x5b80
42 657.572 m 1xad80
 231.503 666.987 l 2
 239.644 666.987 245.126 666.104 248.265 665.313 c 0
 249.196 665.079 250.96 663.95 253.108 663.337 c 0
 266.956 659.388 277 645.26 277 629 c 2
 277 496 l 2x4b80
 277 334.973 274.147 173.983 269.37 13.0322 c 1
 381.014 44.8193 l 1
 371.548 194.789 365 345.777 365 496 c 2
 365 634 l 2
 365 641 365.197 639.51 365.338 640.713 c 0
 366.888 653.971 372.393 656.453 377.453 661.32 c 0
 380.618 664.364 385.686 666.854 393.515 668.177 c 0
 395.787 668.561 401.781 668.984 406 669 c 0
 465.841 669.224 575.158 665.941 608 665.17 c 1
 608 693.572 l 1x5d80
 511.951 689.532 415.286 683 318 683 c 0
 225.237 683 133.238 689.423 42 691.719 c 1
 42 657.572 l 1xad80
EndSplineSet
EndChar

StartChar: u1D54C
Encoding: 120140 120140 14
Width: 858
Flags: W
HStem: -28 40<237.756 476.949 616.537 682.949> 33 40<357.346 494.333> 43.1816 39.8184<739.082 769.811> 681.562 39.4355<76.0439 250.784>
VStem: 105 40<122.949 519.865> 112 40<263.541 629.498> 232 40<167.814 501.602> 564 40<93.0362 656.795> 690 40<90.8866 691.582>
DStem2: 570.757 690.001 597.84 656.795 0.950032 0.312153<10.5713 131.727> 769.811 43.1816 834.397 19.7422 0.962906 0.269838<-155.536 0>
LayerCount: 2
Back
SplineSet
577 671 m 1x78
 717 717 l 1
 732 709 l 1
 724 672 718 630 716 589 c 0x78
 710 452 710 315 710 180 c 0
 710 143 710 90 727 75 c 0
 737 66 757 63 779 63 c 0
 798 63 819 65 836 67 c 1
 837 49 l 1
 829 39 l 1
 672 -5 l 2
 659 -9 645 -10 632 -10 c 0xb4
 621 -10 610 -8 602 0 c 0
 591 12 587 23 583 39 c 1
 572 44 l 1
 502 16 428 -8 353 -8 c 0
 295 -8 235 0 193 38 c 0
 167 62 153 93 143 125 c 0
 129 169 125 215 125 260 c 0
 125 334 132 436 132 524 c 0
 132 561 132 584 128 622 c 0
 126 632 122 642 112 647 c 1
 91 660 54 666 28 670 c 1
 28 696 l 1
 33 701 l 1
 262 704 l 1
 272 693 l 1
 256 560 252 431 252 297 c 0
 252 257 255 215 267 177 c 0
 277 147 292 119 316 97 c 0
 351 65 401 53 450 53 c 0
 497 53 544 70 584 88 c 1x74
 584 283 584 560 577 671 c 1x78
EndSplineSet
Fore
SplineSet
76.0439 681.562 m 1xdb80
 92.2031 677.718 109.023 672.316 121.735 664.447 c 1
 140.037 655.296 145.391 636.808 147.751 625.008 c 1
 151.843 586.138 152 560.881 152 524 c 0xd780
 152 435.04 145 332.869 145 260 c 0
 145 216.171 149.059 172.235 162.074 131.015 c 0
 171.71 100.499 184.151 73.1221 206.492 52.7637 c 0
 246.728 16.0986 307.977 12 353 12 c 0
 400.314 12 448.089 22.2607 495.255 37.3438 c 1
 480.491 34.6045 465.356 33 450 33 c 0
 401.658 33 344.42 43.8779 302.495 82.248 c 0
 275.247 107.187 258.387 138.646 247.978 170.826 c 0
 234.704 211.86 232 256.001 232 297 c 0
 232 427.534 235.78 553.795 250.784 683.852 c 1
 76.0439 681.562 l 1xdb80
710.757 736.001 m 1
 726.412 734.647 l 1
 741.412 726.647 l 1
 751.548 704.773 l 1
 743.771 668.809 737.763 627.804 735.979 588.075 c 0
 729.852 451.664 729.977 314.999 730 180 c 0
 730.008 136.41 731.47 105.136 739.006 91.7734 c 0
 739.566 90.7801 739.073 90.8867 739.073 90.8867 c 2
 739.267 90.75 739.641 90.4688 740.306 89.9316 c 0
 742.591 88.086 742.653 88.3867 743.261 88.0996 c 2
 743.261 88.0996 744.446 87.5713 745.039 87.3418 c 0
 751.241 84.9463 762.091 83 779 83 c 0
 789.933 83 806.488 83.666 833.663 86.8633 c 1
 855.969 68.1094 l 1
 856.969 50.1094 l 1
 852.617 36.5059 l 1
 844.617 26.5059 l 1
 834.397 19.7422 l 1
 677.64 -24.1865 l 2
 668.926 -26.8672 654.969 -30.2594 632 -30 c 0
 624.292 -29.913 620.24 -29.7148 612.806 -27.8809 c 0
 604.777 -25.8994 595.088 -21.7676 587.558 -13.8281 c 0
 576.904 -2.59473 571.521 7.7002 567.364 20.6611 c 1
 499.969 -5.65625 427.831 -28 353 -28 c 0
 295.853 -28 227.666 -20.6716 179.508 23.2363 c 0
 149.549 50.551 134.482 85.5606 123.926 118.985 c 0
 109.133 165.825 105 213.829 105 260 c 0xbb80
 105 335.131 112 436.96 112 524 c 0
 112 561.119 112.706 581.925 108.249 618.992 c 0
 107.399 626.061 104.178 628.395 102.265 629.553 c 0
 87.2066 638.662 57.9531 645.156 24.959 650.232 c 1
 8 670 l 1
 8 696 l 1
 13.8574 710.143 l 1
 18.8574 715.143 l 1
 32.7383 720.998 l 1
 261.738 723.998 l 1
 276.799 717.453 l 1
 286.799 706.453 l 1
 291.856 690.611 l 1
 275.993 558.748 272 430.609 272 297 c 0
 272 257.999 274.763 217.969 286.022 183.174 c 0
 295.081 155.179 308.719 130.775 329.505 111.752 c 0
 363.466 80.6719 413.308 73 450 73 c 0
 493.078 73 537.438 89.6416 564 101.04 c 1
 563.994 295.002 563.79 562.712 557.04 669.741 c 1
 570.757 690.001 l 1
 710.757 736.001 l 1
597.84 656.795 m 1
 604.054 535.999 604 274.765 604 88 c 1
 592.207 69.7617 l 1
 575.124 62.3262 l 1
 580.276 62.207 l 1
 591.276 57.207 l 1
 602.402 43.8506 l 1
 605.595 31.0801 607.702 23.2093 616.442 13.8281 c 0
 618.45 11.6729 621.062 11.2813 622.388 10.9541 c 0
 626.101 10.0381 629.055 10.04 632 10 c 0
 638.823 9.90724 653.431 10.208 666.36 14.1865 c 2
 769.811 43.1816 l 1
 750.812 43.9521 738.34 47.0508 730.629 50.0283 c 2
 730.629 50.0283 727.876 51.1299 726.194 51.9229 c 0
 718.123 55.7305 714.851 59.0918 713.694 60.0684 c 0
 709.462 63.6427 706.575 67.8496 704.165 72.123 c 0
 694.25 89.7041 690.015 115.268 690 180 c 0
 689.969 315.001 689.852 452.35 696.021 589.925 c 0
 697.591 624.911 702.214 660.382 708.388 693.118 c 1
 597.84 656.795 l 1
EndSplineSet
EndChar

StartChar: u1D54D
Encoding: 120141 120141 15
Width: 745
Flags: W
HStem: 683.106 39.8936<61.6465 220.47>
DStem2: 174.008 526.221 135.992 513.779 0.312932 -0.949776<-139.066 535.752> 257.314 715.192 222.977 688.891 0.301609 -0.953432<9.86396 492.964> 341.662 17.377 342.909 -24.1074 0.955352 0.29547<0 90.4673> 425.886 207.063 453.951 173.184 0.43908 0.898448<0 544.319> 685.436 716.835 700.905 678.502 0.991743 0.128243<10.4261 84.4337>
LayerCount: 2
Back
SplineSet
688 697 m 1
 804 712 l 1
 807 698 l 1
 725 590 664 510 588 360 c 0
 532 250 476 140 434 25 c 1
 337 -5 l 1
 326 1 l 1
 155 520 l 2
 142 560 123 616 108 638 c 0
 101 648 92 657 80 659 c 0
 62 663 28 669 27 669 c 1
 27 696 l 1
 35 703 l 1
 102 703 171 705 238 710 c 1
 263 617 291 518 320 433 c 0
 349 347 379 261 417 178 c 0
 417 177 421 171 424 171 c 0
 429 171 434 178 436 182 c 2
 559 437 l 2
 598 519 643 611 688 697 c 1
EndSplineSet
Fore
SplineSet
801.436 731.835 m 1
 823.556 716.19 l 1
 826.556 702.19 l 1
 822.929 685.906 l 1
 740.835 577.783 681.291 499.573 605.832 350.943 c 0
 549.953 240.88 494.229 131.615 452.786 18.1387 c 1
 439.909 5.89258 l 1
 342.909 -24.1074 l 1
 327.423 -22.5576 l 1
 316.423 -16.5576 l 1
 307.005 -5.25879 l 1
 135.992 513.779 l 2
 119.395 564.152 103.089 609.899 91.5449 626.632 c 0
 90.0223 628.839 86.8076 633.333 82.582 636.509 c 0
 80.2646 638.25 77.9453 638.986 76.1865 639.374 c 0
 35.4531 648.346 27.6953 649.458 26.6709 649.329 c 2
 7 669 l 1
 7 696 l 1
 13.8301 711.052 l 1
 21.8301 718.052 l 1
 35 723 l 1
 101.601 723 170.132 724.99 236.512 729.944 c 1
 257.314 715.192 l 1
 282.264 622.383 310.349 523.722 338.94 439.424 c 0
 365.599 360.826 392.717 282.568 425.886 207.063 c 1
 540.963 445.64 l 2
 580.485 527.576 625.104 619.937 670.279 706.272 c 1
 685.436 716.835 l 1
 801.436 731.835 l 1
700.905 678.502 m 1
 577.037 428.36 l 1
 453.951 173.184 l 2
 452.339 169.96 450.193 166.813 449.111 165.37 c 0
 439.548 152.621 437.046 156.454 424 151 c 1
 421 151 410.693 155.187 409.896 155.765 c 0
 398.485 164.043 399.645 173.592 397 178 c 1
 398.815 169.675 l 1
 360.297 253.809 330.252 340.496 301.06 426.576 c 0
 273.61 507.517 246.925 600.389 222.977 688.891 c 1
 169.511 685.3 115.097 683.537 61.6465 683.106 c 1
 83.8135 678.626 l 2
 91.0641 677.16 98.6825 674.445 106.613 668.485 c 0
 114.809 662.326 120.008 655.764 124.455 649.368 c 0
 143.252 622.335 164.632 554.677 174.008 526.221 c 2
 341.662 17.377 l 1
 418.654 41.1885 l 1
 460.784 154.299 515.784 261.936 570.168 369.057 c 0
 641.628 509.813 700.46 590.524 774.302 687.993 c 1
 700.905 678.502 l 1
26.6709 649.329 m 2
 26.2393 649.274 27 649 27 649 c 1
 26.6709 649.329 l 2
EndSplineSet
EndChar

StartChar: u1D54E
Encoding: 120142 120142 16
Width: 1125
Flags: W
HStem: 681 40<51.0068 206.335>
VStem: 228 0.415039<-6.0336 -2>
DStem2: 134.411 558.812 95.5889 549.188 0.232717 -0.972544<-95.8651 564.119> 265.691 10.1807 268.096 -31.0488 0.952424 0.304776<0 94.7194> 346.694 36.1016 380.722 12.9658 0.372051 0.928212<0 509.408> 577.005 697.597 596.113 660.67 0.979842 0.199774<2.49596 90.1546> 614.661 525.586 581.48 490.799 0.217181 -0.976131<26.7506 531.423> 730.418 6.55469 732.324 -34.9736 0.948683 0.316228<0 99.3557> 1055.36 702.824 1073.14 664.842 0.991228 0.132164<5.09147 88.8898>
LayerCount: 2
Back
SplineSet
1178 699 m 1
 1178 684 l 1
 1044 471 935 246 831 19 c 1
 726 -16 l 1
 712 -4 l 1
 595 522 l 2
 594 529 592 536 587 536 c 0
 580 536 577 530 574 523 c 0
 498 354 427 193 362 20 c 1
 262 -12 l 1
 248 -2 l 2
 248 -1 159 368 115 554 c 0
 108 581 101 606 91 633 c 0
 87 644 78 653 66 656 c 0
 49 661 16 670 14 670 c 1
 14 692 l 1
 22 701 l 1
 220 701 l 1
 252 524 295 348 343 174 c 0
 344 170 347 168 350 168 c 0
 354 168 357 174 359 177 c 0
 443 343 520 503 581 678 c 1
 684 699 l 1
 691 694 l 1
 716 516 768 334 812 151 c 0
 813 146 817 136 821 136 c 0
 825 136 828 139 832 147 c 0
 912 316 1002 508 1058 683 c 1
 1178 699 l 1
EndSplineSet
Fore
SplineSet
265.691 10.1807 m 1
 346.694 36.1016 l 1
 411.013 206.332 481.15 364.832 555.688 531.041 c 0
 560.207 541.117 568.17 556 587 556 c 0
 592.56 556 610.332 555.89 614.661 525.586 c 1
 730.076 6.84766 l 1
 730.418 6.55469 l 1
 816.438 35.2275 l 1
 916.279 252.856 1021.14 469.061 1148.75 674.924 c 1
 1073.14 664.842 l 1
 1016.37 491.349 928.336 303.443 849.982 138.249 c 0
 846.95 131.856 839.254 116 821 116 c 0
 806.979 116 799.968 127.903 797.631 132.398 c 0
 794.781 137.879 794.314 139.123 792.472 146.701 c 0
 749.365 324.051 699.309 501.303 673.333 676.414 c 1
 596.113 660.67 l 1
 535.252 488.494 459.242 330.802 376.846 167.97 c 1
 375.641 165.906 l 2
 375.315 165.418 373.803 162.902 372.45 160.989 c 0
 364.286 149.443 361.488 154.51 350 148 c 1
 334.158 148 325.812 161.077 323.658 168.915 c 0
 277.218 337.97 235.13 508.754 203.323 681 c 1
 51.0068 681 l 1
 57.7539 679.061 64.6816 677.05 71.2471 675.295 c 0
 90.1582 670.24 103.662 656.509 109.775 639.891 c 0
 120.059 611.938 127.354 586.029 134.411 558.812 c 2
 265.691 10.1807 l 1
1198 684 m 1
 1194.93 673.35 l 1
 1061.71 461.589 953.064 237.411 849.183 10.6699 c 1
 837.324 0.0263672 l 1
 732.324 -34.9736 l 1
 712.984 -31.1855 l 1
 698.984 -19.1855 l 1
 692.478 -8.34277 l 1
 581.48 490.799 l 1
 509.722 330.596 442.377 177.064 380.722 12.9658 c 1
 368.096 0.951172 l 1
 268.096 -31.0488 l 1
 250.375 -28.2744 l 1
 236.375 -18.2744 l 1
 228 -2 l 1
 226.735 4.22168 228.415 -6.04102 228.415 -6.04102 c 1
 226.126 4.32617 139.413 366.171 95.5889 549.188 c 0
 89.1455 576.096 81.8542 600.03 72.2246 626.109 c 0
 70.3427 631.206 65.8457 635.229 60.7529 636.705 c 0
 17.8936 649.122 14.2156 650.001 13.988 650.015 c 2
 -6 670 l 1
 -6 692 l 1
 -0.948242 705.287 l 1
 7.05176 714.287 l 1
 22 721 l 1
 220 721 l 1
 239.681 704.559 l 1
 269.599 539.074 309.27 374.065 353.662 210.775 c 1
 432.737 367.673 504.611 519.615 562.114 684.583 c 1
 577.005 697.597 l 1
 680.005 718.597 l 1
 695.625 715.274 l 1
 702.625 710.274 l 1
 710.806 696.781 l 1
 734.426 528.606 782.735 355.156 825.528 180.027 c 1
 902.594 342.764 986.177 524.175 1038.95 689.096 c 1
 1055.36 702.824 l 1
 1175.36 718.824 l 1
 1198 699 l 1
 1198 684 l 1
13.988 650.015 m 0
 13.9533 650.015 13.9998 649.999 14 650 c 0
 13.9956 650.004 13.9911 650.009 13.988 650.015 c 0
EndSplineSet
EndChar

StartChar: u1D54F
Encoding: 120143 120143 17
Width: 737
Flags: W
HStem: 679.641 39.3506<58.7441 237.403>
DStem2: 55.2158 24.3525 32.7422 -20.6465 0.982339 0.187112<0 76.3912> 144.542 634.222 111.458 611.778 0.546059 -0.837747<-38.586 322.064 418.177 526.98 678.604 742.478> 255.807 714.105 225.995 684.633 0.504357 -0.863495<10.4139 278.31 373.002 571.818> 283.044 340.06 322.93 324.692 0.635451 0.772141<-286.784 0 173.118 454.17> 312.852 295.059 334.727 259.019 0.655611 0.755099<-201.724 -12.8723 151.249 489.009> 545.458 9.2666 541.19 -32.5557 0.977802 0.209529<-7.257 127.021> 589.196 703.803 602.566 665.297 0.990124 0.140195<7.83976 79.9829>
LayerCount: 2
Back
SplineSet
400 448 m 1xc0
 592 684 l 1
 705 700 l 1
 705 673 l 1xa0
 646 633 569 558 514 496 c 0
 480 458 458 430 423 387 c 1
 461 323 501 260 546 199 c 0
 576 158 615 109 654 74 c 0
 671 58 688 46 705 41 c 1
 705 23 l 1
 537 -13 l 1
 490 50 406 182 344 282 c 1
 328 282 l 1
 278 224 186 100 134 19 c 1
 29 -1 l 1
 29 25 l 1
 308 338 l 1
 128 623 l 2
 120 634 107 641 94 647 c 0
 75 656 51 661 29 666 c 1
 29 690 l 1
 37 699 l 1
 238 705 l 1
 283 617 335 531 386 448 c 1
 400 448 l 1xc0
EndSplineSet
Fore
SplineSet
576.485 696.622 m 1
 589.196 703.803 l 1
 702.196 719.803 l 1
 725 700 l 1
 725 673 l 1
 716.223 656.445 l 1
 659.926 618.278 583.128 543.599 528.934 482.696 c 0
 498.361 448.339 477.484 422.391 447.335 385.237 c 1
 482.988 325.724 520.569 267.408 562.117 210.842 c 0
 609.585 146.216 643.827 110.143 667.533 88.7246 c 0
 671.409 85.2227 691.764 65.7402 710.644 60.1875 c 1
 725 41 l 1
 725 23 l 1
 709.19 3.44434 l 1
 541.19 -32.5557 l 1
 520.97 -24.959 l 1
 474.956 36.7197 395.969 160.515 334.727 259.019 c 1
 284.269 198.736 199.256 83.6279 150.83 8.19531 c 1
 137.742 -0.646484 l 1
 32.7422 -20.6465 l 1
 9 -1 l 1
 9 25 l 1
 14.0518 38.3076 l 1
 283.044 340.06 l 1
 111.458 611.778 l 2
 107.97 616.574 102.472 620.964 85.5283 628.883 c 0
 69.7118 636.275 52.8555 640.068 24.5674 646.497 c 1
 9 666 l 1
 9 690 l 1
 14.0518 703.287 l 1
 22.0518 712.287 l 1
 36.4033 718.991 l 1
 237.403 724.991 l 1
 255.807 714.105 l 1
 297.825 631.936 346.211 551.16 394.309 472.696 c 1
 576.485 696.622 l 1
415.515 435.378 m 1
 400 428 l 1
 386 428 l 1
 368.96 437.529 l 1
 320.066 517.102 270.051 599.734 225.995 684.633 c 1
 58.7441 679.641 l 1
 73.0605 676.041 89.4051 671.234 102.472 665.117 c 0
 116.105 658.735 132.976 650.126 144.542 634.222 c 1
 324.91 348.68 l 1
 322.93 324.692 l 1
 55.2158 24.3525 l 1
 121.849 37.0449 l 1
 175.215 119.107 263.221 237.486 312.852 295.059 c 1
 328 302 l 1
 344 302 l 1
 360.998 292.539 l 1
 430.659 180.182 502.38 68.7139 545.458 9.2666 c 1
 669.659 35.8809 l 1
 659.581 42.4863 650.042 50.5313 640.467 59.2754 c 0
 615.657 81.9316 579.795 119.21 529.883 187.158 c 0
 484.464 248.989 444.006 312.446 405.803 376.789 c 1
 407.488 399.625 l 1
 442.353 442.458 464.733 470.73 499.066 509.304 c 0
 549.226 565.657 616.22 632.105 673.997 675.411 c 1
 602.566 665.297 l 1
 415.515 435.378 l 1
EndSplineSet
EndChar

StartChar: u1D550
Encoding: 120144 120144 18
Width: 583
Flags: W
HStem: 684 40<49.7324 206.195>
VStem: 261.916 40.084<17.2383 292.655 295.196 296.999> 379 40.0059<117.989 316.266> 387.242 40.7334<42.9463 235.831>
DStem2: 106.959 663.041 83.2617 630.816 0.794107 -0.607778<-54.2407 55.9595> 158.683 585.342 123.317 566.658 0.45137 -0.892337<-90.1932 307.771> 237.493 711.615 206.195 684 0.445844 -0.895111<10.7647 324.699> 296.245 17.2383 299.405 -23.2559 0.962788 0.270256<0 98.5448> 381.982 420.836 409.818 390.176 0.541197 0.840896<0 324.107> 383.082 335.109 419.006 316.266 0.605465 0.795872<0 434.501> 575.712 709.728 591.024 671.729 0.986394 0.164399<8.85716 64.7494>
LayerCount: 2
Back
SplineSet
682 695 m 1xa0
 399 323 l 1xa0
 399 224 403 129 408 28 c 1
 294 -4 l 1
 276 5 l 1xc0
 278 107 282 296 282 297 c 0
 282 298 186 488 141 576 c 0
 129 598 117 618 104 638 c 0
 98 647 85 654 74 657 c 2
 28 669 l 1
 28 695 l 1
 36 704 l 1
 219 704 l 1
 226 687 319 503 369 402 c 0
 371 398 377 396 381 396 c 0
 386 396 389 397 393 401 c 1
 579 690 l 1
 681 707 l 1
 682 695 l 1xa0
EndSplineSet
Fore
SplineSet
261.968 295.196 m 1xc0
 261.968 296.378 262.002 296.994 262 297 c 0
 260.931 299.63 261.308 297.771 261.968 295.196 c 1xc0
49.7324 684 m 1
 79.1553 676.324 l 2
 88.5293 673.768 98.2158 669.471 106.959 663.041 c 2
 106.959 663.041 109.25 661.315 110.648 660.129 c 0
 117.401 654.401 119.879 650.248 120.705 648.997 c 0
 134.102 628.696 146.915 608.042 158.683 585.342 c 0
 203.385 499.108 294.906 316.923 300.041 305.676 c 0
 300.145 305.447 300.865 301.193 302 297 c 0
 302.55 294.97 298.315 121.638 296.245 17.2383 c 1
 387.242 42.9463 l 1xd0
 382.607 138.161 379 228.702 379 323 c 1xe0
 383.082 335.109 l 1
 646.156 680.917 l 1
 591.024 671.729 l 1
 409.818 390.176 l 1
 407.143 386.857 l 1
 407.143 386.857 402.661 382.895 401.739 382.238 c 0
 395.055 377.48 393.719 377.898 381 376 c 1
 369.045 376 356.214 382.851 351.094 393.091 c 2
 206.195 684 l 1
 49.7324 684 l 1
419.006 316.266 m 1xe0
 419.182 220.221 423.094 127.599 427.976 28.9893 c 1xd0
 413.405 8.74414 l 1
 299.405 -23.2559 l 1
 285.056 -21.8887 l 1
 267.056 -12.8887 l 1
 256.004 5.3916 l 1
 261.916 292.655 l 1
 123.317 566.658 l 2
 112.021 588.456 100.358 607.606 87.2949 627.003 c 0
 85.2217 630.081 85.3418 629.141 84.7744 629.625 c 2
 84.7744 629.625 84.0965 630.203 83.2617 630.816 c 0
 78.1747 634.555 71.8984 636.843 68.8447 637.676 c 2
 22.9512 649.647 l 1
 8 669 l 1
 8 695 l 1
 13.0518 708.287 l 1
 21.0518 717.287 l 1
 36 724 l 1
 219 724 l 1
 237.493 711.615 l 1
 243.014 698.208 342.825 499.663 381.982 420.836 c 1
 562.182 700.824 l 1
 575.712 709.728 l 1
 677.712 726.728 l 1
 700.931 708.661 l 1
 701.931 696.661 l 1
 697.918 682.891 l 1
 419.006 316.266 l 1xe0
EndSplineSet
EndChar

StartChar: uni2102
Encoding: 8450 8450 19
Width: 789
Flags: W
HStem: -38 40<310.335 578.634> 23 40<399.375 610.204> 646 40<371.814 539.853> 691 40<353.03 620.146>
VStem: 66 40<204.676 463.934> 213 40<235.009 493.99>
DStem2: 655.398 524.642 670.5 484.244 0.737805 0.675013<0 96.9618>
LayerCount: 2
Back
SplineSet
751 585 m 1
 657 499 l 1
 641 502 l 1
 629 548 610 593 573 627 c 0
 542 655 498 666 455 666 c 0
 408 666 363 651 330 621 c 0
 255 553 233 455 233 360 c 0
 233 265 260 168 335 100 c 0
 377 62 435 43 494 43 c 0
 575 43 652 72 722 106 c 1
 743 81 l 1
 659 22 559 -18 453 -18 c 0
 402 -18 351 -12 302 3 c 0
 262 15 224 33 194 61 c 0
 116 131 86 232 86 331 c 0
 86 430 112 532 191 603 c 0
 268 673 373 711 482 711 c 0
 525 711 569 707 611 695 c 0
 645 685 677 671 702 648 c 0
 722 630 737 607 751 585 c 1
EndSplineSet
Fore
SplineSet
670.5 484.244 m 1
 653.314 479.343 l 1
 637.314 482.343 l 1
 621.647 496.951 l 1
 610.111 541.173 592.568 582.103 559.531 612.216 c 0
 529.879 639.243 486.808 646 455 646 c 0
 412.181 646 372.163 632.252 343.443 606.192 c 0
 274.613 543.737 253 452.664 253 360 c 0
 253 268.529 278.895 177.819 348.426 114.823 c 0
 386.009 80.7727 439.219 63 494 63 c 0
 570.144 63 644.375 90.5312 713.262 123.99 c 1
 737.314 118.864 l 1
 758.314 93.8643 l 1
 754.495 64.6338 l 1
 667.925 3.82812 564.116 -38 453 -38 c 0
 400.439 -38 347.534 -31.7139 296.199 -16.1406 c 0
 254.35 -3.44434 213.995 15.8408 180.498 46.2471 c 0
 98.873 120.342 66 225.658 66 331 c 0
 66 433.196 93.043 541.425 177.589 617.837 c 0
 258.861 691.29 368.386 731 482 731 c 0
 526.233 731 572.185 727.055 616.568 714.209 c 0
 652.141 703.913 686.995 688.727 715.46 662.792 c 0
 737.948 642.302 753.79 617.867 767.873 595.737 c 1
 764.5 570.244 l 1
 670.5 484.244 l 1
725.021 588.339 m 1
 713.912 605.109 702.08 620.855 688.54 633.208 c 0
 666.796 653.045 637.944 666.379 605.432 675.791 c 0
 565.898 687.236 523.767 691 482 691 c 0
 377.614 691 277.541 654.266 204.411 588.163 c 0
 131.358 522.13 106 426.804 106 331 c 0
 106 235.807 135.298 141.253 207.502 75.7529 c 0
 234.783 51.0049 269.726 33.6915 307.801 22.1406 c 0
 354.541 7.96104 403.561 2 453 2 c 0
 533.494 2 611.001 26.3008 680.405 65.1768 c 1
 622.665 41.082 560.139 23 494 23 c 0
 437.75 23 371.84 39.6389 321.574 85.1768 c 0
 241.054 158.123 213 261.471 213 360 c 0
 213 457.739 235.593 562.339 316.557 635.808 c 0
 353.893 669.687 403.819 686 455 686 c 0
 498.028 686 548.883 676.027 586.469 641.784 c 0
 622.664 608.808 642.618 566.71 655.398 524.642 c 1
 725.021 588.339 l 1
EndSplineSet
EndChar

StartChar: uni210D
Encoding: 8461 8461 20
Width: 856
Flags: W
HStem: -26.9834 40.3027<629.407 780.048> -18.9834 38.4512<647.315 780.048> 319 40<279.282 592.642> 368 40<281.937 592.554> 677.881 40.1182<77.1475 249.329>
VStem: 119 40<2.86321 6.37305 18.7412 627.382> 240 40<44.8691 316.336 408.379 617.298> 593 40<108.141 319 408.321 665.09> 717 40<64.465 558.065>
DStem2: 154.641 18.7412 146.535 -25.2188 0.960942 0.276751<0 98.3614> 608.503 700.488 633 665.09 0.974391 0.22486<15.9101 117.064>
LayerCount: 2
Back
SplineSet
613 681 m 1xf8
 743 711 l 1
 753 701 l 1xf8
 741 586 737 471 737 356 c 0
 737 269 737 105 738 93 c 0
 739 75 745 55 765 46 c 0
 782 39 804 33 824 32 c 1
 824 8 l 1
 818 1 l 1
 622 -7 l 1
 599 14 l 1
 609 113 613 212 613 312 c 0xf4
 613 319 612 328 607 331 c 1
 600 338 588 339 577 339 c 2
 289 339 l 2
 280 339 272 337 265 331 c 0
 261 327 260 317 260 311 c 0
 260 217 262 123 266 30 c 1
 141 -6 l 1
 139 -3 134 2 134 3 c 0
 139 122 139 240 139 359 c 2
 139 612 l 2
 139 629 121 641 104 647 c 0
 83 654 59 661 40 665 c 1
 40 688 l 1
 48 696 l 1
 262 698 l 1
 270 690 l 1
 265 595 259 496 259 413 c 0
 259 408 264 397 267 395 c 0
 275 388 277 388 290 388 c 2
 579 388 l 2
 592 388 601 388 606 392 c 0
 612 398 613 405 613 413 c 2
 613 681 l 1xf8
EndSplineSet
Fore
SplineSet
156.418 5.54199 m 2x3f80
 154.148 6.37305 l 1
 153.991 2.58008 l 1
 153.991 2.58008 155.221 5.0498 156.418 5.54199 c 2x3f80
738.503 730.488 m 1
 757.143 725.143 l 1
 767.143 715.143 l 1
 772.892 698.924 l 1
 760.987 584.837 757 470.537 757 356 c 0
 757 355.505 757.103 107.259 757.95 94.3848 c 0
 759.391 72.5117 768.076 66.4092 772.892 64.3662 c 0
 782.688 60.2101 803.848 53.0322 824.999 51.9746 c 1
 844 32 l 1
 844 8 l 1
 839.186 -5.01562 l 1
 833.186 -12.0156 l 1
 818.815 -18.9834 l 1x7f80
 622.815 -26.9834 l 1xbf80
 608.503 -21.7695 l 1
 585.515 -0.769531 l 1
 579.102 16.0098 l 1
 589.021 114.213 593 212.533 593 312 c 0
 593 314.126 593.119 314.926 592.691 316.966 c 0
 591.657 317.583 589.403 318.071 588.279 318.269 c 0
 586.066 318.656 582.644 319 577 319 c 2
 289 319 l 2
 282.7 319 280.563 318.037 278.579 316.336 c 1
 278.579 316.336 280 316.982 280 311 c 0
 280 217.284 281.994 123.567 285.981 30.8594 c 1
 271.535 10.7812 l 1
 146.535 -25.2188 l 1
 124.359 -17.0938 l 1
 119.375 -9.61719 113.55 -8.62793 114.009 3.41992 c 0
 118.522 121.883 119 239.999 119 359 c 2
 119 612 l 2
 118.685 614.223 117.57 616.722 111.969 620.76 c 0
 106.719 624.544 100.928 626.934 97.5098 628.083 c 0
 77.0934 634.944 53.6436 641.688 35.8799 645.429 c 1
 20 665 l 1
 20 688 l 1
 25.8574 702.143 l 1
 33.8574 710.143 l 1
 47.8135 715.999 l 1
 261.813 717.999 l 1
 276.143 712.143 l 1
 284.143 704.143 l 1
 290 688.949 l 1
 284.998 593.915 278.849 495.177 279 413.138 c 1
 279.04 413.21 279.244 413.001 280.125 411.056 c 2
 280.125 411.056 280.604 409.999 281.032 409.235 c 0
 281.288 409.039 281.576 408.558 281.866 408.37 c 0
 283.449 408.066 280.406 408 290 408 c 2
 579 408 l 1
 579 408 589.029 406.862 592.732 408.303 c 0
 593.682 408.672 593 410.797 593 413 c 2
 593 681 l 1
 608.503 700.488 l 1
 738.503 730.488 l 1
633 665.09 m 1
 633 413 l 2
 633 398.943 629.742 387.457 620.143 377.857 c 2
 618.494 376.383 l 2
 615.323 373.846 611.357 371.664 606.129 370.199 c 0
 600.983 368.758 597.957 368.131 579 368 c 2
 290 368 l 2
 277.389 368 275.763 368.617 274.236 368.91 c 0
 270.592 369.61 266.747 370.853 262.503 373.396 c 0
 260.825 374.402 258.105 376.518 254.019 379.802 c 0
 251.715 381.653 249.879 384.003 249.424 384.604 c 0
 246.53 388.423 247.339 387.542 246.153 389.653 c 0
 243.783 393.876 245.25 391.069 243.625 394.694 c 0
 239.061 404.876 239.037 409.226 239 413 c 0
 238.219 493.055 244.464 587.011 249.329 677.881 c 1
 77.1475 676.271 l 1
 88.4092 673.085 99.8466 669.536 110.49 665.917 c 0
 118.809 663.089 127.461 658.901 135.359 653.208 c 0
 156.422 638.024 157.153 625.021 159 612 c 1
 159 359 l 2
 159 245.366 159.014 132.766 154.641 18.7412 c 1
 245.361 44.8691 l 1
 241.787 133.023 240 222.012 240 311 c 0
 240 321.475 242.271 336.817 251.421 345.664 c 0
 254 348.157 266.79 359 289 359 c 2
 577 359 l 2
 586.098 359 591.612 358.295 595.187 357.668 c 0
 607.611 355.489 613.182 350.938 617.573 347.979 c 0
 627.077 341.573 630.371 331.478 631.277 327.851 c 0
 632.809 321.721 632.978 318.369 633 312 c 0
 633.331 214.832 629.244 118.459 619.891 22.0088 c 1
 629.407 13.3193 l 1xbf80
 780.048 19.4678 l 1
 771.861 21.8027 764.078 24.5656 757.089 27.6338 c 0
 723.21 42.5058 718.982 78.4121 718.05 91.6152 c 0
 716.942 107.294 717 294.445 717 356 c 0
 717 466.402 720.668 577.021 731.563 687.835 c 1
 633 665.09 l 1
EndSplineSet
EndChar

StartChar: uni2115
Encoding: 8469 8469 21
Width: 922
Flags: W
HStem: -15 40<702.91 747.605> 679 40<90.4561 259>
VStem: 116.029 40.9385<22.5371 206.371> 135 40<362.791 623.044> 671.013 40.5068<488.469 671.758> 686.675 41.3125<244.915 405.539> 743.712 40<25.9078 494.241>
DStem2: 155.658 640.943 127.714 612.323 0.664192 -0.747562<-21.4154 35.5738 153.566 823.936> 156.968 22.5371 157.226 -21.2305 0.911505 0.411289<0 58.4574> 224.677 496.843 183.017 525.432 0.0567846 -0.998386<0 448.717> 684.676 704.974 711.52 671.758 0.948683 0.316228<14.9625 75.3166>
LayerCount: 2
Back
SplineSet
203 526 m 2
 231 34 l 1
 149 -3 l 1
 136 5 l 1
 146 191 155 377 155 562 c 0
 155 585 155 600 150 614 c 0
 146 627 132 633 121 645 c 1
 96 658 74 663 52 669 c 1
 52 691 l 1
 60 699 l 1
 259 699 l 1
 396 529 544 366 696 206 c 1
 708 208 l 1
 691 686 l 1
 772 713 l 1
 792 699 l 1
 780 563 771 428 766 292 c 0
 763 196 762 100 769 5 c 1
 694 5 l 1
 219 533 l 2
 216 537 212 539 210 539 c 0
 206 539 203 535 203 526 c 2
EndSplineSet
Fore
SplineSet
250.968 35.1367 m 1xca
 239.226 15.7695 l 1
 157.226 -21.2305 l 1
 138.518 -20.0332 l 1
 125.518 -12.0332 l 1
 116.029 6.07324 l 1xea
 126.025 192.002 135 377.648 135 562 c 0
 135 589.662 134.511 598.299 131.024 607.695 c 0
 130.427 609.306 129.831 610.256 127.714 612.323 c 0
 124.063 615.887 116.086 621.57 108.929 628.704 c 1
 87.5469 639.365 68.4043 643.796 46.7373 649.705 c 1
 32 669 l 1
 32 691 l 1
 37.8574 705.143 l 1
 45.8574 713.143 l 1
 60 719 l 1
 259 719 l 1
 274.572 711.55 l 1
 403.923 551.041 543.267 396.616 686.675 244.915 c 1xd6
 671.013 685.289 l 1
 684.676 704.974 l 1
 765.676 731.974 l 1
 783.469 729.385 l 1
 803.469 715.385 l 1
 811.923 697.242 l 1
 799.948 561.524 790.794 426.932 785.988 291.32 c 0
 784.468 248.404 783.712 205.614 783.712 162.95 c 0
 783.712 110.468 785.131 58.251 788.946 6.46973 c 1
 769 -15 l 1
 694 -15 l 1
 679.131 -8.37598 l 1
 224.677 496.843 l 1
 250.968 35.1367 l 1xca
183.017 525.432 m 1
 183.017 545.231 193.8 559 210 559 c 0
 212 559 217.825 557.72 218.528 557.47 c 0
 225.952 554.83 225.282 553.978 234.435 545.688 c 1
 702.91 25 l 1
 747.605 25 l 1
 744.786 70.9062 743.712 116.926 743.712 162.95 c 0
 743.712 206.199 744.483 249.515 746.012 292.68 c 0
 750.705 425.238 759.548 556.848 771.068 689.239 c 1
 768.776 690.844 l 1
 711.52 671.758 l 1xea
 727.987 208.711 l 1
 711.288 188.272 l 1
 699.288 186.272 l 1
 681.5 192.225 l 1
 531.51 350.108 385.247 511.075 249.442 679 c 1
 90.4561 679 l 1
 102.954 675.063 116.102 670.089 130.227 662.744 c 1
 135.743 658.515 l 1
 141.089 652.683 148.066 648.355 155.658 640.943 c 0
 166.108 630.74 167.232 624.937 168.976 620.305 c 0
 175.917 601.857 175 584.73 175 562 c 0xd6
 175 382.541 166.566 202.423 156.968 22.5371 c 1
 210.252 46.5801 l 1
 183.017 525.432 l 1
EndSplineSet
EndChar

StartChar: uni2119
Encoding: 8473 8473 22
Width: 664
Flags: W
HStem: 285 76<285.404 341.484> 644 75<283.793 378.003> 679 40<102.744 264.68 379.383 525.882>
VStem: 111.021 40.5918<17.2295 210.537> 119 40<258.932 637.133> 245 40<45.0186 284.827 362.186 643.502> 455 40<437.936 596.202> 597 40<444.089 617.948>
DStem2: 151.613 17.2295 148.454 -25.2422 0.962094 0.272719<0 106.19>
LayerCount: 2
Back
SplineSet
270 30 m 1xe8
 143 -6 l 1
 131 4 l 1xe8
 138 156 139 307 139 459 c 0
 139 514 139 592 135 623 c 0
 133 632 127 642 119 648 c 0
 100 663 74 666 49 669 c 1
 49 691 l 1
 57 699 l 1
 402 699 l 2
 437 699 471 696 505 687 c 0
 530 681 554 671 573 654 c 0
 606 624 617 582 617 540 c 0
 617 480 599 418 551 375 c 0
 529 354 500 340 469 330 c 0
 431 317 390 310 350 307 c 0
 331 305 309 305 287 305 c 0
 281 305 275 303 271 299 c 0
 266 294 265 288 265 282 c 0xd8
 265 281 268 114 270 30 c 1xe8
265 361 m 0xd8
 265 356 268 351 272 347 c 0
 277 343 285 341 292 341 c 0
 337 341 386 355 419 384 c 1
 458 421 475 471 475 522 c 0
 475 561 465 601 434 629 c 0
 408 653 372 664 335 664 c 0
 316 664 293 664 274 661 c 0
 264 659 263 648 263 641 c 0
 263 640 264 454 265 361 c 0xd8
EndSplineSet
Fore
SplineSet
274.922 323.478 m 1xb7
 269.562 325.095 264.209 327.62 259.506 331.383 c 2
 257.857 332.857 l 2
 255.041 336.346 251.968 339.812 250.815 341.669 c 0
 247.724 346.65 245.077 353.16 245 360.893 c 0
 244.074 454.103 242.938 639.679 243 641 c 0
 243.322 647.756 243.3 648.271 243.649 650.621 c 0
 244.99 659.63 250.26 673.867 264.68 679.114 c 1
 102.744 679 l 1
 112.609 675.547 122.278 670.745 131.196 663.849 c 0
 144.111 653.86 152.017 638.432 154.68 626.449 c 1
 158.921 593.577 159 509.052 159 459 c 0xaf
 159 311.617 158.063 164.963 151.613 17.2295 c 1
 249.646 45.0186 l 1
 247.658 132.676 245 280.146 245 282 c 0
 245 287.879 245.711 292.491 246.991 296.698 c 0
 249.158 303.817 249.915 304.008 256.857 313.143 c 0
 258.186 314.89 264.308 320.69 274.922 323.478 c 1xb7
379.383 678.927 m 1
 404.378 672.895 427.972 661.57 447.485 643.77 c 0
 484.08 610.387 495 564.115 495 522 c 0
 495 466.685 476.029 410.546 432.483 369.233 c 1
 406.488 346.389 373.94 333.161 342.97 326.514 c 1
 344.753 326.639 346.5 326.773 348.205 326.917 c 0
 386.88 330.181 426.687 336.977 462.693 348.979 c 0
 491.918 358.72 518.216 372.129 537.423 389.682 c 0
 579.546 428.176 597 483.753 597 540 c 0
 597 577.319 587.63 613.815 559.605 639.148 c 0
 544.062 653.199 523.012 661.783 500.107 667.609 c 0
 468.167 675.733 435.872 679.109 402 679 c 2
 379.383 678.927 l 1
148.454 -25.2422 m 1
 130.196 -21.3643 l 1
 118.196 -11.3643 l 1
 111.021 4.91992 l 1xb7
 117.997 156.398 119 307.087 119 459 c 0
 119 491.288 119.853 587.751 115.32 619.551 c 0
 114.541 625.016 110.072 629.598 106.804 632.151 c 0
 93.9441 642.199 77.5303 645.433 46.6172 649.143 c 1
 29 669 l 1
 29 691 l 1
 34.8574 705.143 l 1
 42.8574 713.143 l 1
 57 719 l 1
 402 719 l 2
 438.128 719 473.659 715.599 509.893 706.391 c 0
 536.822 699.547 564.076 688.954 586.395 668.852 c 0
 602.435 654.403 637 617.279 637 540 c 0
 637 476.247 618.075 408.243 564.577 360.318 c 1
 539.398 336.284 507.885 321.881 475.307 311.021 c 0
 435.111 297.623 393.059 290.593 351.795 287.083 c 0
 331.189 285.33 309.021 285 287 285 c 0
 283.009 285 285.143 284.858 285.143 284.857 c 0
 285.002 284.221 285 283.079 285 282 c 0
 285 281.97 288.004 114.076 289.994 30.4756 c 1
 275.454 10.7578 l 1
 148.454 -25.2422 l 1
283 641 m 0
 282.971 640.328 283.809 456.097 284.801 362.764 c 1
 284.801 362.764 284.754 362.504 285.331 362.171 c 0
 286.867 361.284 290.098 361 292 361 c 0
 325.817 361 372.291 369.568 405.517 398.767 c 1
 439.972 431.454 455 475.315 455 522 c 0
 455 557.885 445.642 591.307 420.515 614.23 c 0
 399.022 633.838 368.157 644 335 644 c 0xc7
 318.101 644 298.834 643.956 283.051 642.077 c 0
 283.034 641.743 283 641.383 283 641 c 0
EndSplineSet
EndChar

StartChar: uni211A
Encoding: 8474 8474 23
Width: 918
Flags: W
HStem: -217 40<555.996 713.355> -173 40<656.484 714> 6 40<382.371 559.144> 648 40<377.281 549.103> 694 40<354.121 625.674>
VStem: 66 40<186.745 456.439> 208 40<215.499 489.523> 676 40<191.705 490.877> 815 40<233.8 504.24>
LayerCount: 2
Back
SplineSet
820 -141 m 1
 829 -170 l 1
 770 -188 707 -197 644 -197 c 0
 588 -197 535 -176 495 -140 c 0
 454 -102 414 -63 379 -20 c 1
 309 -17 239 5 189 50 c 0
 112 120 86 220 86 318 c 0
 86 427 115 538 201 616 c 0
 278 686 390 714 499 714 c 0
 585 714 673 691 735 635 c 0
 810 567 835 470 835 375 c 0
 835 320 828 264 809 211 c 0
 794 168 770 124 737 93 c 0
 686 45 622 15 551 -3 c 1
 545 -17 l 1
 566 -50 588 -81 618 -109 c 1
 645 -132 677 -153 714 -153 c 0
 752 -153 787 -147 820 -141 c 1
464 26 m 0
 520 26 575 42 615 78 c 0
 646 106 663 145 675 184 c 0
 691 237 696 292 696 348 c 0
 696 402 689 455 672 507 c 0
 658 548 636 587 603 617 c 0
 566 651 514 668 462 668 c 0
 409 668 360 649 322 615 c 0
 289 585 267 550 253 509 c 0
 235 458 228 405 228 352 c 0
 228 250 253 147 334 74 c 0
 367 43 417 26 464 26 c 0
EndSplineSet
Fore
SplineSet
320.459 59.2832 m 1
 233.698 137.476 208 247.061 208 352 c 0
 208 406.747 215.442 461.893 234.106 515.56 c 0
 249.294 559.229 273 597.759 308.605 629.852 c 0
 350.082 667.236 404.209 688 462 688 c 0
 512.424 688 571.667 672.758 616.493 631.763 c 0
 652.546 598.791 676.481 556.796 690.969 513.339 c 0
 709.031 459.158 716 403.719 716 348 c 0
 716 290.827 711.034 233.712 694.131 178.169 c 0
 681.829 137.746 663.692 94.9649 628.393 63.1465 c 0
 580.734 20.1885 517.722 6 464 6 c 0
 412.264 6 358.158 23.8682 320.459 59.2832 c 1
464 46 m 0
 546.572 46 589.426 81.8625 601.607 92.8535 c 0
 628.353 116.985 644.41 152.181 655.869 189.831 c 0
 671.205 240.216 676 293.173 676 348 c 0
 676 400.281 669.569 451.04 653.031 500.661 c 0
 640.118 539.406 619.28 575.018 589.507 602.237 c 0
 556.918 632.03 509.726 648 462 648 c 0
 413.791 648 369.666 631.044 335.395 600.148 c 0
 304.747 572.52 285.172 540.61 271.894 502.44 c 0
 255.023 453.944 248 403.253 248 352 c 0
 248 251.43 273.692 156.143 347.541 88.7168 c 0
 381.193 57.9922 428.869 46 464 46 c 0
644 -177 m 0
 667.412 -177 690.821 -175.562 714 -173 c 1
 669.054 -173 632.846 -147.905 604.692 -123.923 c 1
 572.851 -94.2041 549.46 -61.2607 528.127 -27.7373 c 1
 526.617 -9.12207 l 1
 532.617 4.87793 l 1
 546.085 16.3867 l 1
 614.783 33.8027 675.389 62.5024 723.3 107.57 c 0
 741.366 124.565 769.242 158.499 790.145 217.668 c 0
 807.922 267.992 815 321.683 815 375 c 0
 815 466.784 790.973 557.369 721.58 620.171 c 0
 657.91 677.793 569.253 694 499 694 c 0
 393.263 694 286.173 666.32 214.445 601.193 c 0
 134.105 528.246 106 423.742 106 318 c 0
 106 223.25 130.921 129.554 202.416 64.832 c 0
 254.406 17.7676 325.401 2.31543 379.856 -0.0185547 c 1
 394.512 -7.375 l 1
 428.538 -49.1787 467.476 -87.7402 508.487 -125.232 c 0
 544.584 -158.231 593.018 -177 644 -177 c 0
848.102 -164.072 m 1
 834.836 -189.13 l 1
 773.814 -207.747 708.903 -217 644 -217 c 0
 582.982 -217 524.886 -194.353 481.513 -154.768 c 0
 442.139 -118.832 403.704 -80.9482 369.149 -39.498 c 1
 251.768 -31.9326 189.74 22.3174 175.584 35.168 c 0
 92.8879 110.237 66 216.75 66 318 c 0
 66 430.258 95.9825 547.657 187.555 630.807 c 0
 276.358 711.442 400.658 734 499 734 c 0
 588.414 734 681.394 710.495 748.42 649.829 c 0
 829.146 576.763 855 473.216 855 375 c 0
 855 318.317 847.664 260.155 827.855 204.332 c 0
 815.816 170.402 792.23 117.484 750.7 78.4297 c 0
 700.036 30.7861 637.774 0.280273 569.894 -18.666 c 1
 588.034 -46.2334 606.779 -71.1846 631.308 -94.0771 c 1
 651.124 -110.958 680.788 -133 714 -133 c 0
 749.885 -133 783.556 -127.298 816.422 -121.322 c 1
 839.102 -135.072 l 1
 848.102 -164.072 l 1
EndSplineSet
EndChar

StartChar: uni211D
Encoding: 8477 8477 24
Width: 714
Flags: W
HStem: 642 79<294.801 345.609> 681 40<106.403 294.713 346.674 517.678>
VStem: 109.033 40.9385<17.5225 205.059> 122 40<263.039 632.028> 248.056 39.7803<200.154 277.985 386.763 641.838> 254.447 40.5381<54.8896 222.494> 450 40<456.121 602.052> 592 40<465.299 621.605>
DStem2: 149.972 17.5225 144.735 -26.832 0.941586 0.336772<0 110.957> 543.748 10.4004 554.992 -28.334 0.916696 0.399585<0 102.672>
LayerCount: 2
Back
SplineSet
264 325 m 1xcc
 275 41 l 1
 138 -8 l 1
 129 1 l 1xd4
 138 156 142 311 142 466 c 0
 142 519 142 602 139 624 c 0
 138 633 136 642 128 648 c 0
 106 665 76 668 48 670 c 1
 48 696 l 1
 53 701 l 1xac
 374 701 l 2
 414 701 455 698 495 689 c 0
 523 682 551 672 572 652 c 0
 601 626 612 589 612 552 c 0
 612 504 599 452 561 417 c 1
 519 380 469 365 414 351 c 1
 410 340 l 1
 496 239 608 106 661 57 c 1
 664 41 l 1
 547 -10 l 1
 526 -8 l 1
 277 323 l 2
 276 324 272 325 264 325 c 1xcc
264 366 m 1xcc
 310 366 392 381 422 412 c 0
 455 446 470 490 470 536 c 0
 470 570 460 605 433 629 c 0
 404 656 361 662 320 662 c 0
 307 662 293 662 280 658 c 0
 272 656 269 647 268 639 c 0
 267 635 264 458 264 366 c 1xcc
EndSplineSet
Fore
SplineSet
284.059 386.763 m 1x8b
 334.208 390.445 389.304 407.007 407.639 425.919 c 0
 436.643 455.836 450 494.262 450 536 c 0
 450 566.331 440.65 594.948 419.542 614.207 c 0
 392.485 638.892 349.03 642 320 642 c 0
 305.494 642 296.644 641.644 288.46 639.603 c 1
 287.836 636.514 l 2
 286.842 627.129 284.497 472.085 284.059 386.763 c 1x8b
248.376 642.666 m 0
 250.106 650.625 249.72 651.383 252.331 657.292 c 0
 256.797 667.396 264.244 674.288 274.634 677.259 c 0
 281.334 679.175 288.235 680.318 294.713 681 c 2
 106.403 681 l 1
 118.149 677.284 129.658 671.896 140.114 663.913 c 0
 154.978 652.564 157.591 636.152 158.847 626.455 c 0
 162.219 600.412 162 503.698 162 466 c 0x5b
 162 316.547 158.29 167.054 149.972 17.5225 c 1
 254.447 54.8896 l 1
 244 324.226 l 1
 264 345 l 1
 266.521 345 271.648 344.944 276.601 344.07 c 0
 278.726 343.695 289.221 337.846 291.143 337.143 c 2
 292.982 335.023 l 1
 536.679 11.0732 l 1
 543.748 10.4004 l 1
 637.867 51.4258 l 1
 578.698 109.324 464.913 244.66 394.772 327.034 c 1
 391.204 346.835 l 1
 395.204 357.835 l 1
 409.066 370.382 l 1
 463.755 384.303 509.697 398.455 547.615 431.859 c 1
 581.232 462.823 592 509.598 592 552 c 0
 592 603.065 568.822 627.637 558.428 637.312 c 0
 541.367 653.193 517.271 663.215 490.38 669.543 c 0
 452.396 678.481 413.003 681 374 681 c 2
 346.674 681 l 1x67
 403.998 676.498 431.043 657.721 446.458 643.793 c 0
 478.864 614.513 490 573.669 490 536 c 0
 490 485.738 473.312 436.209 436.361 398.081 c 0
 397.138 357.607 302.505 346 264 346 c 1
 244 366 l 1
 244.089 446.138 246.099 622.262 248.056 640.729 c 1
 248.056 640.729 247.479 638.539 248.376 642.666 c 0
294.985 41.7744 m 1x57
 281.735 22.168 l 1
 144.735 -26.832 l 1
 123.857 -22.1426 l 1
 114.857 -13.1426 l 1
 109.033 2.15918 l 1x67
 118.009 156.731 122 311.344 122 466 c 0
 122 533.761 121.49 603.549 119.153 621.545 c 0
 118.343 627.787 117.47 630.866 115.886 632.087 c 0
 100.169 644.198 80.8682 647.602 46.5752 650.051 c 1
 28 670 l 1
 28 696 l 1
 33.8574 710.143 l 1
 38.8574 715.143 l 1
 53 721 l 1
 374 721 l 2
 414.997 721 457.783 718.3 499.62 708.457 c 0
 528.918 701.564 560.45 690.613 585.572 666.688 c 1
 618.759 636.934 632 595.171 632 552 c 0
 632 500.676 618.23 442.524 574.385 402.141 c 1
 533.881 366.459 487.198 349.881 438.948 336.845 c 1
 522.722 238.387 626.461 116.17 674.577 71.6855 c 1
 680.657 60.6855 l 1
 683.657 44.6855 l 1
 671.992 22.666 l 1
 554.992 -28.334 l 1
 545.104 -29.9102 l 1
 524.104 -27.9102 l 1
 510.018 -20.0234 l 1
 285.836 277.985 l 1
 294.985 41.7744 l 1x57
EndSplineSet
EndChar

StartChar: uni2124
Encoding: 8484 8484 25
Width: 733
Flags: W
HStem: -30.9258 41.085<472.097 662.16> -20 40<51.3916 226.155> 44 40.0488<262.474 461.205> 59.4834 40.4854<481.144 679.234> 622.514 40.4805<261.023 447.576> 677.009 39.9912<447.389 634> 688.359 40.6084<133 322.512>
VStem: 93 40<650.899 688.359>
DStem2: 662.16 10.1592 694.899 -17.542 0.327111 0.944986<-5.14234 52.1959>
LayerCount: 2
Back
SplineSet
477 629 m 1
 467 643 l 1
 343 640 186 635 121 630 c 1
 113 638 l 1
 113 702 l 1
 122 709 l 1
 299 699 479 697 654 697 c 1
 654 670 l 1
 502 478 378 283 238 84 c 0
 237 83 236 81 236 80 c 0
 236 77 238 75 239 72 c 1
 243 67 249 64 256 64 c 0
 400 65 544 72 688 80 c 1
 703 67 l 1
 676 -11 l 1
 549 0 245 0 29 0 c 1
 29 24 l 1
 188 223 328 424 477 629 c 1
EndSplineSet
Fore
SplineSet
262.474 84.0488 m 1x2d
 403.742 85.2041 545.171 92.0957 686.891 99.9688 c 1
 701.099 95.1143 l 1
 716.099 82.1143 l 1
 721.899 60.458 l 1
 694.899 -17.542 l 1
 674.274 -30.9258 l 1x99
 549.348 -20.1055 244.764 -20 29 -20 c 1
 9 -0 l 1
 9 24 l 1
 13.375 36.4844 l 1
 167.145 228.938 303.355 423.64 447.576 622.514 c 1
 327.343 619.479 183.052 614.714 122.534 610.059 c 1
 106.857 615.857 l 1
 98.8574 623.857 l 1
 93 638 l 1
 93 702 l 1
 100.721 717.787 l 1
 109.721 724.787 l 1
 123.128 728.968 l 1x4b
 299.518 719.002 479.154 717 654 717 c 1
 674 697 l 1
 674 670 l 1
 669.681 657.586 l 1
 521.42 470.309 399.503 279.512 262.474 84.0488 c 1x2d
493.274 640.625 m 1
 493.178 617.241 l 1
 346.443 415.358 208.129 216.883 51.3916 20 c 1x4b
 257.218 19.9941 530.401 19.7441 662.16 10.1592 c 1
 679.234 59.4834 l 1x99
 538.423 51.707 397.323 44.8986 256.069 44 c 0x29
 243.022 43.917 231.5 49.3369 223.383 59.4834 c 1
 220.026 65.6758 l 2
 219.994 65.7725 216 64.5547 216 80 c 0
 216 81 222.857 97.1426 223.857 98.1426 c 0
 361.436 293.862 483.828 486.547 634 676.948 c 1
 634 677.009 l 1x1d
 469.129 677.159 299.931 679.275 133 688.359 c 1x0b
 133 650.899 l 1
 205.174 655.643 350.098 660.178 466.517 662.994 c 1
 483.274 654.625 l 1
 493.274 640.625 l 1
EndSplineSet
EndChar

StartChar: u1D552
Encoding: 120146 120146 26
Width: 664
Flags: W
HStem: -35 40<179.089 328.235 468.985 558.479> 43 40<267.448 381.079> 53 40<570.098 608.661> 440 78<325.866 393.191> 477.693 40.3071<233.905 325.132>
VStem: 78 40<87.2496 339.139> 191 40<127.113 359.283> 421 40<127.608 415.934> 524 40<96.2985 414.066>
LayerCount: 2
Back
SplineSet
546 493 m 1
 560 484 l 1
 551 393 544 302 544 211 c 0
 544 150 545 98 557 83 c 0
 561 77 569 73 577 73 c 0
 599 73 627 97 647 115 c 1
 666 94 l 1
 633 54 596 17 546 -4 c 0
 530 -10 515 -12 501 -12 c 0
 487 -12 474 -10 464 -1 c 0
 448 14 442 34 439 54 c 1
 426 59 l 1
 402 41 377 25 349 12 c 0
 315 -4 278 -15 240 -15 c 0
 214 -15 188 -8 169 7 c 0
 145 26 129 53 119 80 c 0
 105 116 98 154 98 191 c 0
 98 247 102 301 121 353 c 0
 135 393 158 432 194 458 c 0
 235 488 288 498 340 498 c 0
 394 498 442 482 486 455 c 1
 546 493 l 1
441 331 m 0
 441 369 437 411 407 440 c 0
 392 455 371 460 349 460 c 0
 324 460 301 451 282 436 c 1
 254 416 238 386 228 355 c 0
 214 315 211 273 211 230 c 0
 211 202 214 174 222 147 c 0
 228 127 236 107 251 91 c 0
 267 73 291 63 316 63 c 0
 339 63 365 69 386 82 c 0
 405 94 419 104 433 117 c 1
 439 161 441 263 441 331 c 0
EndSplineSet
Fore
SplineSet
452.816 114.298 m 1xaf80
 446.609 102.344 l 1
 431.448 88.2656 416.109 77.2246 396.604 65.042 c 0
 371.709 49.4951 342.433 43 316 43 c 0xc780
 285.725 43 256.707 55.0488 236.23 77.5166 c 0
 218.165 97.3389 209.122 120.174 202.834 141.285 c 0
 194.106 170.589 191 200.58 191 230 c 0
 191 273.889 194.342 317.889 209.044 361.373 c 0
 220.215 394.413 237.067 428.47 269.991 451.986 c 0
 286.016 464.637 304.681 473.685 325.132 477.693 c 1
 280.811 475.837 238.175 465.398 205.76 441.823 c 0
 174.35 418.979 153.236 383.638 139.831 346.265 c 0
 122.361 297.561 118 246.101 118 191 c 0
 118 156.521 124.834 120.853 137.697 87.0977 c 0
 147.044 62.5703 161.296 38.5996 181.403 22.6895 c 0
 185.742 19.2568 204.836 5 240 5 c 0
 274.101 5 308.327 15.0547 340.531 30.1182 c 0
 366.929 42.4658 390.776 57.582 414 75 c 1
 433.18 77.667 l 1
 446.18 72.667 l 1
 458.778 56.9668 l 1
 461.521 38.6816 466.406 24.1025 477.529 13.7285 c 0
 479.137 12.2295 480.629 11.5322 481.516 11.1035 c 0
 488.471 7.74121 498.976 7.90039 501 8 c 0
 516.191 7.94727 528.087 10.2598 538.616 14.583 c 0
 565.546 25.6398 588.449 42.1895 609.374 61.9395 c 1
 598.856 56.6191 587.783 53 577 53 c 0
 562.344 53 549.138 59.3892 540.871 71.2061 c 0
 537.99 75.3234 536.251 78.5948 535.299 80.7607 c 0
 525.336 103.422 524.038 145.225 524 211 c 0
 523.951 295.731 529.989 380.147 537.989 464.253 c 1
 496.701 438.104 l 1
 475.54 437.953 l 1
 449.506 453.928 422.481 465.617 393.615 472.112 c 1
 403.401 468.129 412.712 462.37 421 454.261 c 0
 457.601 418.446 461 369.958 461 331 c 0
 461 262.348 459.189 161.035 452.816 114.298 c 1xaf80
421 331 m 0
 421 364.557 417.583 401.799 392.979 425.739 c 0
 387.1 431.459 375.314 440 349 440 c 0xd780
 328.856 440 310.284 432.139 294.009 420.014 c 0
 271.268 403.071 256.646 377.302 246.956 348.627 c 0
 234.517 311.816 231 272.111 231 230 c 0
 231 203.42 233.816 177.388 241.166 152.715 c 0
 246.8 133.803 254.281 117.074 265.77 104.483 c 0
 277.745 91.3584 296.275 83 316 83 c 0
 335.567 83 358.398 88.3324 375.396 98.958 c 0
 391.433 108.983 402.935 117.167 414.06 126.858 c 1
 419.039 171.881 421 267.265 421 331 c 0
570.815 500.823 m 1
 579.903 482.031 l 1
 570.932 391.319 564.706 300.971 564 211 c 1
 564 211 563.269 116.559 571.919 96.8633 c 0
 572.388 95.7959 571.919 96.2988 571.919 96.2988 c 2
 571.919 96.2842 572.183 96.0078 573.129 94.7939 c 0
 573.524 94.2874 575.4 93 577 93 c 0xb780
 588.324 93 608.062 106.862 633.621 129.866 c 1
 661.831 128.418 l 1
 680.831 107.418 l 1
 681.428 81.2725 l 1
 647.679 40.3643 608.215 -0.177734 553.384 -22.583 c 0
 535.101 -30.0537 516.894 -32.1924 501 -32 c 0
 489.797 -31.8643 477.179 -31.2292 464.105 -24.9092 c 0
 459.398 -22.6337 454.586 -19.5566 450.471 -15.7285 c 0
 435.363 -1.6756 427.479 15.5479 423.052 32.1484 c 1
 402.675 17.8711 381.131 4.9541 357.469 -6.11816 c 0
 321.602 -22.9014 281.899 -35 240 -35 c 0
 214.818 -35 182.249 -28.9707 156.597 -8.68945 c 0
 128.686 13.3779 111.456 43.6182 100.303 72.9023 c 0
 85.6641 111.339 78 151.479 78 191 c 0
 78 247.899 82.2327 304.224 102.169 359.735 c 0
 115.736 397.514 139.51 443.099 182.24 474.177 c 0
 231.817 510.234 293.112 518 340 518 c 0
 393.537 518 441.933 503.153 485.624 478.436 c 1
 535.299 509.896 l 1
 556.815 509.823 l 1
 570.815 500.823 l 1
EndSplineSet
EndChar

StartChar: u1D553
Encoding: 120147 120147 27
Width: 673
Flags: W
HStem: -34 40<202.249 377.74> 18 40<288.843 393.397> 399 40<292.355 411.543> 473 40<342.491 499.842>
VStem: 105 40<68.985 612.855> 214.005 39.7676<95.9534 367.447 448.009 575.536> 220.754 40.2393<448.009 683.584> 450 40<128.714 351.51> 569 40<187.231 397.005>
DStem2: 35.0537 696.782 66.3027 660.995 0.98909 0.147311<25.6363 181.351>
LayerCount: 2
Back
SplineSet
241 693 m 1
 234 418 l 1
 245 415 l 1
 297 458 360 493 431 493 c 0
 470 493 507 478 534 452 c 0
 578 411 589 353 589 296 c 0
 589 213 560 130 493 72 c 0
 434 22 361 -14 280 -14 c 0
 237 -14 195 0 166 29 c 0
 145 51 125 106 125 161 c 2
 125 507 l 2
 125 546 124 572 123 602 c 0
 123 612 118 624 108 630 c 0
 100 635 53 644 29 646 c 1
 29 668 l 1
 38 677 l 1
 226 705 l 1
 241 693 l 1
234 367 m 1
 231 233 l 2
 231 200 237 110 258 82 c 1
 276 60 297 38 329 38 c 0
 368 38 405 54 428 84 c 0
 461 129 470 184 470 238 c 0
 470 288 466 340 435 383 c 0
 417 409 383 419 351 419 c 0
 332 419 314 413 298 406 c 0
 276 396 253 381 234 367 c 1
EndSplineSet
Fore
SplineSet
253.772 356.604 m 1xfd80
 250.997 232.776 l 2
 250.997 192.477 258.739 114.332 273.739 94.332 c 1
 291.491 72.6357 307.306 58 329 58 c 0
 362.638 58 393.642 71.3614 412 95.998 c 0
 444.791 140.003 450 194.851 450 238 c 0
 450 277.3 447.996 330.28 418.666 371.46 c 0
 406.084 389.125 379.305 399 351 399 c 0
 336.261 399 320.932 394.338 306.146 387.734 c 0
 288.942 380.05 270.317 368.287 253.772 356.604 c 1xfd80
254.771 448.009 m 1
 304.405 484.524 363.677 513 431 513 c 0
 475.132 513 516.646 495.876 547.754 466.52 c 0
 597.53 419.546 609 355.182 609 296 c 0
 609 206.209 577.168 117.809 506.01 56.8105 c 0
 444.815 4.35449 367.096 -34 280 -34 c 0
 232.782 -34 185.054 -18.9072 151.695 15.0244 c 0
 132.402 34.6494 105 90.6357 105 161 c 2
 105 507 l 2
 105 545.652 103.896 571.584 103.006 601.667 c 0
 102.893 605.494 100.674 611.072 97.5547 612.945 c 0
 97.5332 612.958 63.8262 623.028 27.3389 626.069 c 1
 9 646 l 1
 9 668 l 1
 14.8574 682.143 l 1
 23.8574 691.143 l 1
 35.0537 696.782 l 1
 223.054 724.782 l 1
 238.494 720.617 l 1
 253.494 708.617 l 1
 260.993 692.491 l 1xfb80
 254.771 448.009 l 1
220.754 683.584 m 1
 220.318 683.934 l 1
 66.3027 660.995 l 1
 87.2217 657.369 109.936 652.249 118.445 647.055 c 0
 133.61 637.798 142.619 620.389 142.994 602.333 c 0
 143.616 572.402 145 546.348 145 507 c 2
 145 161 l 2
 145 105.574 165.367 58.1816 180.305 42.9756 c 0
 204.44 18.4062 241.218 6 280 6 c 0
 360.027 6 429.08 43.5382 479.99 87.1895 c 0
 541.958 140.321 569 217.55 569 296 c 0
 569 349.248 558.638 401.258 520.246 437.48 c 0
 496.83 459.573 464.868 473 431 473 c 0
 380.8 473 333.807 453.452 291.72 425.092 c 1
 308.459 432.42 328.579 439 351 439 c 0
 391.178 439 429.603 425.154 451.334 394.54 c 0
 486.18 345.451 490 288.83 490 238 c 0
 490 181.946 481.145 121.714 444 72.002 c 0
 417.137 36.0498 373.362 18 329 18 c 0
 286.694 18 260.509 47.3643 242.261 69.668 c 1
 212.746 109.021 211.003 226.896 211.003 233.224 c 2
 214.005 367.447 l 1
 222.136 383.102 l 1
 240.02 395.766 l 1
 239.737 395.705 l 1
 228.737 398.705 l 1
 214.005 418.509 l 1xfd80
 220.754 683.584 l 1
EndSplineSet
EndChar

StartChar: u1D554
Encoding: 120148 120148 28
Width: 549
Flags: W
HStem: -30 40<188.733 375.276> 39 40<286.409 423.603> 476 40<292.471 451.729>
VStem: 70 40<94.4311 319.346> 188 40<146.513 364.311>
DStem2: 426.357 348.711 434.263 306.834 0.858315 0.513123<0 85.6738>
LayerCount: 2
Back
SplineSet
516 379 m 1
 424 324 l 1
 407 331 l 1
 407 375 395 409 373 434 c 0
 363 445 350 456 319 456 c 0
 311 456 289 452 274 438 c 0
 220 391 208 315 208 248 c 0
 208 192 219 133 264 91 c 0
 285 72 313 59 344 59 c 0
 371 59 397 66 422 76 c 1
 449 88 484 109 509 128 c 1
 521 125 l 1
 531 111 l 1
 463 43 375 -10 273 -10 c 0
 226 -10 179 4 147 35 c 0
 104 78 90 136 90 193 c 0
 90 283 114 375 185 439 c 0
 231 481 296 496 360 496 c 0
 404 496 451 489 482 459 c 0
 504 438 514 409 516 379 c 1
EndSplineSet
Fore
SplineSet
439.053 61.8789 m 1
 429.775 57.5771 l 1
 403.353 47.0078 374.499 39 344 39 c 0
 307.307 39 274.359 54.1954 250.468 76.2744 c 0
 199.209 123.646 188 189.77 188 248 c 0
 188 325.294 203.879 402.516 260.611 452.854 c 0
 267.951 459.366 276.274 464.134 284.333 467.587 c 1
 237.282 456.12 211.171 435.697 198.438 424.188 c 0
 133.224 365.236 110 279.74 110 193 c 0
 110 139.027 122.843 86.9443 161.029 49.2539 c 0
 187.803 22.8291 229.821 10 273 10 c 0
 333.553 10 389.44 30.168 439.053 61.8789 c 1
434.263 306.834 m 1
 416.385 305.507 l 1
 399.385 312.507 l 1
 387 331 l 1
 387 371.481 376.536 399.908 358.094 420.667 c 0
 350.469 429.25 342.521 436 319 436 c 0
 312.729 436 296.854 431.483 287.389 423.146 c 0
 241.052 382.333 228 315.04 228 248 c 0
 228 194.23 238.382 141.914 277.532 105.726 c 0
 295.236 89.3613 318.693 79 344 79 c 0
 367.501 79 390.804 84.6104 414.225 94.4229 c 0
 431.938 101.845 466.281 120.654 496.898 143.923 c 1
 513.851 147.403 l 1
 525.851 144.403 l 1
 537.274 136.625 l 1
 547.274 122.625 l 1
 545.143 96.8574 l 1
 474.883 26.5977 382.229 -30 273 -30 c 0
 227.213 -30 171.629 -17.371 132.971 20.7461 c 0
 84.5724 68.4669 70 132.973 70 193 c 0
 70 286.26 95.0411 384.471 171.562 453.812 c 0
 225.256 502.47 298.192 516 360 516 c 0
 441.545 516 477.491 491.052 495.859 473.42 c 0
 522.404 447.939 533.729 413.738 535.956 380.33 c 1
 526.263 361.834 l 1
 434.263 306.834 l 1
494.747 389.596 m 1
 491.423 411.306 482.814 430.445 468.141 444.58 c 0
 439.478 472.189 391.567 476 360 476 c 0
 350.897 476 342.242 475.689 334.015 475.113 c 1
 364.981 471.301 380.122 456.1 387.906 447.333 c 0
 410.418 421.981 423.417 388.407 426.357 348.711 c 1
 494.747 389.596 l 1
EndSplineSet
EndChar

StartChar: u1D555
Encoding: 120149 120149 29
Width: 673
Flags: W
HStem: -30 40<172.727 332.747 471.826 564.677> 43 40<268.056 388.984> 55 40<571.518 610.392> 475 40<246.987 343.327>
VStem: 64 40<92.3224 320.229> 187 40<129.72 356.458> 419 40<113 425.588 507.541 616.262> 524 40<97.2308 641.39>
DStem2: 354.814 697.88 379.899 660.397 0.99401 0.109289<20.8383 177.761>
LayerCount: 2
Back
SplineSet
357 678 m 1
 548 699 l 1
 557 693 l 1
 549 577 545 535 545 436 c 2
 544 143 l 2
 544 123 548 103 558 86 c 0
 562 80 572 75 580 75 c 0
 599 75 634 98 651 112 c 1
 668 90 l 1
 641 62 612 34 577 14 c 1
 553 -1 532 -11 503 -11 c 0
 488 -11 474 -6 463 3 c 0
 446 19 440 42 438 65 c 1
 406 43 372 23 335 9 c 0
 307 -2 277 -10 246 -10 c 0
 211 -10 175 -1 150 22 c 0
 100 67 84 131 84 193 c 0
 84 240 90 287 106 331 c 0
 119 367 138 402 168 429 c 0
 214 471 276 495 341 495 c 0
 371 495 403 493 432 483 c 1
 439 488 l 1
 439 581 l 2
 439 591 438 602 433 612 c 0
 428 622 421 631 409 635 c 0
 399 638 366 642 343 645 c 1
 343 669 l 1
 357 678 l 1
439 113 m 1
 439 362 l 2
 439 379 437 396 433 412 c 0
 430 424 424 435 414 442 c 0
 398 454 381 456 361 456 c 0
 326 456 292 441 267 419 c 0
 245 399 229 373 222 345 c 0
 213 309 207 273 207 236 c 0
 207 206 210 175 219 145 c 0
 225 123 238 102 255 86 c 0
 272 71 296 63 320 63 c 0
 368 63 406 87 439 113 c 1
EndSplineSet
Fore
SplineSet
320 43 m 0xdf
 291.617 43 262.619 52.0176 241.53 71.2197 c 0
 221.584 89.3818 207.218 113.639 199.774 139.495 c 0
 190.396 172.073 187 204.675 187 236 c 0
 187 275.176 193.346 312.847 202.597 349.851 c 0
 211.696 386.25 232.561 415.072 253.667 433.906 c 0
 277.795 455.437 309.495 471 343.759 474.994 c 1
 341 475 l 2
 280.922 475 223.728 452.586 181.433 414.183 c 0
 154.861 390.056 137.158 358.27 124.804 324.187 c 0
 109.866 282.978 104 238.313 104 193 c 0
 104 134.135 119.354 76.791 163.46 36.792 c 0
 186.801 15.625 220.894 10 246 10 c 0
 273.528 10 301.16 17.4113 327.805 27.6602 c 0
 350.359 36.3359 372.082 47.351 393.072 59.8689 c 1
 371.483 49.7753 347.296 43 320 43 c 0xdf
419 122.827 m 1
 419 362 l 2
 419 377.432 417.169 392.861 413.597 407.149 c 0
 412.075 413.236 408.611 421.165 402.266 425.808 c 0
 391.071 433.998 380.095 436 361 436 c 0
 331.779 436 301.898 423.337 280.333 404.094 c 0
 264.248 389.741 248.351 367.938 241.403 340.149 c 0
 232.654 305.153 227 270.824 227 236 c 0
 227 207.325 230.241 178.114 238.226 150.505 c 0
 243.421 132.541 253.896 114.056 268.47 100.78 c 0
 283.47 87.1172 304.365 83 320 83 c 0
 357.732 83 389.221 100.356 419 122.827 c 1
535.882 677.547 m 1
 379.899 660.397 l 1
 394.078 658.444 408.343 656.195 415.036 654.065 c 0
 426.579 650.392 435.447 643.038 441.26 636.011 c 0
 445.784 630.54 447.609 627.286 450.889 620.944 c 0
 458.266 606.678 459 592.256 459 581 c 2
 459 488 l 1
 450.625 471.726 l 1
 443.625 466.726 l 1
 425.48 464.093 l 1
 418.389 466.538 410.957 468.467 403.294 469.978 c 1
 410.872 467.32 418.4 463.539 425.734 458.192 c 0
 440.69 447.29 448.61 432.023 452.403 416.851 c 0
 456.831 399.139 459 380.568 459 362 c 2
 459 113 l 1
 451.377 97.29 l 1
 444.212 91.645 436.671 85.9647 428.715 80.5154 c 1
 457.925 66.7324 l 1
 459.269 51.2842 462.089 30.6855 476.186 18.0215 c 0
 483.265 11.6621 492.444 9 503 9 c 0
 527.143 9 543.528 16.6562 566.738 31.1621 c 0
 582.395 40.1084 597.118 51.0557 611.167 63.1182 c 1
 599.817 58.085 589.023 55 580 55 c 0xbf
 563.941 55 547.796 64.4268 541.061 75.3828 c 0
 528.332 96.0879 524 120.425 524 143.034 c 2
 525 436.034 l 2
 525.323 530.674 528.704 574.236 535.882 677.547 c 1
545.814 718.88 m 1
 559.094 715.641 l 1
 568.094 709.641 l 1
 576.953 691.624 l 1
 568.932 575.318 565.336 534.343 565 435.966 c 2
 564 142.966 l 2
 564 125.575 567.254 109.664 574.939 96.6172 c 0
 575.063 96.4082 577.521 95 580 95 c 0
 591.657 95 623.657 115.391 638.286 127.438 c 1
 666.826 124.229 l 1
 683.826 102.229 l 1
 682.396 76.1172 l 1
 655.064 47.7734 625.133 18.4785 587.262 -3.16211 c 1
 562.472 -18.6562 536.857 -31 503 -31 c 0
 483.556 -31 464.449 -23.9951 449.814 -12.0215 c 1
 436.45 0.556641 428.211 16.1729 423.683 31.6475 c 1
 398.236 15.709 371.247 1.54395 342.195 -9.66016 c 0
 312.694 -21.0371 280.472 -30 246 -30 c 0
 207.751 -30 167.008 -20.4276 136.54 7.20801 c 0
 80.9924 57.592 64 127.865 64 193 c 0
 64 241.687 70.2227 290.99 87.1963 337.813 c 0
 100.93 375.698 121.374 413.684 154.567 443.817 c 0
 204.508 489.154 271.078 515 341 515 c 0
 365.752 515 392.58 513.794 419 507.541 c 1
 419 581 l 2
 419 585.411 419 595.503 415.111 603.056 c 0
 413.67 605.854 412.662 607.826 410.437 610.517 c 0
 410.071 610.958 407.789 614.413 402.964 615.935 c 0
 397.347 617.706 369.239 621.408 340.413 625.168 c 1
 323 645 l 1
 323 669 l 1
 332.185 685.823 l 1
 346.185 694.823 l 1
 354.814 697.88 l 1
 545.814 718.88 l 1
EndSplineSet
EndChar

StartChar: u1D556
Encoding: 120150 120150 30
Width: 613
Flags: W
HStem: -36 40<202.603 392.233> 32 40<284.748 442> 268.348 28.1118<386.875 405.77> 475 40<352.01 475.393>
VStem: 67 40<97.7459 315.857> 415 40<342.152 411.031> 537.791 39.7891<329.803 417.735>
LayerCount: 2
Back
SplineSet
220 258 m 0
 289 280 406 316 407 316 c 0
 415 319 423 322 429 328 c 0
 434 333 435 339 435 344 c 0
 435 376 428 409 403 432 c 0
 387 446 366 455 344 455 c 0
 316 455 288 446 268 428 c 0
 220 385 207 318 207 262 c 0
 207 258 210 257 214 257 c 0
 216 257 218 258 220 258 c 0
522 101 m 1
 533 82 l 1
 495 55 453 28 409 9 c 0
 376 -5 341 -16 304 -16 c 0
 247 -16 189 -2 148 35 c 0
 100 79 87 143 87 204 c 0
 87 288 114 372 180 432 c 0
 229 477 298 495 367 495 c 0
 420 495 477 487 516 452 c 0
 545 425 558 387 558 349 c 0
 558 341 557 333 552 326 c 0
 547 318 538 315 529 312 c 0
 528 312 314 246 207 213 c 1
 207 167 222 121 257 88 c 1
 283 65 319 52 355 52 c 0
 380 52 404 58 428 65 c 0
 455 74 484 91 507 105 c 1
 522 101 l 1
EndSplineSet
Fore
SplineSet
448.444 51.1084 m 0
 443.639 49.1807 438.802 47.4307 433.962 45.9131 c 0
 409.645 38.29 383.242 32 355 32 c 0
 314.213 32 273.581 46.6357 243.514 73.2344 c 1
 203.695 110.777 187 162.812 187 213 c 1
 201.105 232.111 l 1
 220.01 237.973 l 2
 220.136 238.012 220.263 238.051 220.398 238.062 c 1
 220.266 238.041 220.133 238.021 220.01 237.973 c 0
 220 238 l 1
 218 238 216 237 214 237 c 0
 197.248 237 187 247.682 187 262 c 0
 187 370.538 230.859 421.529 254.638 442.881 c 0
 267.992 454.872 283.753 463.329 300.542 468.545 c 1
 259.722 460.22 222.362 443.594 193.491 417.235 c 0
 132.653 361.691 107 283.899 107 204 c 0
 107 145.476 119.552 88.0521 161.457 49.7959 c 0
 176.365 36.1857 218.439 4 304 4 c 0
 336.978 4 369.346 13.7746 401.13 27.3867 c 0
 417.11 34.2306 448.444 51.1084 448.444 51.1084 c 0
550.309 92.0205 m 1
 544.584 65.6963 l 1
 506.037 38.3076 462.995 10.382 416.87 -9.38672 c 0
 382.754 -24.0087 345.022 -36 304 -36 c 0
 243.904 -36 180.629 -21.7304 134.543 20.2041 c 0
 83.0918 67.0205 67 134.851 67 204 c 0
 67 293.714 96.5129 382.841 166.509 446.765 c 0
 223.772 499.06 301.329 515 367 515 c 0
 464.415 515 506.95 487.445 529.493 466.762 c 0
 563.522 435.54 578 391.426 578 349 c 1
 578 349 577.813 342.378 577.58 340.115 c 0
 576.761 332.169 575.025 323.258 568.617 314.888 c 0
 565.203 310.429 562.016 303.937 546.952 297.325 c 0
 542.42 295.336 537.675 293.81 535.324 293.026 c 2
 529 292 l 2
 528.874 292 529.155 291.013 227.629 197.998 c 1
 230.608 161.854 243.691 127.322 270.486 102.766 c 0
 292.074 82.9814 323.787 72 355 72 c 0
 376.758 72 398.64 76.7697 422.038 84.0869 c 0
 446.193 91.6408 473.905 108.269 496.602 122.084 c 1
 512.153 124.324 l 1
 527.153 120.324 l 1
 539.309 111.021 l 1
 550.309 92.0205 l 1
227.558 281.406 m 1
 265.708 293.567 371.282 327.095 399.978 334.727 c 0
 404.969 336.598 407.328 337.524 409.806 338.764 c 2
 409.806 338.764 410.759 339.243 411.504 339.674 c 0
 412.937 340.502 412.595 340.287 414.857 342.143 c 0
 414.943 342.335 414.992 342.537 415 344 c 0
 415.157 373.431 408.794 399.843 389.645 417.115 c 0
 377.099 428.43 360.476 435 344 435 c 0
 306.428 435 285.81 417.105 281.362 413.119 c 0
 244.312 379.911 230.365 329.428 227.558 281.406 c 1
318.525 268.348 m 1
 409.537 296.46 l 1
 407 296 l 2
 406.982 296 405.77 268.348 318.525 268.348 c 1
421.296 300.091 m 1
 489.617 321.189 513.475 328.503 522.676 330.974 c 0
 526.874 332.373 528.862 333.068 530.876 333.952 c 0
 533.722 335.201 534.756 336.316 535.383 337.112 c 0
 536.028 337.932 537.374 340.177 537.791 344.217 c 0
 538.024 346.479 537.949 342.154 538 349 c 0
 538.247 382.573 526.954 414.977 502.507 437.238 c 0
 465.167 471.24 406.754 475 367 475 c 0
 361.99 475 356.99 474.898 352.01 474.691 c 1
 376.501 472.803 399.192 462.38 416.355 446.885 c 0
 447.645 418.638 455.68 378.562 455 344 c 0
 454.828 335.25 454.389 333.041 451.737 326.669 c 0
 449.993 322.478 447.506 318.055 443.143 313.857 c 0
 442.084 312.84 439.039 309.387 431.52 305.041 c 2
 431.52 305.041 428.98 303.629 427.694 302.986 c 0
 425.544 301.911 423.34 300.938 421.296 300.091 c 1
EndSplineSet
EndChar

StartChar: u1D557
Encoding: 120151 120151 31
Width: 430
Flags: W
HStem: 380 40<48.2939 127.993 271.003 364.333> 425 40<49.8242 129.805 271.003 367.374> 666 40<250.41 398.264>
VStem: 127.993 39.9844<11.5449 380> 231 40.0029<190.391 380 465 603.04>
DStem2: 161.485 11.5449 162.976 -29.3711 0.968554 0.248803<0 90.0965>
LayerCount: 2
Back
SplineSet
251 392 m 1
 251 266 260 128 267 18 c 1
 158 -10 l 1
 141 -1 l 1
 145 102 148 261 148 391 c 1
 139 400 l 1
 28 400 l 1
 23 408 l 1
 33 437 l 1
 44 444 l 1
 140 444 l 1
 148 454 l 1
 150 496 155 542 170 575 c 0
 183 604 202 629 225 652 c 0
 259 686 318 686 338 686 c 0
 357 686 421 679 455 609 c 1
 385 558 l 1
 369 565 l 1
 369 613 335 644 314 644 c 0
 294 644 266 617 257 571 c 0
 251 543 251 517 251 454 c 1
 260 445 l 1
 386 445 l 1
 392 435 l 1
 383 409 l 1
 371 400 l 1
 260 400 l 1
 251 392 l 1
EndSplineSet
Fore
SplineSet
286.96 19.2705 m 1
 271.976 -1.37109 l 1
 162.976 -29.3711 l 1
 148.643 -27.6758 l 1
 131.643 -18.6758 l 1
 121.015 -0.223633 l 1
 124.888 99.5078 127.831 252.425 127.993 380 c 1
 28 380 l 1
 11.04 389.4 l 1
 6.04004 397.4 l 1
 4.09277 414.52 l 1
 14.0928 443.52 l 1
 22.2627 453.873 l 1
 33.2627 460.873 l 1
 44 464 l 1
 128.448 464 l 1
 129.687 487.713 133.944 543.771 151.771 583.229 c 0
 166.098 614.937 186.646 641.931 210.857 666.143 c 0
 253.13 708.415 323.447 706 338 706 c 0
 368.457 706 436.718 692.417 472.99 617.738 c 1
 466.777 592.835 l 1
 396.777 541.835 l 1
 376.983 539.677 l 1
 360.983 546.677 l 1
 349 565 l 1
 347.155 601.433 330.078 617.568 318.17 622.809 c 0
 315.851 623.829 314.225 624.019 314 624 c 0
 312.409 623.863 310.713 623.427 307.627 621.566 c 0
 297.656 615.556 282.587 596.368 276.592 566.984 c 0
 271.772 543.361 271.049 520.197 271.003 465 c 1
 386 465 l 1
 403.149 455.29 l 1
 409.149 445.29 l 1
 410.899 428.458 l 1
 401.899 402.458 l 1
 395 393 l 1
 383 384 l 1
 371 380 l 1
 271.003 380 l 1
 271.545 258.174 280.184 125.762 286.96 19.2705 c 1
231 392 m 1
 237.713 406.948 l 1
 246.713 414.948 l 1
 260 420 l 1
 364.333 420 l 1
 366.103 421.327 l 1
 367.374 425 l 1
 260 425 l 1
 245.857 430.857 l 1
 236.857 439.857 l 1
 231 454 l 1
 231 516.754 231.131 544.026 237.408 575.016 c 0
 248.01 627.354 276.333 649.417 286.96 655.823 c 0
 301.021 664.3 311.2 663.925 314 664 c 0
 321.272 664.195 327.978 662.194 334.282 659.42 c 0
 371.48 643.049 383.39 606.869 387.203 584.351 c 1
 428.863 614.703 l 1
 401.037 657.402 358.257 666 338 666 c 0
 309.248 666 264.543 663.258 239.143 637.857 c 0
 214.757 613.472 198.84 590.233 188.229 566.771 c 0
 169.791 526.004 167.978 453.578 167.978 453.049 c 2
 163.617 441.506 l 1
 155.617 431.506 l 1
 140 424 l 1
 49.8242 424 l 1
 49.6309 423.877 l 1
 48.2939 420 l 1
 139 420 l 1
 153.143 414.143 l 1
 162.143 405.143 l 1
 167.978 391 l 1
 167.978 266.164 165.246 114.927 161.485 11.5449 c 1
 245.988 33.252 l 1
 239.168 140.387 231 271.354 231 392 c 1
EndSplineSet
EndChar

StartChar: u1D558
Encoding: 120152 120152 32
Width: 658
Flags: W
HStem: -262 40<162.679 351.883> -212 40<241.547 353.209> -39 40<172.217 332.025> 38 40<267.797 385.753> 434 40<282.079 398.279> 475 40<241.197 431.15>
VStem: 71 40<73.4308 337.25> 187 40<129.065 369.895> 416 40<-93.4503 18.457 114 415.678> 523.861 41.1074<-51.4271 456.153>
DStem2: 70.0732 -158.908 112.319 -169.413 0.604804 0.796374<16.5697 89.1927> 322.676 16.6104 337.324 -20.6104 0.894032 0.448002<-73.3382 83.4965>
LayerCount: 2
Back
SplineSet
541 127 m 0
 541 51 538 5 526 -45 c 0
 516 -88 489 -134 460 -159 c 0
 400 -212 332 -242 246 -242 c 0
 189 -242 122 -213 86 -171 c 1
 146 -92 l 1
 167 -92 l 1
 180 -114 205 -147 222 -162 c 0
 242 -180 264 -192 291 -192 c 0
 330 -192 367 -174 387 -147 c 0
 430 -89 434 -54 436 55 c 1
 404 34 365 12 330 -2 c 0
 299 -14 268 -19 235 -19 c 0
 205 -19 173 -7 151 12 c 0
 93 64 91 144 91 214 c 0
 91 256 98 297 110 338 c 0
 120 372 136 405 164 430 c 0
 209 472 272 495 338 495 c 0
 391 495 430 483 470 456 c 1
 532 481 l 1
 545 477 l 1
 541 405 541 388 541 127 c 0
436 114 m 1
 436 373 l 2
 436 397 428 414 414 427 c 0
 394 446 372 454 348 454 c 0
 306 454 271 439 250 411 c 0
 218 370 207 338 207 269 c 0
 207 227 210 185 221 143 c 0
 226 124 234 104 249 88 c 0
 266 69 289 58 316 58 c 0
 360 58 410 80 436 114 c 1
EndSplineSet
Fore
SplineSet
316 38 m 0
 307.812 38 267.333 38.1243 234.252 74.4922 c 0
 216.221 94.3146 207.08 117.241 201.655 137.922 c 0
 190.032 182.233 187 226.062 187 269 c 0
 187 338.258 197.413 375.334 234.117 423.152 c 0
 260.713 457.802 302.4 474 348 474 c 0
 355.933 474 392.661 474.586 427.692 441.578 c 0
 447.35 423.057 456 400.462 456 373 c 2
 456 114 l 1
 451.887 101.851 l 1
 420.951 61.3965 363.15 38 316 38 c 0
416 121.167 m 1
 416 373 l 2
 416 396.606 405.864 407.175 400.308 412.422 c 0
 384.989 426.887 368.89 434 348 434 c 0
 315.2 434 284.704 423.329 265.883 398.848 c 0
 235.142 358.862 227 330.335 227 269 c 0
 227 227.938 229.938 187.759 240.345 148.078 c 0
 244.89 130.751 252.235 114.107 263.748 101.508 c 0
 277.813 86.1152 295.162 78 316 78 c 0
 353.601 78 393.791 96.1553 416 121.167 c 1
155.872 -112.069 m 1
 112.319 -169.413 l 1
 142.94 -197.423 194.938 -222 246 -222 c 0
 326.304 -222 389.839 -193.914 446.851 -143.932 c 0
 472.375 -121.555 497.313 -79.3701 506.536 -40.4014 c 0
 517.876 7.51562 521 51.3652 521 127 c 0
 521 359.597 523.861 398.932 523.861 456.153 c 1
 477.479 437.451 l 1
 458.811 439.423 l 1
 419.014 466.286 383.323 475 338 475 c 0
 276.604 475 218.614 452.999 177.483 415.23 c 0
 153.574 393.276 138.555 364.291 129.191 332.369 c 0
 117.586 292.805 111 253.767 111 214 c 0
 111 139.66 114.206 71.4445 164.212 27.0137 c 0
 180.094 12.9024 206.629 1 235 1 c 0
 270.112 1 298.279 6.98563 322.676 16.6104 c 0
 355.827 29.6889 393.919 51.3057 425.027 71.7207 c 1
 456 54.6328 l 1
 454.054 -51.4473 451.434 -93.6513 403.068 -158.908 c 0
 378.581 -191.947 336.101 -212 291 -212 c 0
 257.785 -212 230.712 -196.605 208.694 -176.932 c 0
 196.147 -165.72 174.143 -140.634 155.872 -112.069 c 1
545.464 -49.5986 m 0
 534.987 -93.8818 506.297 -145.028 473.149 -174.068 c 0
 408.65 -230.574 336.896 -262 246 -262 c 0
 184.556 -262 111.725 -231.743 70.8145 -184.016 c 1
 70.0732 -158.908 l 1
 130.073 -79.9033 l 1
 146 -72 l 1
 167 -72 l 1
 184.219 -81.8252 l 1
 192.568 -95.9561 217.146 -130.856 235.306 -147.068 c 0
 261.256 -170.234 279.876 -172 291 -172 c 0
 319.11 -172 352.537 -159.91 370.932 -135.092 c 0
 406.274 -87.4053 412.775 -58.2607 415.144 18.457 c 1
 390.035 3.65039 363.002 -10.5137 337.324 -20.6104 c 0
 308.835 -31.8125 275.888 -39 235 -39 c 0
 205.861 -39 166.795 -28.7266 137.788 -3.01367 c 0
 71.2617 55.959 71 149.084 71 214 c 0
 71 258.233 78.3652 301.21 90.8086 343.631 c 0
 101.396 379.724 119.116 415.961 150.517 444.77 c 0
 200.085 490.246 267.396 515 338 515 c 0
 384.948 515 428.097 505.755 472.149 478.432 c 1
 524.521 499.549 l 1
 537.882 500.115 l 1
 550.882 496.115 l 1
 564.969 475.891 l 1
 560.996 404.375 561 388.229 561 127 c 0
 561 50.6348 557.804 2.56055 545.464 -49.5986 c 0
EndSplineSet
EndChar

StartChar: u1D559
Encoding: 120153 120153 33
Width: 664
Flags: W
HStem: -28 40<140.573 159.999 467.888 565.291> 68 40<561.393 615.298> 408 40<318.412 399.054> 477 40<349.139 493.257>
VStem: 100.797 39.376<16.2158 597.198 598.303 615.989> 210 39.9971<168.575 380 455.457 630.193> 216.425 41.4258<39.333 231.494 493.847 674.873> 407 40<34.3664 390.103> 513 40<114.854 346.477 348.969 453.693> 521 40<191 448.344>
DStem2: 39.8613 695.886 65.5195 658.414 0.994269 0.106911<21.505 175.46> 216.425 39.333 243.83 5.86914 0.956563 0.291524<-79.2961 4.25065> 424.707 420.564 397.293 391.436 0.702137 -0.712042<-40.7646 38.7688>
LayerCount: 2
Back
SplineSet
230 380 m 1xe8
 230 262 230 90 238 25 c 1
 133 -7 l 1
 120 4 l 1
 125 110 125 218 125 325 c 0
 125 418 125 589 120 604 c 1
 116 620 103 633 86 636 c 0
 83 637 48 640 30 641 c 1
 30 668 l 1
 42 676 l 1
 228 696 l 1
 239 686 l 1
 230 433 l 1
 239 426 l 1
 272 445 312 465 348 478 c 0
 375 488 404 497 434 497 c 0
 463 497 492 488 511 468 c 0
 527 451 532 429 536 408 c 0
 540 388 541 368 541 348 c 0xe8
 541 316 533 252 533 188 c 0
 533 148 535 125 547 107 c 0
 553 98 566 88 579 88 c 0
 607 88 628 106 647 123 c 1
 662 112 l 1
 664 100 l 1
 640 72 616 45 586 22 c 0
 566 7 544 -8 518 -8 c 0
 494 -8 471 0 455 16 c 0
 433 38 427 93 427 155 c 0xf0
 427 215 432 265 432 310 c 0
 432 350 428 390 411 406 c 0
 394 422 371 428 347 428 c 0
 329 428 312 422 296 415 c 0
 274 406 249 394 230 380 c 1xe8
EndSplineSet
Fore
SplineSet
615.965 76.208 m 1xf940
 604.73 70.9941 592.736 68 579 68 c 0
 568.106 68 558.846 71.762 551.766 75.9404 c 0
 541.919 81.7514 537.007 86.4258 530.359 95.9062 c 0
 513.571 119.851 513 147.876 513 188 c 0xf980
 513 252 521 316 521 348 c 0
 521 367.341 519.903 386.046 516.371 404.168 c 0
 512.34 424.851 507.78 442.278 496.468 454.259 c 0
 490.435 460.647 471.5 477 434 477 c 0
 408.041 477 381.23 468.842 354.869 459.217 c 0
 342.992 454.88 330.497 449.705 317.899 444.021 c 1
 326.974 446.419 336.643 448 347 448 c 0
 374.144 448 402.764 441.217 424.707 420.564 c 1
 424.707 420.564 427.354 417.897 428.019 417.149 c 0
 445.647 397.279 451.758 362.352 452 310 c 0
 452.215 263.514 447 213.889 447 155 c 0
 447 89.4648 454.442 44.8428 469.143 30.1426 c 0
 480.642 18.6436 498.336 12 518 12 c 0
 540.4 12 564.309 30.6143 573.916 37.9365 c 0
 589.139 49.5382 602.824 62.418 615.965 76.208 c 1xf940
257.851 27.4434 m 1xfb
 243.83 5.86914 l 1
 138.83 -26.1309 l 1
 120.081 -22.2676 l 1
 107.081 -11.2676 l 1
 100.022 4.94238 l 1
 104.992 110.306 105 218.002 105 325 c 0
 105 399.854 105.062 568.286 100.999 597.198 c 1
 100.797 598.303 l 1
 100.797 598.303 105.542 578.5 100.797 598.46 c 0
 98.1963 606.993 91.335 614.75 82.5244 616.305 c 2
 79.6758 617.026 l 2
 79.6553 617.033 78.9238 618.252 28.8906 621.031 c 1
 10 641 l 1
 10 668 l 1
 18.9062 684.641 l 1
 30.9062 692.641 l 1
 39.8613 695.886 l 1
 225.861 715.886 l 1
 241.453 710.799 l 1
 252.453 700.799 l 1
 258.987 685.289 l 1
 250.812 455.457 l 1
 279.538 470.902 311.288 485.89 341.131 496.783 c 0
 368.862 506.906 399.959 517 434 517 c 0
 466.172 517 501.188 507.474 525.532 481.741 c 0
 545.205 460.946 551.302 434 555.629 411.832 c 0
 559.907 389.916 561 368.659 561 348 c 0xfb40
 561 316 553 252 553 188 c 0
 553 148.124 555.628 129.603 563.641 118.094 c 0
 566.221 114.388 568.237 112.666 572.095 110.39 c 0
 574.562 108.934 577.116 108 579 108 c 0
 600.865 108 619.649 125.366 633.664 137.905 c 1
 658.827 139.128 l 1
 673.827 128.128 l 1
 681.728 115.288 l 1
 683.728 103.288 l 1
 679.186 86.9844 l 1
 655.049 58.8252 630.117 30.4131 598.084 6.06348 c 0
 577.576 -9.52535 550 -28 518 -28 c 0
 489.664 -28 461.358 -18.6436 440.857 1.85742 c 0
 422.157 20.5576 407 56.5029 407 155 c 0
 407 216.111 412.185 266.487 412 310 c 0
 411.823 351.48 407.324 380.202 398.097 390.604 c 0
 397.433 391.352 397.702 391.051 397.293 391.436 c 0
 385.234 402.78 367.856 408 347 408 c 0
 329.807 408 311.905 399.956 303.795 396.583 c 0
 278.569 386.091 261.44 376.955 249.997 369.518 c 1xfd80
 249.954 290.213 249.667 93.9346 257.851 27.4434 c 1xfb
210 380 m 1xfd
 218.136 396.102 l 1
 223.389 399.973 230.048 404.419 238.64 409.386 c 1
 226.721 410.213 l 1
 217.721 417.213 l 1
 210 433.711 l 1xfd
 218.592 674.873 l 1
 65.5195 658.414 l 1
 78.0186 657.216 87.7861 655.954 90.9004 655.335 c 0
 115.973 650.35 133.355 632.919 139.188 609.588 c 2
 139.188 609.588 139.629 608.063 139.712 607.713 c 2
 139.712 607.713 140.082 605.996 140.173 605.5 c 2
 140.173 605.5 140.429 604.003 140.522 603.368 c 0
 144.513 576.288 144.999 436.348 145 325 c 0
 145 222.396 145.008 118.596 140.573 16.2158 c 1
 216.425 39.333 l 1xfb
 209.804 115.701 210 270.39 210 380 c 1xfd
EndSplineSet
EndChar

StartChar: u1D55A
Encoding: 120154 120154 34
Width: 367
Flags: W
HStem: -33 40<165.379 265.321> 400 40<85.426 105.598> 473 40<110.288 209.234> 535 40<145.745 220.255> 667 40<145.745 220.255>
VStem: 97 40<583.745 658.255> 110 39.9746<27.3681 396.881> 214 40<92.4166 458.922> 229 40<583.745 658.255>
LayerCount: 2
Back
SplineSet
117 621 m 0
 117 657 147 687 183 687 c 0
 219 687 249 657 249 621 c 0
 249 585 219 555 183 555 c 0
 147 555 117 585 117 621 c 0
348 119 m 1
 365 103 l 1
 365 92 l 1
 342 63 318 38 287 17 c 0
 264 1 238 -13 209 -13 c 0
 185 -13 162 -3 149 15 c 0
 135 33 132 56 131 78 c 0
 130 93 130 195 130 254 c 2
 130 371 l 1
 129 385 127 399 118 410 c 0
 113 416 104 420 95 420 c 0
 73 420 50 405 26 388 c 1
 10 410 l 1
 39 433 69 455 103 472 c 0
 125 483 149 493 175 493 c 0
 195 493 215 486 225 470 c 0
 233 457 237 445 237 386 c 0
 237 346 234 305 234 265 c 0
 234 223 234 150 235 140 c 0
 236 124 237 108 245 94 c 0
 251 82 263 72 277 72 c 0
 289 72 300 79 308 85 c 0
 322 95 335 106 348 119 c 1
EndSplineSet
Fore
SplineSet
85.3174 439.3 m 1xfb
 88.5361 439.754 91.7686 440 95 440 c 0
 118.019 440 131.063 425.608 133.422 422.734 c 0
 147.01 406.172 148.929 386.358 149.975 371.713 c 1
 149.975 254 l 2
 149.975 178.046 150.318 91.7295 150.968 79.1191 c 0
 152.581 47.8389 159.12 34.8918 165 26.9941 c 0
 173.574 15.4778 190.388 7 209 7 c 0
 231.326 7 253.741 18.4476 275.681 33.4883 c 0
 289.574 43.0129 302.048 53.3398 313.743 64.6465 c 1
 306.833 60.0967 301.825 57.71 298.173 56.2598 c 2
 298.173 56.2598 295.024 55.0752 293.4 54.5713 c 0
 287.125 52.625 286.89 53.1084 277 52 c 1
 259.069 52 242.833 61.6123 232.174 76.625 c 0
 230.859 78.4766 231.99 76.6074 227.373 84.5664 c 0
 216.591 103.154 216.36 121.988 215.069 138.381 c 0
 214.081 150.937 214 239.602 214 265 c 0
 214 305.99 217 346.989 217 386 c 0
 217 436.846 215.099 448.011 208.004 459.459 c 0
 201.884 469.334 188.216 473 175 473 c 0
 154.243 473 133.152 464.715 111.944 454.111 c 0
 102.837 449.558 93.9824 444.594 85.3174 439.3 c 1xfb
378.707 117.564 m 1
 385 103 l 1
 385 92 l 1
 380.67 79.5723 l 1
 356.962 49.6797 331.367 23.1465 298.319 0.511719 c 0
 275.143 -15.3623 244.769 -33 209 -33 c 0
 179.612 -33 150.594 -21.3555 133 3.00586 c 1
 115.237 25.8428 112.282 54.0273 111.032 76.8809 c 0
 110.067 94.5225 110 218.534 110 254 c 2
 110 370.287 l 2
 109.598 375.918 109.236 389.145 102.578 397.266 c 0
 101.588 398.474 98.5996 400 95 400 c 0
 82.3525 400 65.96 391.796 37.5605 371.68 c 1
 9.8252 376.236 l 1
 -6.1748 398.236 l 1
 -2.42773 425.67 l 1
 26.96 448.978 58.0793 471.9 94.0557 489.889 c 0
 116.848 501.285 143.757 513 175 513 c 0
 199.175 513 226.808 504.985 241.996 480.541 c 0
 251.317 465.539 257 451.521 257 386 c 0
 257 345.011 254 304.01 254 265 c 0
 254 211.589 254.483 147.876 254.931 141.619 c 0
 256.343 121.866 257.63 112.178 262.627 103.434 c 2
 262.627 103.434 264.096 100.76 264.789 99.7822 c 0
 269.448 93.2197 274.204 91.8499 277 92 c 0
 279.588 92.1389 279.802 92.2344 281.551 92.7764 c 2
 281.551 92.7764 282.684 93.1476 283.411 93.4365 c 0
 286.104 94.5062 290.265 96.8418 296.188 101.138 c 0
 309.238 110.604 321.581 120.866 333.857 133.143 c 1
 361.707 133.564 l 1
 378.707 117.564 l 1
137 621 m 0xfc80
 137 596.271 158.271 575 183 575 c 0
 207.729 575 229 596.271 229 621 c 0
 229 645.729 207.729 667 183 667 c 0
 158.271 667 137 645.729 137 621 c 0xfc80
183 707 m 0
 230.271 707 269 668.271 269 621 c 0
 269 573.729 230.271 535 183 535 c 0
 135.729 535 97 573.729 97 621 c 0
 97 668.271 135.729 707 183 707 c 0
EndSplineSet
EndChar

StartChar: u1D55B
Encoding: 120155 120155 35
Width: 363
Flags: W
HStem: 400 40<97.323 116.193> 473 40<121.049 217.131> 535 40<155.745 230.255> 667 40<155.745 230.255>
VStem: 107 40<583.745 658.255> 125.396 40<-65.4212 397.749> 231 40<-27.371 464.946> 239 40<583.745 658.255>
LayerCount: 2
Back
SplineSet
127 621 m 0xe0
 127 657 157 687 193 687 c 0
 229 687 259 657 259 621 c 0
 259 585 229 555 193 555 c 0
 157 555 127 585 127 621 c 0xe0
38 389 m 1
 22 411 l 1
 52 434 80 454 114 472 c 0
 135 482 157 493 181 493 c 0
 197 493 215 491 227 480 c 0
 243 465 246 441 248 421 c 0
 251 396 251 311 251 256 c 0
 251 191 251 81 246 27 c 0
 242 -10 228 -46 205 -77 c 0
 157 -140 76 -203 9 -246 c 1
 -18 -227 l 1
 27 -193 66 -154 100 -117 c 0
 123 -93 140 -31 142 0 c 0
 147 58 145 161 145 231 c 0xd0
 145 275 145 344 142 364 c 1
 141 380 139 394 130 409 c 1
 127 416 114 420 107 420 c 0
 85 420 58 405 38 389 c 1
EndSplineSet
Fore
SplineSet
60.0518 -186.352 m 1xf4
 101.625 -155.401 153.468 -111.991 189.015 -64.9814 c 0
 210.169 -37.0058 222.8 -4.45508 226.101 28.9971 c 0
 231.228 80.9629 231 191.209 231 256 c 0
 231 326.692 230.494 397.134 228.121 418.813 c 0
 225.489 442.854 222.18 457.174 213.403 465.333 c 0
 208.194 470.176 198.571 473 181 473 c 0
 163.28 473 149.582 466.802 122.979 454.134 c 0
 113.896 449.325 105.296 444.389 96.9688 439.272 c 1
 100.325 439.744 103.678 440 107 440 c 0xfa
 117.497 440 130.185 435.844 138.395 429.467 c 0
 140.145 428.107 143.418 423.248 147.767 418.084 c 1
 159.005 399.354 160.827 382.797 161.87 366.107 c 1
 165.505 341.873 165 262.174 165 231 c 0
 165 200.051 165.396 162.395 165.396 124.959 c 0
 165.396 78.1113 164.511 32.0342 161.942 -1.50293 c 0
 159.9 -28.1641 144.663 -98.6402 114.583 -130.686 c 0
 97.5554 -148.826 79.5098 -167.703 60.0518 -186.352 c 1xf4
5.8252 399.236 m 1
 9.83105 426.872 l 1
 40.1318 450.103 69.3135 471.662 105.021 489.866 c 0
 125.417 500.264 150.72 513 181 513 c 0
 216.709 513 232.373 502.332 240.597 494.667 c 0
 263.918 472.93 266.368 436.485 267.879 423.187 c 0
 271.102 394.819 271 294.831 271 256 c 0
 271 190.791 271.446 80.9727 265.899 25.0029 c 0
 261.874 -15.6143 246.325 -55.3632 220.985 -89.0186 c 0
 189.701 -130.569 124.776 -195.461 19.8027 -262.832 c 1
 -2.50977 -262.356 l 1
 -29.5098 -243.356 l 1
 -30.0566 -211.043 l 1
 13.5098 -178.126 51.5986 -139.637 85.417 -103.314 c 0
 100.771 -86.8232 119.427 -34.375 122.058 1.50293 c 0
 123.857 26.0508 125.396 63.3213 125.396 124.959 c 0xf6
 125.396 162.125 125 199.728 125 231 c 0
 125 287.233 123.936 346.054 122.13 361.893 c 0
 120.894 372.732 120.184 386.22 113.083 398.317 c 1
 111.421 399.096 108.168 400 107 400 c 0
 95.6992 400 74.5449 392.624 50.4941 373.383 c 1
 21.8252 377.236 l 1
 5.8252 399.236 l 1
147 621 m 0xf9
 147 596.271 168.271 575 193 575 c 0
 217.729 575 239 596.271 239 621 c 0
 239 645.729 217.729 667 193 667 c 0
 168.271 667 147 645.729 147 621 c 0xf9
193 707 m 0
 240.271 707 279 668.271 279 621 c 0
 279 573.729 240.271 535 193 535 c 0
 145.729 535 107 573.729 107 621 c 0
 107 668.271 145.729 707 193 707 c 0
EndSplineSet
EndChar

StartChar: u1D55C
Encoding: 120156 120156 36
Width: 611
Flags: W
HStem: -22 40<440.034 522.015> 69 40<492.205 564.877>
VStem: 113 40<16.4092 617.346> 218.005 40.7305<39.502 219.666 325.775 495.661> 228.555 40.4385<488.884 676.876>
DStem2: 57.6855 662.425 28.1895 625.082 0.992018 -0.126093<0 58.5592> 38.3145 700.929 57.6855 662.425 0.996442 0.0842762<16.0572 187.536>
LayerCount: 2
Back
SplineSet
238 253 m 1
 243 25 l 1
 146 -6 l 1
 130 3 l 1
 133 93 133 243 133 363 c 2
 133 540 l 2
 133 562 132 584 127 605 c 0
 124 619 110 633 95 638 c 0
 91 639 52 643 30 645 c 1
 30 674 l 1
 40 681 l 1
 241 698 l 1
 249 693 l 1
 248 654 241 418 238 294 c 1
 252 294 l 1
 340 366 416 451 511 515 c 1
 570 478 l 1
 569 466 l 1
 483 420 398 370 322 312 c 1
 374 237 449 141 493 99 c 0
 501 92 512 89 520 89 c 0
 526 89 542 92 548 95 c 0
 564 102 573 109 591 125 c 1
 613 101 l 1
 566 47 522 10 514 6 c 0
 504 0 487 -2 480 -2 c 0
 464 -2 450 1 440 10 c 0
 370 68 317 180 252 262 c 1
 238 253 l 1
EndSplineSet
Fore
SplineSet
307.907 315.472 m 1xe0
 264.665 278.521 l 1
 257.787 276.065 l 1
 267.673 274.424 l 1
 335.457 188.912 385.879 81.0518 453.07 25.1328 c 0
 456.818 22.0137 464.027 18 480 18 c 0
 484.742 18 498.408 19.9346 504.383 23.5195 c 1
 504.23 23.4434 504.427 23.5439 504.669 23.6836 c 2
 504.669 23.6836 504.721 23.7441 504.767 23.7441 c 0
 504.771 23.7441 504.783 23.7441 504.801 23.7441 c 0
 504.911 23.8164 505.256 24.0615 505.256 24.0615 c 2
 514.852 30.4951 539.824 52.2305 570.25 84.0098 c 1
 565.974 81.5264 561.481 79.2188 556.48 76.8945 c 0
 546.528 72.2695 527.389 69 520 69 c 0
 507.939 69 491.2 73.2727 479.51 84.2402 c 0
 432.78 128.08 358.257 224.606 305.564 300.604 c 1
 307.907 315.472 l 1xe0
365.956 368.319 m 1
 421.697 406.354 480.619 440.826 540.101 473.144 c 1
 511.504 491.076 l 1
 459.878 454.869 413.226 411.924 365.956 368.319 c 1
262.995 25.4385 m 1
 249.089 5.94922 l 1
 152.089 -25.0508 l 1
 136.194 -23.4316 l 1
 120.194 -14.4316 l 1
 110.011 3.66602 l 1
 112.989 93.0176 113 243.046 113 363 c 2
 113 540 l 2
 113 561.402 112.062 582.116 107.494 600.589 c 0
 106.934 602.853 106.752 603.106 106.013 604.49 c 0
 103.044 610.049 97.4795 616.409 89.4121 618.812 c 0
 83.5586 620.555 40.5967 623.954 28.1895 625.082 c 1
 10 645 l 1
 10 674 l 1
 18.5303 690.385 l 1
 28.5303 697.385 l 1
 38.3145 700.929 l 1
 239.314 717.929 l 1
 251.6 714.96 l 1
 259.6 709.96 l 1
 268.993 692.487 l 1xe8
 268.071 656.539 262.09 454.474 258.799 325.775 c 1
 337.41 393.007 409.498 470.734 499.825 531.587 c 1
 521.626 531.943 l 1
 580.626 494.943 l 1
 589.931 476.339 l 1
 588.931 464.339 l 1
 578.433 448.364 l 1
 498.725 405.729 420.254 359.829 349.48 307.631 c 1
 400.078 236.263 467.586 150.59 506.49 113.76 c 0
 510.588 109.881 516.791 109 520 109 c 0
 521.933 109 536.094 111.565 539.52 113.105 c 0
 553.219 119.267 559.719 123.953 577.713 139.948 c 1
 605.743 138.515 l 1
 627.743 114.515 l 1
 628.086 87.8691 l 1
 574.4 26.9482 535.051 -4.11914 527.531 -9.16113 c 1
 527.893 -8.91843 526.668 -9.73535 526.137 -10.0693 c 1
 526.208 -10.0244 526.196 -10.0322 526.137 -10.0693 c 1
 524.659 -10.9639 l 2
 524.415 -11.1045 524.205 -11.1691 523.617 -11.5195 c 0
 508.65 -20.4404 488.858 -22 480 -22 c 0
 461.835 -22 442.909 -18.5703 426.93 -5.13281 c 0
 361.988 49.4805 314.335 141.693 258.735 219.666 c 1xf0
 262.995 25.4385 l 1
218.005 252.562 m 1xf0
 227.185 269.823 l 1
 236.335 275.706 l 1
 218.005 294.483 l 1xf0
 220.715 406.508 226.687 609.813 228.555 676.876 c 1xe8
 57.6855 662.425 l 1
 75.7646 660.631 96.5888 658.466 100.588 657.188 c 0
 123.711 649.804 136.727 631.889 141.297 623.332 c 0
 144.114 618.057 144.221 618.162 146.506 609.411 c 0
 152.606 586.05 153 562.598 153 540 c 2
 153 363 l 2
 153 248.975 153.01 107.95 150.421 16.4092 c 1
 222.677 39.502 l 1
 218.005 252.562 l 1xf0
EndSplineSet
EndChar

StartChar: u1D55D
Encoding: 120157 120157 37
Width: 368
Flags: W
HStem: -27 40<156.226 262.765> 58 40<254.434 305.775>
VStem: 100.172 40<29.2153 608.688> 208.423 40<106.941 601.234> 216.843 40.1543<287.406 676.254>
DStem2: 38.1602 699.915 85.7344 664.141 0.995759 0.0919995<44.0812 175.748>
LayerCount: 2
Back
SplineSet
237 685 m 1
 229 231 l 2
 228 186 227 117 238 97 c 0
 243 87 252 78 266 78 c 0
 279 78 290 82 301 89 c 0
 314 98 329 111 340 123 c 1
 352 123 l 1
 368 107 l 1
 345 76 318 46 285 23 c 0
 261 7 235 -7 205 -7 c 0
 181 -7 156 -2 142 16 c 0
 126 35 123 59 121 83 c 0
 119 119 121 196 123 253 c 0
 126 338 124 436 123 527 c 0
 122 556 122 597 118 614 c 0
 115 627 105 640 90 643 c 0
 74 647 49 648 28 649 c 1
 28 672 l 1
 40 680 l 1
 224 697 l 1
 237 685 l 1
EndSplineSet
Fore
SplineSet
273.735 39.5244 m 0xe8
 287.551 48.9552 300.239 60.4066 312.061 72.3418 c 1
 299.114 63.7549 283.227 58 266 58 c 0
 238.467 58 224.753 79.3419 220.294 87.709 c 0
 211.47 104.265 208.423 136.911 208.423 187.785 c 0xf0
 208.423 203.271 208.774 218.358 209.004 231.398 c 2
 216.843 676.254 l 1
 85.7344 664.141 l 2
 88.7764 663.64 91.6816 663.095 94.3867 662.507 c 0
 119.021 657.153 133.033 637.622 137.479 618.539 c 0
 141.55 601.059 141.414 573.069 142.987 527.454 c 1
 143.594 472.24 144.584 414.058 144.584 357.852 c 0
 144.584 321.554 144.172 285.983 142.987 252.297 c 0
 141.574 212.121 140.172 161.928 140.172 123.651 c 0
 140.172 107.817 140.208 94.2637 140.95 84.3848 c 0
 142.734 60.6426 146.645 42.0306 157.543 28.5811 c 0
 167.879 15.8246 190.22 13 205 13 c 0
 228.516 13 250.805 23.8712 273.735 39.5244 c 0xe8
248.996 230.602 m 2
 248.768 217.658 248.423 202.769 248.423 187.785 c 0xf0
 248.423 179.008 248.688 119.44 255.706 106.291 c 0
 259.048 100.029 262.518 98 266 98 c 0
 275.705 98 283.74 101.522 289.939 105.658 c 0
 297.757 110.874 312.557 122.66 325.257 136.515 c 1
 340 143 l 1
 352 143 l 1
 366.143 137.143 l 1
 382.143 121.143 l 1
 384.062 95.083 l 1
 360.286 63.0381 331.977 30.9316 296.265 6.47559 c 0
 272.659 -9.68945 241.438 -27 205 -27 c 0
 173.485 -27 144.291 -19.5107 126.457 3.41895 c 1
 105.607 28.1777 102.861 57.3252 101.05 81.6152 c 0
 100.216 92.7988 100.172 107.394 100.172 123.651 c 0
 100.172 162.852 101.585 213.269 103.007 253.703 c 0
 104.168 286.721 104.584 321.856 104.584 357.852 c 0
 104.584 413.598 103.916 471.177 103.007 526.546 c 0
 102.733 543.187 102.255 593.507 98.5215 609.461 c 0
 97.0332 615.819 91.5713 622.101 85.6133 623.493 c 0
 73.167 626.401 53.7412 627.751 27.0488 629.022 c 1
 8 649 l 1
 8 672 l 1
 16.9062 688.641 l 1
 28.9062 696.641 l 1
 38.1602 699.915 l 1
 222.16 716.915 l 1
 237.565 711.696 l 1
 250.565 699.696 l 1
 256.997 684.647 l 1xe8
 248.996 230.602 l 2
EndSplineSet
EndChar

StartChar: u1D55E
Encoding: 120158 120158 38
Width: 988
Flags: W
HStem: -27 40<787.289 879.692> 71 40.2783<880.772 938.526> 399 40<70.6497 108.446> 413 40<332.085 402.928 652.828 713.347> 475 40<106.054 201.371 352.239 498.188 669.752 812.689>
VStem: 108.019 40.5928<14.3184 394.168> 224.739 41.0898<39.9453 383> 420 40<13.834 402.219> 530.061 40.8838<39.8105 369> 728 40<27.7175 399.88> 840 40<119.699 445.794>
DStem2: 148.611 14.3184 151.381 -26.9551 0.947741 0.319041<0 85.2545> 456.584 13.834 458.666 -27.8564 0.942814 0.333318<0 83.2846>
LayerCount: 2
Back
SplineSet
240 383 m 1
 240 264 241 64 246 26 c 1
 145 -8 l 1
 128 0 l 1
 132 92 135 247 135 290 c 0
 135 331 135 396 120 409 c 0
 113 416 103 419 96 419 c 0
 73 419 46 404 24 389 c 1
 5 413 l 1
 33 435 63 456 95 472 c 0
 117 483 140 492 165 492 c 0
 183 492 198 492 211 480 c 0
 227 465 234 449 236 428 c 1
 246 425 l 1
 276 443 317 463 353 477 c 0
 381 487 409 495 439 495 c 0
 467 495 490 490 511 472 c 1
 524 459 538 440 543 423 c 1
 558 418 l 1
 591 437 629 460 663 474 c 0
 690 485 718 494 748 494 c 0
 778 494 816 485 835 461 c 0
 856 434 860 383 860 315 c 0
 860 272 856 196 856 154 c 0
 856 141 857 118 865 107 c 0
 872 98 886 91 897 91 c 0
 922 91 943 100 963 114 c 1
 973 114 l 1
 984 93 l 1
 957 67 925 38 891 16 c 0
 870 2 848 -7 822 -7 c 0
 804 -7 788 0 776 11 c 0
 761 24 748 61 748 114 c 0
 748 165 752 232 752 283 c 0
 752 312 752 343 746 371 c 0
 743 387 737 403 724 415 c 0
 713 425 697 431 680 431 c 0
 660 431 642 423 624 415 c 0
 596 402 570 386 545 369 c 1
 545 250 546 93 551 26 c 1
 452 -9 l 1
 436 -1 l 1
 440 98 440 193 440 289 c 0
 440 317 440 345 435 372 c 0
 432 388 426 406 413 418 c 0
 402 428 387 433 371 433 c 0
 353 433 326 425 312 419 c 0
 287 409 262 397 240 383 c 1
EndSplineSet
Fore
SplineSet
554.595 399.32 m 1xdfe0
 551.676 399 l 1xefe0
 536.676 404.026 l 1
 523.812 417.356 l 1
 518.568 435.186 501.093 454.101 497.421 457.336 c 0
 480.429 472.308 462.594 475 439 475 c 0
 412.616 475 387.087 468.423 359.988 458.263 c 0
 350.807 454.82 341.276 450.896 331.692 446.671 c 1
 343.874 450.041 358.215 453 371 453 c 0
 391.098 453 411.243 446.739 426.51 432.747 c 0
 443.999 416.717 451.267 393.904 454.661 375.664 c 0
 460.138 346.226 460 316.995 460 289 c 0
 460 198.043 460.004 107.72 456.584 13.834 c 1
 530.061 39.8105 l 1
 525.81 114.416 525 257.887 525 369 c 1
 533.754 385.538 l 1
 554.595 399.32 l 1xdfe0
939.136 78.6875 m 1
 926.148 73.8662 912.143 71 897 71 c 2
 897 71 892.839 71.1719 891.797 71.2842 c 2
 891.797 71.2842 888.669 71.6826 886.795 72.0615 c 2
 886.795 72.0615 883.796 72.7208 881.967 73.251 c 0
 867.584 77.4197 859.544 83.9346 849.02 94.9785 c 1
 849.02 94.9785 846.082 99.4805 845.509 100.551 c 0
 835.769 118.753 836.009 148.445 836 154 c 0
 835.931 196.973 840 272.94 840 315 c 0
 840 392.151 833.877 430.04 819.266 448.653 c 0
 803.41 468.852 768.684 474 748 474 c 0
 722.069 474 696.667 466.183 670.58 455.492 c 0
 664.651 453.062 658.525 450.3 652.266 447.289 c 1
 660.876 449.545 670.092 451 680 451 c 0
 701.69 451 722.369 443.625 737.51 429.747 c 0
 754.969 413.745 761.899 393.078 765.606 374.938 c 0
 771.94 343.943 772 312.03 772 283 c 0
 772 231.068 768 164.073 768 114 c 0
 768 57.0967 783.413 31.2109 789.307 25.9287 c 0
 798.015 18.125 809.258 13 822 13 c 0
 843.253 13 860.863 20.1808 880 32.7158 c 0
 900.265 45.9894 920.378 62.1162 939.136 78.6875 c 1
265.829 28.6094 m 1
 252.381 7.04492 l 1
 151.381 -26.9551 l 1
 136.484 -26.0967 l 1
 119.484 -18.0967 l 1
 108.019 0.869141 l 1
 111.995 92.3223 115.013 247.623 115 290 c 0
 114.976 369.901 109.483 390.281 106.38 394.372 c 0
 103.56 397.151 97.9717 399 96 399 c 0xefe0
 81.5449 399 61.0801 390.075 35.2666 372.476 c 1
 8.31934 376.586 l 1
 -10.6807 400.586 l 1
 -7.35645 428.727 l 1
 21.2393 451.194 52.2666 472.994 86.0557 489.889 c 0
 109.053 501.387 135.082 512 165 512 c 0
 182.032 512 205.325 512.596 224.622 494.644 c 0
 238.57 481.667 247.204 467.985 251.949 451.529 c 1
 280.575 467.519 314.782 484.045 346.012 495.737 c 0
 374.598 506.439 405.384 515 439 515 c 0
 469.054 515 499.684 508.869 524.579 486.664 c 0
 532.911 479.232 548.407 461.062 557.585 440.867 c 1
 588.135 458.61 622.675 479.09 655.42 492.508 c 0
 683.288 503.928 713.931 514 748 514 c 0
 776.835 514 825.183 505.922 850.734 473.347 c 0
 878.631 437.782 880 369.47 880 315 c 0
 880 271.06 875.827 195.027 876 154 c 0
 876.072 136.87 877.687 125.197 880.776 119.424 c 1
 880.683 119.599 880.725 119.299 880.98 119.021 c 0
 882.88 116.964 886.408 113.608 893.1 111.67 c 2
 893.1 111.67 894.097 111.398 894.661 111.278 c 0
 894.821 111.278 895.638 111.106 896.016 111.062 c 1
 895.987 111.067 896.726 111 897 111 c 0
 917.03 111 933.513 117.771 951.531 130.385 c 1
 963 134 l 1
 973 134 l 1
 990.717 123.28 l 1
 1001.72 102.28 l 1
 997.873 78.5938 l 1
 970.52 52.2529 937.757 22.708 901.979 -0.71582 c 0
 878.888 -15.834 852.747 -27 822 -27 c 0
 798.742 -27 778.268 -17.8123 762.693 -3.92871 c 0
 747.207 9.87619 728 45.7246 728 114 c 0
 728 165.927 732 232.932 732 283 c 0
 732 311.97 731.536 341.947 726.394 367.062 c 0
 723.576 380.819 719.119 392.349 710.49 400.253 c 0
 701.681 408.322 689.232 411 680 411 c 0
 665.52 411 650.288 405.001 632.272 396.792 c 0
 608.755 386.076 586.723 372.732 565.003 358.341 c 1
 565.066 241.027 566.211 90.917 570.944 27.4883 c 1
 557.666 7.14355 l 1
 458.666 -27.8564 l 1
 443.056 -26.8887 l 1
 427.056 -18.8887 l 1
 416.017 -0.192383 l 1
 419.996 98.2891 420 192.997 420 289 c 0
 420 317.005 419.899 343.781 415.339 368.336 c 0
 413.976 375.675 409.93 393.673 399.49 403.253 c 0
 392.842 409.354 382.902 413 371 413 c 0xdfe0
 358.429 413 335.904 407.228 319.653 400.523 c 0
 299.143 392.062 278.354 382.572 260.003 371.79 c 1
 260.069 232.021 261.385 62.3877 265.829 28.6094 c 1
220 383 m 1
 229.263 399.873 l 1
 239.428 406.091 l 1
 230.253 408.844 l 1
 216.09 426.104 l 1
 214.538 442.393 209.249 454.289 197.378 465.356 c 0
 190.774 471.513 183.968 472 165 472 c 0
 144.918 472 124.947 464.613 103.944 454.111 c 0
 92.4648 448.371 81.1641 441.896 70.0596 434.891 c 1
 78.583 437.413 87.3643 439 96 439 c 0
 115.075 439 128.22 429.028 133.62 423.628 c 2
 133.62 423.628 136.371 420.863 136.869 420.27 c 0
 151.195 403.196 154.978 368.167 155 290 c 0
 155.012 248.686 152.314 107.738 148.611 14.3184 c 1
 224.739 39.9453 l 1
 220.502 107.896 220 306.682 220 383 c 1
EndSplineSet
EndChar

StartChar: u1D55F
Encoding: 120159 120159 39
Width: 670
Flags: W
HStem: -30 40<469.76 562.602> 68 40<559.528 620.245> 403 40<69.3783 101.386 286.367 401.169> 474 40<94.2034 190.236 347.745 496.787>
VStem: 106 40<19.2998 402.08> 211 40.0059<176.832 375.442> 417.138 39.7246<25.0219 389.131> 520 40<108.265 452.169>
DStem2: 139.492 19.2998 136.587 -23.2041 0.960195 0.27933<0 86.4042> 421.467 422.784 394.533 393.216 0.731064 -0.682309<-35.9207 37.7077>
LayerCount: 2
Back
SplineSet
231 378 m 1
 231 261 234 59 241 28 c 1
 131 -4 l 1
 119 3 l 1
 122 101 126 295 126 296 c 0
 126 338 126 401 110 415 c 0
 104 421 96 423 88 423 c 0
 68 423 31 398 18 390 c 1
 0 414 l 1
 30 438 57 458 91 475 c 0
 113 487 137 497 162 497 c 0
 178 497 192 497 204 486 c 0
 222 469 226 452 228 428 c 1
 240 424 l 1
 274 445 311 462 349 476 c 0
 378 486 408 494 439 494 c 0
 464 494 489 490 510 471 c 0
 528 454 534 431 536 413 c 0
 540 385 540 320 540 273 c 0
 540 242 537 202 537 170 c 0
 537 113 544 106 553 98 c 0
 560 91 570 88 581 88 c 0
 606 88 628 100 648 114 c 1
 660 114 l 1
 671 97 l 1
 643 69 615 41 582 19 c 1
 562 4 539 -10 512 -10 c 0
 492 -10 472 -3 458 10 c 0
 442 25 439 48 437 68 c 0
 435 83 435 183 435 240 c 0
 435 298 435 384 408 408 c 0
 393 422 372 424 352 424 c 0
 322 424 268 398 231 378 c 1
EndSplineSet
Fore
SplineSet
620.817 76.0186 m 1
 608.613 71.1992 595.272 68 581 68 c 0
 576.122 68 571.209 68.4385 566.319 69.459 c 0
 548.802 73.1162 541.639 81.4308 539.285 83.4551 c 0
 534.305 87.7385 526.408 94.6719 521.831 112.178 c 0
 518.939 123.239 517.248 135.271 517 170 c 0
 516.764 203.132 520 243.156 520 273 c 0
 520 314.235 519.709 383.447 516.162 410.481 c 0
 514.11 426.118 509.423 444.324 496.425 456.314 c 0
 480.682 470.837 462.207 474 439 474 c 0
 411.478 474 383.716 467.193 355.717 457.163 c 0
 330.882 448.266 306.794 437.832 283.816 425.879 c 1
 313.225 438.16 335.867 444 352 444 c 0
 372.983 444 399.883 442.929 421.467 422.784 c 2
 421.467 422.784 423.84 420.529 424.481 419.854 c 0
 450.346 392.602 454.985 332.831 455 240 c 0
 455.012 167.127 455.728 80.6357 456.862 70.3164 c 0
 459.498 46.3555 462.601 33.0557 471.644 24.623 c 0
 483.22 13.8281 499.801 10 512 10 c 0
 535.2 10 555.989 24.4727 570.453 35.3203 c 1
 588.048 47.0508 604.641 61.0107 620.817 76.0186 c 1
260.509 32.4053 m 1
 246.587 8.7959 l 1
 136.587 -23.2041 l 1
 120.923 -21.2754 l 1
 108.923 -14.2754 l 1
 99.0098 3.6123 l 1
 101.999 101.26 106 295.865 106 296 c 0
 105.983 332.343 105.606 376.666 98.3682 396.29 c 0
 96.8262 400.471 99.498 397.552 96.3438 400.403 c 0
 95.3203 401.328 92.8584 403 88 403 c 0
 76.0967 403 44.8662 383.049 28.4824 372.967 c 1
 2 378 l 1
 -16 402 l 1
 -12.4941 429.597 l 1
 17.7998 453.832 46.1319 474.284 81.7393 492.724 c 0
 105.198 504.872 131.557 517.025 162 517 c 0
 168.251 516.995 181.321 517.371 193.241 514.106 c 0
 201.038 511.971 209.765 508.006 217.623 500.642 c 0
 234.136 485.167 241.534 469.169 245.216 450.352 c 1
 276.118 468.009 308.898 482.895 342.283 494.837 c 0
 372.046 505.483 404.522 514 439 514 c 0
 465.793 514 497.698 509.58 523.575 485.686 c 0
 546.963 464.089 553.211 435.8 555.838 415.519 c 0
 559.486 387.356 560 330.132 560 273 c 0
 560 240.844 556.79 200.866 557 170 c 0
 557.201 140.509 558.15 131.398 560.53 122.295 c 0
 561.995 116.693 563.072 115.695 566.715 112.545 c 0
 568.031 111.406 569.845 109.586 574.495 108.615 c 0
 577.038 108.084 579.449 108 581 108 c 0
 592.106 108 607.86 110.315 636.531 130.385 c 1
 648 134 l 1
 660 134 l 1
 676.791 124.865 l 1
 687.791 107.865 l 1
 685.143 82.8574 l 1
 657.151 54.8662 628.733 26.1377 593.547 2.67969 c 1
 572.628 -13.0098 546.234 -30 512 -30 c 0
 487.399 -30 462.691 -21.7148 444.356 -4.62305 c 0
 431.719 7.1582 421.898 22.168 417.138 65.6836 c 0
 415.266 82.7969 415.01 170.143 415 240 c 0
 414.99 307.125 412.53 374.34 395.468 392.317 c 0
 394.826 392.993 394.889 392.885 394.533 393.216 c 0
 383.35 403.634 364.292 404 352 404 c 0
 331.504 404 290.902 386.849 251.006 365.985 c 1
 251.221 219.761 255.317 55.3975 260.509 32.4053 c 1
211 378 m 1
 221.489 395.594 l 1
 241.064 405.886 l 1
 233.676 405.026 l 1
 221.676 409.026 l 1
 208.069 426.339 l 1
 206.503 445.133 204.253 458.322 190.377 471.358 c 0
 187.373 474.181 184.346 475.069 182.675 475.527 c 0
 178.753 476.602 174.409 476.977 162 477 c 0
 142.443 477.037 121.29 468.211 100.261 457.276 c 0
 89.377 451.617 79.1279 445.744 69.1787 439.509 c 1
 75.8672 441.684 82.2637 443 88 443 c 0
 99.1416 443 112.54 440.529 123.656 429.597 c 0
 125.246 428.033 131.102 423.132 135.896 410.133 c 0
 143.55 389.384 145.969 364.482 146 296 c 0
 146 293.918 142.432 121.419 139.492 19.2998 c 1
 218.914 42.4043 l 1
 212.452 110.415 211 303.062 211 378 c 1
EndSplineSet
EndChar

StartChar: u1D560
Encoding: 120160 120160 40
Width: 672
Flags: W
HStem: -31 40<200.967 432.614> 10 40<283.547 393.222> 426 39.98<342.461 397.634> 466 40<342.461 459.358>
VStem: 59 40<118.755 333.134> 188 40<119.81 353.185> 441 40<111.453 375.498> 570 40<148.768 361.644>
LayerCount: 2
Back
SplineSet
208 234 m 0
 208 199 212 164 223 130 c 0
 231 104 243 79 264 60 c 0
 281 44 302 30 328 30 c 0
 356 30 387 35 407 54 c 0
 430 75 442 104 449 133 c 0
 460 177 461 212 461 268 c 0
 461 299 458 330 449 359 c 0
 442 381 432 402 414 419 c 0
 395 437 368 446 340 446 c 0
 312 446 286 434 266 416 c 0
 244 396 232 370 223 343 c 0
 212 308 208 271 208 234 c 0
79 233 m 0
 79 301 100 368 153 416 c 0
 204 463 274 486 346 486 c 0
 410 486 477 473 523 431 c 0
 569 390 590 332 590 274 c 0
 590 230 585 187 570 145 c 0
 558 111 540 79 513 54 c 0
 462 8 391 -11 320 -11 c 0
 259 -11 195 -3 151 37 c 0
 95 88 79 162 79 233 c 0
EndSplineSet
Fore
SplineSet
99 233 m 0
 99 164.651 114.521 97.2364 164.46 51.793 c 0
 207.027 13.0577 274.502 9 320 9 c 0
 427.763 9 482.203 52.9151 499.508 68.7637 c 0
 523.598 90.8263 539.849 119.875 551.152 151.691 c 0
 565.096 190.942 570 231.488 570 274 c 0
 570 327.299 550.582 379.308 509.604 416.15 c 0
 486.653 436.784 440.251 466 346 466 c 0
 344.819 466 343.64 465.993 342.461 465.98 c 1
 373.814 465.472 404.803 455.23 427.744 433.529 c 0
 449.926 412.546 461.16 387.066 468.08 364.996 c 0
 478 333.359 481 300.28 481 268 c 0
 481 211.987 479.855 174.575 468.422 128.229 c 0
 461.335 99.5 448.588 65.382 420.63 39.3652 c 0
 394.984 15.5001 356.352 10 328 10 c 0
 294.382 10 269.17 28.0625 250.438 45.3027 c 0
 225.87 67.9141 212.721 96.2129 203.928 123.98 c 0
 192.35 160.542 188 197.489 188 234 c 0
 188 272.431 191.899 311.714 203.974 349.16 c 0
 213.125 377.54 226.714 407.425 252.584 430.832 c 0
 273.35 449.621 300.322 463.156 330.263 465.603 c 1
 268.209 462.457 209.656 440.666 166.489 401.234 c 0
 118.389 357.296 99 296.198 99 233 c 0
139.511 430.766 m 0
 195.122 481.565 269.824 506 346 506 c 0
 460.291 506 512.965 466.894 536.396 445.85 c 0
 587.088 400.322 610 336.701 610 274 c 0
 610 228.512 604.763 183.108 588.848 138.309 c 0
 576.011 102.175 556.763 66.7823 526.492 39.2363 c 0
 467.251 -14.6728 387.54 -31 320 -31 c 0
 259.828 -31 188.068 -23.7715 137.54 22.207 c 0
 78.373 76.0469 59 153.686 59 233 c 0
 59 307.316 82.6553 378.828 139.511 430.766 c 0
228 234 m 0
 228 200.511 232.074 167.594 242.072 136.02 c 0
 249.704 111.919 260.469 90.457 277.562 74.6973 c 0
 293.173 60.3057 309.618 50 328 50 c 0
 367.135 50 384.576 60.4609 393.37 68.6348 c 0
 404.077 78.5869 419.645 97.3545 429.578 137.771 c 0
 439.834 179.502 441 212.013 441 268 c 0
 441 310.482 434.996 336.876 429.92 353.004 c 0
 423.51 373.37 414.866 390.65 400.256 404.471 c 0
 385.77 418.174 363.812 426 340 426 c 0
 317.818 426 296.328 416.468 279.416 401.168 c 0
 261.191 384.68 250.35 362.632 242.026 336.84 c 0
 231.575 304.453 228 269.569 228 234 c 0
EndSplineSet
EndChar

StartChar: u1D561
Encoding: 120161 120161 41
Width: 662
Flags: W
HStem: -20 40<259.489 429.468> 22 40<282.042 403.545> 393 40<83.4371 108.217 289.251 412.195> 468 40<112.105 211.849 343.603 505.389>
VStem: 93.0137 40.5361<-224.274 -36.5582> 114 40<98.1061 388.156> 219 40<-155.238 -6.84082 84.7301 366> 453 40<124.176 347.111> 573 40<173.224 393.286>
DStem2: 133.55 -224.274 129.812 -266.412 0.970613 0.240648<0 94.6144>
LayerCount: 2
Back
SplineSet
246 -217 m 1
 125 -247 l 1
 113 -238 l 1
 119 -75 134 12 134 297 c 0
 134 334 134 391 120 403 c 0
 114 409 105 413 95 413 c 0
 77 413 50 396 32 385 c 1
 18 409 l 1
 46 431 75 452 107 468 c 0
 129 478 152 488 177 488 c 0
 193 488 209 486 221 475 c 0
 236 462 241 444 242 425 c 1
 250 421 l 1
 279 440 310 456 342 469 c 0
 369 479 396 488 424 488 c 0
 465 488 507 478 536 451 c 0
 557 432 570 408 579 383 c 1
 589 351 593 318 593 284 c 0
 593 208 571 133 516 75 c 0
 471 27 403 0 334 0 c 0
 304 0 274 4 248 21 c 1
 237 15 l 1
 246 -217 l 1
266 69 m 0
 285 52 311 42 338 42 c 0
 367 42 397 49 418 68 c 0
 438 87 450 110 459 135 c 0
 469 165 473 198 473 230 c 0
 473 263 471 297 462 329 c 0
 456 351 445 370 427 387 c 0
 408 404 383 414 356 414 c 0
 338 414 320 409 304 402 c 0
 281 393 259 380 239 366 c 1
 239 163 l 2
 239 144 240 124 245 106 c 0
 249 92 255 79 266 69 c 0
EndSplineSet
Fore
SplineSet
225.75 100.576 m 0xf380
 219.056 124.405 219 150.529 219 163 c 2
 219 366 l 1
 227.53 382.385 l 1
 248.41 397.001 271.458 410.257 296.348 420.474 c 0
 314.343 427.86 334.276 434 356 434 c 0
 387.965 434 418.133 422.131 440.534 401.723 c 0
 451.724 391.528 471.188 370.769 481.274 334.339 c 0
 490.927 299.478 493 263.802 493 230 c 0
 493 196.338 489.132 160.991 477.896 128.45 c 0
 468.677 101.753 454.765 75.0293 431.597 53.335 c 0
 421.84 44.1992 394.051 22 338 22 c 0
 306.062 22 275.39 33.6339 252.605 54.1484 c 0
 237.706 67.5635 230.202 84.7295 225.75 100.576 c 0xf380
279.395 83.8516 m 0
 294.511 70.2568 315.938 62 338 62 c 0
 357.651 62 385.813 65.4465 404.403 82.665 c 0
 421.595 98.5881 431.971 118.019 440.104 141.55 c 0
 449.519 168.788 453 199.662 453 230 c 0
 453 262.198 450.822 294.452 442.726 323.661 c 0
 435.41 350.052 421.573 364.886 413.466 372.277 c 0
 398.179 386.214 378.035 394 356 394 c 0
 347.203 394 332.124 392.04 311.652 383.526 c 0
 293.938 376.159 275.693 366.492 259 355.429 c 1
 259 163 l 2
 259 144.711 260.037 126.399 264.25 111.424 c 0
 267.679 99.2373 272.194 90.3271 279.395 83.8516 c 0
129.812 -266.412 m 1
 113 -263 l 1
 101 -254 l 1
 93.0137 -237.265 l 1xfb80
 99.0605 -73.0029 114.033 12.751 114 297 c 0xf780
 113.991 368.075 109.116 384.698 106.421 388.336 c 0
 105.671 389.05 101.515 393 95 393 c 0
 84.4854 393 62.2002 380.018 42.4287 367.935 c 1
 14.7246 374.923 l 1
 0.724609 398.923 l 1
 5.64355 424.727 l 1
 34.0518 447.047 64.2023 469.567 98.3896 486.048 c 0
 120.283 496.602 146.534 508 177 508 c 0
 194.225 508 216.054 506.174 234.307 489.929 c 0
 247.373 478.3 254.59 464.174 258.386 449.866 c 1
 282.847 464.54 308.473 477.389 334.763 487.643 c 0
 361.94 498.242 391.641 508 424 508 c 0
 465.19 508 513.966 498.46 549.523 465.734 c 0
 573.566 443.606 588.278 416.248 597.954 389.37 c 1
 608.673 355.07 613 319.558 613 284 c 0
 613 205.815 590.5 124.825 530.552 61.2793 c 0
 481.039 8.7959 408.156 -20 334 -20 c 0
 309.336 -20 282.934 -17.5156 257.862 -6.84082 c 1
 265.985 -216.225 l 1
 250.812 -236.412 l 1
 129.812 -266.412 l 1
225.384 -201.506 m 1
 217.015 14.2246 l 1
 227.423 32.5576 l 1
 238.423 38.5576 l 1
 258.945 37.7393 l 1
 280.084 23.918 305.614 20 334 20 c 0
 390.676 20 456.27 40.8254 501.448 88.7207 c 0
 553.838 144.261 573 215.448 573 284 c 0
 573 316.442 569.327 346.93 560.046 376.63 c 1
 551.722 399.752 540.105 420.034 522.477 436.266 c 0
 494.945 461.613 453.993 468 424 468 c 0
 400.359 468 375.712 460.673 349.237 450.357 c 0
 318.188 438.26 288.801 422.511 260.961 404.271 c 1
 241.056 403.111 l 1
 233.056 407.111 l 1
 222.027 423.949 l 1
 221.159 440.438 216.962 451.823 207.693 460.071 c 0
 199.415 467.438 185.867 468 177 468 c 0
 157.466 468 137.281 460.329 115.61 449.952 c 0
 104.378 444.573 93.584 438.355 83.0264 431.564 c 1
 87.1865 432.489 91.1953 433 95 433 c 0
 110.366 433 123.63 427.518 133.55 417.664 c 2xfb80
 133.55 417.664 136.468 414.765 136.983 414.146 c 0
 149.892 398.631 153.991 370.542 154 297 c 0xf780
 154.033 19.8799 139.836 -71.4863 133.55 -224.274 c 1
 225.384 -201.506 l 1
EndSplineSet
EndChar

StartChar: u1D562
Encoding: 120162 120162 42
Width: 671
Flags: W
HStem: -33 40<174.191 329.277> 41 40<275.55 379.366> 435 39.9674<350.707 399.867> 475 40<350.707 448.51>
VStem: 82 40<63.3926 326.216> 197 40<124.666 360.265> 420 40<-224.372 28.3916 112 414.402> 525 40<21.8502 432.668> 536.094 40.8672<-198.57 -7.67721>
DStem2: 453.378 -224.372 453.955 -266.093 0.954636 0.297776<0 91.1008> 470.636 489.354 491.638 451.532 0.623408 0.781897<-5.40027 51.8476>
LayerCount: 2
Back
SplineSet
557 -213 m 1
 448 -247 l 1
 433 -240 l 1
 440 54 l 1
 431 59 l 1
 401 40 362 18 329 5 c 0
 300 -6 270 -13 238 -13 c 0
 203 -13 170 1 145 24 c 0
 126 41 119 65 113 88 c 0
 104 126 102 164 102 202 c 0
 102 287 123 376 190 437 c 0
 234 477 294 495 355 495 c 0
 397 495 441 484 476 464 c 1
 535 538 l 1
 556 535 l 1
 550 433 545 331 545 228 c 0
 545 97 549 -85 557 -213 c 1
440 112 m 1
 440 349 l 2
 440 376 435 411 417 427 c 0
 398 444 374 455 348 455 c 0
 321 455 294 444 276 427 c 0
 253 406 241 379 232 350 c 0
 220 313 217 274 217 235 c 0
 217 204 219 173 228 144 c 0
 234 122 244 101 262 85 c 0
 278 70 301 61 324 61 c 0
 372 61 410 89 440 112 c 1
EndSplineSet
Fore
SplineSet
324 41 m 0xfe
 295.801 41 268.827 51.7041 248.517 70.2305 c 0
 226.916 89.9336 215.889 114.313 208.802 138.405 c 0
 199.323 170.627 197 203.156 197 235 c 0
 197 275.003 200.177 315.959 212.938 356.049 c 0
 222.562 386.285 235.703 416.911 262.391 441.655 c 0
 281.449 459.326 306.823 471.168 334.064 474.22 c 1
 289.651 470.894 241.119 456.472 203.459 422.206 c 0
 142.378 366.63 122 284.029 122 202 c 0
 122 164.688 123.632 128.473 132.407 92.8291 c 0
 138.046 69.9287 144.978 51.0645 158.438 38.8115 c 0
 180.095 19.0996 208.385 7 238 7 c 0
 263.219 7 290.307 11.4856 321.788 23.6543 c 0
 339.84 30.6323 360.36 40.9204 380.127 51.9545 c 1
 362.891 45.1397 344.414 41 324 41 c 0xfe
420 121.917 m 1
 420 349 l 2
 420 356.204 419.828 397.68 403.688 412.073 c 0
 387.642 426.384 368.238 435 348 435 c 0
 330.477 435 306.569 428.079 289.609 412.345 c 0
 270.625 394.732 259.852 371.585 251.062 343.951 c 0
 240.235 309.908 237 272.997 237 235 c 0
 237 204.844 239.541 175.635 247.198 149.595 c 0
 252.98 129.933 261.491 112.519 275.483 99.7695 c 0
 287.586 88.7422 306.198 81 324 81 c 0
 361.626 81 394.159 102.499 420 121.917 c 1
453.955 -266.093 m 1
 439.542 -265.124 l 1
 424.542 -258.124 l 1
 413.006 -239.524 l 1
 419.385 28.3916 l 1
 393.083 12.7344 363.336 -3.15402 336.212 -13.6543 c 0
 305.669 -25.4782 272.941 -33 238 -33 c 0
 197.615 -33 160.172 -16.8086 131.562 9.18848 c 0
 108.596 30.0576 99.4805 59.2178 93.5928 83.1709 c 0
 83.7129 123.369 82 163.312 82 202 c 0
 82 289.971 103.585 385.411 176.541 451.794 c 0
 225.109 495.986 290.179 515 355 515 c 0
 394.618 515 435.338 506.177 470.636 489.354 c 1
 519.362 550.468 l 1
 537.828 557.799 l 1
 558.828 554.799 l 1
 575.966 533.825 l 1
 569.974 431.954 565 330.352 565 228 c 0xff
 565 97.415 569.006 -84.4727 576.961 -211.752 c 1xfe80
 562.955 -232.093 l 1
 453.955 -266.093 l 1
536.094 -198.57 m 1xfe80
 528.681 -71.0566 525 101.835 525 228 c 0xff
 525 321.091 529.055 413.172 534.233 504.957 c 1
 491.638 451.532 l 1
 466.077 446.635 l 1
 434.592 464.626 393.521 475 355 475 c 0
 353.576 475 352.145 474.989 350.707 474.967 c 1
 381.383 474.229 408.928 460.993 430.312 441.927 c 0
 455.378 419.577 460 375.985 460 349 c 2
 460 112 l 1
 452.169 96.1279 l 1
 443.065 89.1484 433.892 82.3373 424.496 76.0172 c 1
 440.713 76.4834 l 1
 449.713 71.4834 l 1
 460 53.5244 l 1
 453.378 -224.372 l 1
 536.094 -198.57 l 1xfe80
EndSplineSet
EndChar

StartChar: u1D563
Encoding: 120163 120163 43
Width: 496
Flags: W
HStem: 381 40<293.637 361.462> 395 40<83.9418 105.669> 466 40<104.876 211.982 339.289 443.585>
VStem: 114 40<15.043 393.459> 219 40<53.4191 348.841>
DStem2: 147.419 15.043 153.906 -24.7695 0.938494 0.345295<0 94.8378> 406.548 365.253 416.235 322.179 0.791053 0.611748<0 76.1231>
LayerCount: 2
Back
SplineSet
253 33 m 1
 147 -6 l 1
 127 1 l 1
 130 101 134 293 134 294 c 0
 134 334 134 395 119 409 c 0
 112 415 107 415 98 415 c 0
 79 415 49 400 30 385 c 1
 14 408 l 1
 42 430 71 451 103 468 c 0
 124 479 147 489 172 489 c 0
 190 489 207 485 220 473 c 0
 228 466 231 456 233 446 c 0
 237 431 238 418 238 402 c 1
 249 397 l 1
 273 422 298 445 328 463 c 1
 350 475 374 486 400 486 c 0
 420 486 440 479 455 466 c 0
 475 448 479 421 479 396 c 1
 404 338 l 1
 391 346 l 1
 388 360 383 375 372 385 c 0
 362 394 349 401 334 401 c 0
 309 401 288 390 270 370 c 0
 256 354 247 335 243 315 c 0
 239 295 239 276 239 257 c 0
 239 225 246 109 253 33 c 1
EndSplineSet
Fore
SplineSet
406.548 365.253 m 1xb8
 458.736 405.612 l 1
 457.112 433.984 448.524 445.062 441.761 451.01 c 0
 430.812 460.637 415.368 466 400 466 c 0
 375.031 466 349.098 452.168 337.934 445.646 c 0
 321.763 436.2 307.203 424.932 293.258 412.376 c 1
 305.688 418.021 319.231 421 334 421 c 0
 355.421 421 373.018 411.048 385.416 399.832 c 0
 396.217 390.062 402.55 377.42 406.548 365.253 c 1xb8
153.906 -24.7695 m 1
 140.393 -24.877 l 1
 120.393 -17.877 l 1
 107.009 1.59961 l 1
 109.999 101.268 114 293.869 114 294 c 0
 113.98 333.317 113.381 374.935 106.234 392.289 c 0
 105.704 393.576 106.369 393.459 106.369 393.459 c 1
 105.669 394.097 l 1
 105.669 394.097 105.397 395.297 104.752 394.761 c 0
 103.807 394.979 102.568 395 98 395 c 0x78
 86.8789 395 61.0947 384.067 42.3926 369.303 c 1
 13.582 373.579 l 1
 -2.41797 396.579 l 1
 1.64355 423.727 l 1
 30.0527 446.048 60.0156 467.91 93.668 485.689 c 0
 115.446 497.195 141.537 509 172 509 c 0
 192.695 509 215.535 504.618 233.368 487.874 c 0
 235.298 486.062 242.418 480.667 248.016 466.354 c 0
 249.252 463.192 250.433 458.802 252.468 450.538 c 0
 254.075 444.009 255.231 437.977 256.057 432.274 c 1
 274.706 449.942 294.955 466.486 318.066 480.354 c 1
 340.83 492.77 368.211 506 400 506 c 0
 424.632 506 449.43 497.64 468.239 480.99 c 0
 492.061 459.904 499 429.946 499 396 c 1
 491.235 380.179 l 1
 416.235 322.179 l 1
 393.518 320.967 l 1
 380.518 328.967 l 1
 371.444 341.81 l 1
 370.168 347.768 367.079 362.481 358.584 370.168 c 0
 351.029 377.004 342.579 381 334 381 c 0
 324.173 381 305.301 379.577 284.959 356.726 c 0
 271.872 342.023 265.509 325.565 262.611 311.078 c 0
 259.096 293.5 259 276.024 259 257 c 0
 259 226.833 265.992 110.007 272.916 34.834 c 1
 259.906 14.2305 l 1
 153.906 -24.7695 l 1
231.718 46.4805 m 1
 225.134 122.514 219 225.35 219 257 c 0
 219 275.976 218.904 296.5 223.389 318.922 c 0
 227.868 341.319 237.747 363.017 253.229 381.192 c 1
 240.724 378.793 l 1
 229.724 383.793 l 1
 218 402 l 1
 218 413.635 217.28 426.464 213.532 441.462 c 0
 212.291 446.429 211.492 449.923 210.764 451.785 c 0
 209.196 455.793 207.963 456.865 206.632 458.126 c 0
 198.7 465.635 187.305 469 172 469 c 0
 152.463 469 132.479 460.946 112.332 450.311 c 0
 102.398 445.066 92.7324 439.369 83.2568 433.32 c 1
 88.2998 434.392 93.2588 435 98 435 c 0
 107.448 435 110.701 434.441 113.747 433.738 c 2
 113.747 433.738 118.141 432.524 120.206 431.655 c 0
 122.317 430.767 128.471 427.042 132.331 423.903 c 0
 138.699 418.726 141.781 411.018 143.222 407.52 c 0
 151.527 387.349 153.973 351.208 154 294 c 0
 154.001 291.893 150.371 118.364 147.419 15.043 c 1
 231.718 46.4805 l 1
EndSplineSet
EndChar

StartChar: u1D564
Encoding: 120164 120164 44
Width: 498
Flags: W
HStem: -35 77<203.5 304.49> -35 40.0361<101.645 202.702> 474 40<264.769 365.827>
VStem: 51 40<278.246 408.172> 148 40<344.364 427.499> 293 40<58.1808 129.007> 405 40<77.347 194.362>
DStem2: 18.3867 63.1348 60.5059 54.1328 0.556738 0.830688<13.3401 88.2726> 208.393 343.698 183.607 312.302 0.849512 -0.527569<-34.8071 266.521> 346.079 380.559 360.238 337.954 0.70228 0.711901<0 69.0037>
LayerCount: 2
Back
SplineSet
419 426 m 1
 346 352 l 1
 331 356 l 1
 326 388 312 418 287 441 c 0
 273 454 253 457 233 457 c 0
 215 457 197 451 183 439 c 0
 168 425 168 405 168 385 c 0
 168 363 182 339 196 328 c 0
 225 305 259 287 293 271 c 0
 327 256 373 235 390 219 c 0
 414 198 425 168 425 138 c 0
 425 103 410 68 382 43 c 0
 337 1 272 -15 208 -15 c 0
 169 -15 130 -10 95 6 c 0
 71 16 52 33 35 52 c 1
 98 146 l 1
 113 145 l 1
 122 111 131 75 159 50 c 0
 178 32 203 22 230 22 c 0
 254 22 277 31 294 46 c 0
 308 59 313 77 313 95 c 0
 313 113 304 128 290 141 c 0
 274 156 234 176 201 190 c 0
 166 205 137 226 110 250 c 0
 86 271 71 300 71 331 c 0
 71 372 81 414 114 443 c 0
 155 480 213 494 270 494 c 0
 306 494 343 493 373 474 c 0
 393 462 409 446 419 426 c 1
EndSplineSet
Fore
SplineSet
280.241 13.2383 m 1x3e
 314.038 21.4346 344.764 35.9601 368.517 57.7695 c 0
 391.926 79.2639 405 108.696 405 138 c 0
 405 163.238 395.333 187.23 376.562 204.192 c 0
 361.78 217.549 313.143 239.8 284.706 252.803 c 0
 249.948 268.696 214.631 287.778 183.607 312.302 c 0
 166.907 325.503 148 354.55 148 385 c 0
 148 404.306 146.765 432.525 169.669 453.903 c 1
 172.331 456.1 l 1
 149.178 446.281 134.862 434.773 127.301 428.064 c 0
 100.457 404.247 91 369.112 91 331 c 0
 91 306.581 102.987 282.869 123.229 265 c 0
 149.342 241.947 176.386 222.248 208.845 208.397 c 0
 233.482 197.884 282.911 174.978 303.644 155.623 c 0
 319.892 140.454 333 120.093 333 95 c 0
 333 56.8066 314.281 37.3057 307.421 31.1738 c 0
 299.346 23.957 290.166 17.916 280.241 13.2383 c 1x3e
100.759 114.192 m 1
 60.5059 54.1328 l 1
 73.4111 41.3301 87.547 31.1828 103.004 24.3252 c 0
 132.949 11.0395 167.244 5.52832 202.702 5.03613 c 1x7e
 181.33 9.87305 161.761 20.333 145.463 35.2812 c 0
 121.202 57.5342 109.079 86.5947 100.759 114.192 c 1
360.238 337.954 m 1
 340.847 332.676 l 1
 325.847 336.676 l 1
 311.24 352.912 l 1
 306.814 381.234 294.695 406.682 273.425 426.312 c 0
 262.593 436.309 244.763 437 233 437 c 0
 219.397 437 206.21 432.876 196.331 424.097 c 0
 189.076 417.649 188 409.013 188 385 c 0
 188 371.45 196.774 352.887 208.393 343.698 c 0
 235.438 322.309 267.646 304.425 301.294 289.197 c 0
 354.001 265.344 386.641 248.908 403.438 233.808 c 0
 432.056 208.081 445 172.762 445 138 c 0
 445 97.3037 427.376 57.5068 395.483 28.2305 c 0
 342.317 -20.5742 269.526 -35 208 -35 c 0
 167.334 -35 125.72 -30.0273 86.9961 -12.3252 c 1
 58.9404 -0.635742 38.0352 18.6133 20.0947 38.6641 c 1
 18.3867 63.1348 l 1
 81.3867 157.135 l 1
 99.3301 165.956 l 1
 114.33 164.956 l 1
 132.334 150.118 l 1
 141.452 115.671 150.634 84.7861 172.537 64.7188 c 0
 189.361 49.3047 209.954 42 230 42 c 0xbe
 248.986 42 267.422 48.9756 280.579 60.8262 c 0
 289.43 68.7979 293 80.4727 293 95 c 0
 293 107.538 286.152 117.234 276.356 126.377 c 0
 265.024 136.953 233.196 154.531 193.155 171.603 c 0
 155.562 187.63 124.833 210.251 96.7715 235 c 0
 69.1865 259.329 51 293.419 51 331 c 0
 51 374.888 61.9092 423.339 100.699 457.936 c 0
 149.472 501.435 214.494 514 270 514 c 0
 303.582 514 346.646 513.892 383.495 491.023 c 0
 405.94 477.094 424.958 458.805 436.889 434.944 c 1
 433.238 411.954 l 1
 360.238 337.954 l 1
393.861 428.996 m 1
 384.84 441.461 373.043 450.396 362.505 456.977 c 0
 332.981 475.413 288.46 474 270 474 c 0
 268.016 474 266.056 473.982 264.118 473.948 c 1
 283.533 469.667 294.028 461.726 300.575 455.688 c 0
 323.437 434.602 338.207 408.41 346.079 380.559 c 1
 393.861 428.996 l 1
EndSplineSet
EndChar

StartChar: u1D565
Encoding: 120165 120165 45
Width: 437
Flags: W
HStem: -31 40<190.898 306.056> 53 40<282.029 355.221> 380 40<47.2939 127 272 363.333> 425 40<48.8242 125.778 273.831 366.726>
VStem: 127 40<33.5681 380 464 573.758> 232 40<98.3317 380>
DStem2: 136.622 606.956 163.388 573.758 0.947794 0.318884<8.83278 99.4729>
LayerCount: 2
Back
SplineSet
143 588 m 2
 250 624 l 1
 265 617 l 2
 265 616 257 515 253 453 c 1
 260 445 l 1
 385 445 l 1
 392 435 l 1
 382 409 l 1
 370 400 l 1
 260 400 l 1
 252 392 l 1
 252 233 l 2
 252 181 254 106 273 87 c 0
 281 79 291 73 307 73 c 0
 321 73 333 78 345 84 c 0
 360 91 376 102 388 113 c 1
 398 113 l 1
 410 98 l 1
 387 68 360 40 327 18 c 0
 303 2 276 -11 245 -11 c 0
 219 -11 192 -3 175 16 c 0
 163 29 158 48 154 66 c 0
 148 98 147 130 147 163 c 2
 147 391 l 1
 138 400 l 1
 28 400 l 1
 22 408 l 1
 32 437 l 1
 43 444 l 1
 139 444 l 1
 146 453 l 1
 145 505 143 587 143 588 c 2
EndSplineSet
Fore
SplineSet
243.622 642.956 m 1
 258.458 642.124 l 1
 273.458 635.124 l 1
 285 617 l 1
 285 612.361 278.827 539.84 273.831 465 c 1
 385 465 l 1
 401.385 456.469 l 1
 408.385 446.469 l 1
 410.667 427.82 l 1
 400.667 401.82 l 1
 394 393 l 1
 382 384 l 1
 370 380 l 1
 272 380 l 1
 272 233 l 2
 272.144 174.448 275.315 121.459 285.731 103.189 c 0
 286.477 101.883 287.067 101.218 287.143 101.143 c 0
 292.864 95.4209 298.068 93 307 93 c 0
 316.038 93 324.897 96.5303 336.299 102.006 c 0
 352.603 109.836 367.81 121.624 374.485 127.743 c 1
 388 133 l 1
 398 133 l 1
 413.617 125.494 l 1
 425.617 110.494 l 1
 425.872 85.8311 l 1
 401.939 54.6143 373.436 24.9209 338.094 1.35938 c 0
 312.622 -15.622 281.779 -31 245 -31 c 0
 215.123 -31 182.093 -21.7137 160.199 2.54883 c 0
 152.021 11.6124 142.664 24.8428 134.409 61.9883 c 1
 128.035 95.9834 127 129.609 127 163 c 2
 127 380 l 1
 28 380 l 1
 12 388 l 1
 6 396 l 1
 3.09277 414.52 l 1
 13.0928 443.52 l 1
 21.2627 453.873 l 1
 32.2627 460.873 l 1
 43 464 l 1
 125.778 464 l 1
 124.728 515.866 123 585.867 123 588 c 1
 136.622 606.956 l 1
 243.622 642.956 l 1
163.388 573.758 m 1
 163.78 559.843 164.546 528.785 165.996 453.385 c 1
 161.787 440.721 l 1
 154.787 431.721 l 1
 139 424 l 1
 48.8242 424 l 1
 48.6309 423.877 l 1
 47.2939 420 l 1
 138 420 l 1
 152.143 414.143 l 1
 161.143 405.143 l 1
 167 391 l 1
 167 163 l 2
 167 130.391 167.546 99.9355 173.591 70.0117 c 0
 177.957 48.3984 182.7 37.2939 189.801 29.4512 c 0
 201.547 16.4775 222.851 9 245 9 c 0
 270.221 9 293.378 19.6221 315.906 34.6406 c 0
 330.376 44.2871 343.696 55.2412 356.049 67.1455 c 1
 353.701 65.9941 l 2
 340.852 59.7998 325.777 53 307 53 c 0
 287.743 53 272.457 59.2578 258.857 72.8574 c 0
 255.579 76.1357 253.082 79.6954 250.983 83.377 c 0
 236.862 108.148 232.186 157.442 232 233 c 2
 232 392 l 1
 237.857 406.143 l 1
 245.857 414.143 l 1
 260 420 l 1
 363.333 420 l 1
 365.398 421.549 l 1
 366.726 425 l 1
 260 425 l 1
 244.948 431.83 l 1
 237.948 439.83 l 1
 233.041 454.288 l 1
 237.352 521.095 241.574 575.087 243.657 600.765 c 1
 163.388 573.758 l 1
EndSplineSet
EndChar

StartChar: u1D566
Encoding: 120166 120166 46
Width: 670
Flags: W
HStem: -28 40<168.124 311.474 473.397 559.596> 46.002 39.9961<264.349 348.565> 70 40<562.044 618.443> 400 40<68.2214 90.3316> 476 40<97.5173 199.776>
VStem: 96 40<41.7219 395.971> 205 40<105.095 399.055> 212 40<228.868 465.135> 416.15 40<113.646 451.83> 520.008 40.9424<110.085 476.098>
DStem2: 423.73 484.992 450.876 451.83 0.949601 0.313461<10.2185 92.8036> 563.879 123.036 527.263 106.937 0.445004 -0.895528<-47.6363 19.2556>
LayerCount: 2
Back
SplineSet
430 466 m 1
 533 500 l 1
 545 490 l 1
 541 399 540 309 540 217 c 1
 541 191 540 150 541 140 c 0
 541 130 543 117 549 109 c 0
 556 99 567 90 581 90 c 0
 601 90 627 105 649 118 c 1
 659 118 l 1
 667 98 l 1
 639 70 606 39 572 16 c 0
 552 2 537 -8 511 -8 c 0
 489 -8 474 -5 461 10 c 0
 449 24 442 44 439 61 c 1
 429 67 l 1
 395 49 352 27 316 12 c 0
 292 2 267 -8 241 -8 c 0
 205 -8 169 1 144 25 c 0
 125 42 122 68 119 91 c 0
 116 114 115 159 115 204 c 0
 115 227 116 249 116 269 c 0
 116 316 116 386 106 406 c 0
 100 416 88 420 77 420 c 0
 60 420 34 404 16 393 c 1
 2 418 l 1
 31 439 60 459 92 476 c 0
 112 486 133 496 156 496 c 0
 179 496 199 492 213 476 c 0
 230 456 232 429 232 401 c 0
 232 360 225 287 225 226 c 0
 225 170 231 108 255 86 c 0
 272 71 297 66 321 66 c 0
 368 67 400 88 435 114 c 1
 437 227 437 354 430 466 c 1
EndSplineSet
Fore
SplineSet
68.1006 439.163 m 1xddc0
 71.1719 439.707 74.1455 440 77 440 c 0
 104.689 440 119.43 423.426 123.52 415.617 c 0
 136.135 391.53 136 325.38 136 269 c 0
 136 248.342 135 226.429 135 204 c 0
 135 159.835 135.987 115.398 138.832 93.5869 c 0
 142.548 65.0986 146.158 50.3663 157.594 39.666 c 0
 177.53 21.0109 208.115 12 241 12 c 0
 261.781 12 284.44 20.5176 308.308 30.4619 c 0
 319.11 34.9629 332.375 40.8613 349.151 48.8965 c 1
 340.324 47.2227 331.041 46.2109 321.213 46.002 c 0
 273.674 46.002 249.947 63.589 241.627 71.1299 c 0
 222.146 88.7856 205 126.581 205 226 c 0xdec0
 205 288.287 212 361.853 212 401 c 0
 212 419.06 212.589 445.804 197.854 462.938 c 0
 188.065 474.322 172.779 476 156 476 c 0
 138.965 476 120.887 468.432 101.164 458.225 c 0
 89.7842 452.335 78.8379 445.936 68.1006 439.163 c 1xddc0
526.73 518.992 m 1
 545.804 515.364 l 1
 557.804 505.364 l 1
 564.98 489.122 l 1
 561 398.555 559.39 309.239 559.992 217.385 c 0
 560.116 198.495 560.468 147.297 560.95 140.995 c 0
 561.299 136.447 561.248 130.526 563.192 124.815 c 2
 563.192 124.815 563.465 123.979 563.879 123.036 c 2
 564.509 121.769 l 2
 564.537 121.729 564.971 121.016 565.192 120.734 c 0
 567.473 117.84 568.477 116.339 571.041 114.185 c 0
 575.781 110.202 579.231 110 581 110 c 0
 592.565 110 611.461 119.049 638.825 135.219 c 1
 649 138 l 1
 659 138 l 1
 677.569 125.428 l 1
 685.569 105.428 l 1
 681.143 83.8574 l 1
 652.784 55.499 619.082 24.0469 583.338 -0.475586 c 0
 558.532 -17.4932 539.987 -28 511 -28 c 0
 504.123 -28 469.968 -30.9564 445.851 -3.05762 c 0
 439.11 4.74042 429.414 19.1475 423.047 41.2764 c 1
 375.586 16.5215 344.986 2.41113 323.692 -6.46191 c 0
 308.071 -12.9707 274.077 -28 241 -28 c 0
 174.489 -28 142.049 -0.337891 130.406 10.334 c 0
 108.087 30.793 103.396 55.9941 99.168 88.4131 c 0
 95.8652 113.734 95 158.541 95 204 c 0
 95 227.571 96 249.658 96 269 c 0
 96 361.553 92.999 387.885 88.4805 396.383 c 0
 86.29 400.502 78.2041 400 77 400 c 0
 66.8857 400 45.4404 387.553 26.4287 375.935 c 1
 -1.4502 383.228 l 1
 -15.4502 408.228 l 1
 -9.73047 434.199 l 1
 19.5068 455.371 49.3486 476.379 82.8359 493.775 c 0
 102.815 504.154 127.035 516 156 516 c 0
 180.709 516 208.72 511.612 228.146 489.062 c 0
 250.974 462.561 252 429.583 252 401 c 0xbdc0
 252 358.147 245 285.713 245 226 c 0
 245 151.383 255.793 112.168 268.373 100.87 c 0
 283.102 87.6436 305.286 85.7646 320.787 85.998 c 0
 358.423 86.5654 384.056 101.638 415.171 124.241 c 1
 415.77 160.475 416.15 198.029 416.15 235.955 c 0
 416.15 313.38 414.562 392.373 410.039 464.752 c 1
 423.73 484.992 l 1
 526.73 518.992 l 1
450.876 451.83 m 1
 454.773 382.59 456.15 308.518 456.15 235.955 c 0
 456.15 194.276 455.695 153.101 454.997 113.646 c 1
 446.927 97.9453 l 1
 428.146 84.4482 l 1
 439.29 84.1494 l 1
 449.29 78.1494 l 1
 458.695 64.4756 l 1
 460.22 55.835 464.962 36.0488 476.149 23.0576 c 0
 484.303 13.5898 493.191 12 511 12 c 0
 531.377 12 544.214 21.208 560.662 32.4756 c 0
 580.259 45.9004 600.112 62.4062 618.894 79.5459 c 1
 601.765 72.0645 590.616 70 581 70 c 0
 566.486 70 554.152 76.1289 545.309 83.5596 c 0
 539.58 88.373 538.644 89.8926 532.808 97.2656 c 2
 532.808 97.2656 530.339 100.938 529.769 101.938 c 2
 529.769 101.938 528.223 104.753 527.263 106.937 c 0
 523.902 114.58 526.512 108.443 525.326 111.925 c 0
 521.721 122.517 521.717 130.532 521.05 139.005 c 0
 519.968 152.742 521.291 183.247 520.008 216.615 c 1
 520.008 303.791 520.896 389.688 524.396 476.098 c 1
 450.876 451.83 l 1
EndSplineSet
EndChar

StartChar: u1D567
Encoding: 120167 120167 47
Width: 546
Flags: W
HStem: -32 40<206.686 238> 392 40<37.7212 74.2434> 470 40<77.6977 165.383 459.737 476.429>
VStem: 402 40<219.566 372.628> 498 40<304.075 451.363>
DStem2: 122.355 371.034 114.597 240.149 0.236486 -0.971635<-30.0346 373.704> 193.79 483.504 163.377 457.521 0.604073 -0.796929<1.77893 68.5519> 248.449 311.66 209.551 302.34 0.260166 -0.965564<-163.522 184.598> 365.898 448.923 398 423.079 0.796162 0.605083<9.92043 87.4644>
LayerCount: 2
Back
SplineSet
-11 386 m 1
 -26 411 l 1
 4 432 35 452 68 468 c 0
 88 477 110 487 133 487 c 0
 147 487 163 484 174 475 c 0
 198 456 213 375 229 307 c 0
 239 266 258 190 267 159 c 0
 271 146 276 130 286 120 c 0
 290 116 299 113 301 113 c 0
 311 113 322 118 328 124 c 0
 358 150 383 181 402 214 c 0
 417 241 422 272 422 302 c 0
 422 340 403 385 378 416 c 1
 378 433 l 1
 453 490 l 1
 466 490 l 1
 502 468 518 428 518 389 c 0
 518 321 483 260 442 204 c 0
 351 77 262 8 238 -12 c 1
 195 -12 l 1
 181 51 155 161 134 245 c 0
 124 285 113 329 103 366 c 0
 100 378 95 391 85 401 c 1
 79 409 68 412 58 412 c 0
 44 412 11 400 -11 386 c 1
EndSplineSet
Fore
SplineSet
442 302 m 0
 442 273.79 438.586 243.611 425.803 215.731 c 1
 465.66 270.972 498 328.168 498 389 c 0
 498 421.042 485.67 451.933 460.038 470 c 1
 459.737 470 l 1
 398 423.079 l 1
 398 422.81 l 1
 417.622 396.282 442 349.005 442 302 c 0
163.117 458.021 m 1
 161.461 459.42 l 2
 153.311 466.301 138.667 467 133 467 c 0
 115.89 467 101.558 461.618 76.4668 449.883 c 0
 63.1328 443.646 50.2021 436.529 37.4756 428.85 c 1
 44.96 430.814 52.0107 432 58 432 c 0
 74.6641 432 90.1641 426.48 100.062 414.205 c 1
 112.938 400.864 118.729 384.728 122.355 371.034 c 0
 132.241 333.703 143.401 289.858 153.403 249.851 c 0
 172.812 172.214 196.428 72.6582 211.016 8 c 1
 230.819 8 l 1
 249.272 23.1367 286.614 53.8623 332.051 102.061 c 1
 331.442 101.685 330.836 101.318 330.382 101.062 c 0
 327.813 99.6123 325.127 98.2803 321.447 96.8945 c 2
 321.447 96.8945 318.274 95.7705 316.662 95.3047 c 0
 310.634 93.5635 310.467 93.6595 301 93 c 0
 296.264 92.6701 291.388 94.7051 289.131 95.5312 c 0
 277.992 99.6104 274.804 103.117 271.857 105.857 c 0
 257.104 119.579 250.789 143.253 247.839 153.271 c 0
 238.461 185.118 219.429 261.073 209.551 302.34 c 0
 198.601 348.085 182.306 432.621 164.221 456.479 c 2
 164.221 456.479 163.85 456.968 163.377 457.521 c 0
 162.91 458.067 163.117 458.021 163.117 458.021 c 1
-43.1494 400.71 m 1
 -37.4697 427.385 l 1
 -7.05566 448.675 24.9347 469.685 59.5332 486.117 c 0
 73.1329 492.576 103.717 507 133 507 c 0
 148.933 507 170.616 503.96 186.539 490.58 c 0
 191.339 486.547 191.127 486.621 193.79 483.504 c 2
 193.79 483.504 195.172 481.847 195.906 480.894 c 0
 217.543 452.812 226.519 403.769 248.449 311.66 c 0
 259.007 267.316 277.508 193.842 286.161 164.729 c 0
 291.889 145.459 295.573 138.524 300.143 134.143 c 0
 300.622 133.683 300.187 134.066 302.653 133.177 c 1
 306.035 133.55 304.785 133.509 305.561 133.732 c 2
 305.561 133.732 306.658 134.067 307.351 134.328 c 0
 308.429 134.734 309.574 135.249 310.729 135.901 c 2
 310.729 135.901 311.502 136.348 312.124 136.762 c 2
 312.124 136.762 312.681 137.132 313.197 137.553 c 0
 313.979 138.19 313.994 138.293 314.38 138.628 c 0
 342.564 163.102 366.874 192.608 384.592 223.846 c 0
 397.518 246.635 402 274.166 402 302 c 0
 402 342.578 378.648 383.336 362.432 403.445 c 1
 358 416 l 1
 358 433 l 1
 365.898 448.923 l 1
 440.898 505.923 l 1
 453 510 l 1
 466 510 l 1
 476.429 507.065 l 1
 519.761 480.585 538 433.149 538 389 c 0
 538 310.274 493.796 241.653 458.197 192.269 c 0
 365.402 63.5372 274.44 -7.66699 250.804 -27.3643 c 1
 238 -32 l 1
 195 -32 l 1
 175.477 -16.3389 l 1
 161.538 46.3838 135.541 156.37 114.597 240.149 c 0
 104.599 280.142 93.416 324.205 83.6445 360.966 c 0
 80.9102 371.252 77.0029 380.712 70.8574 386.857 c 2
 69 389 l 2
 68.2822 389.957 64.3164 392 58 392 c 0
 46.3477 392 15.5537 379.192 -0.262695 369.127 c 1
 -28.1494 375.71 l 1
 -43.1494 400.71 l 1
EndSplineSet
EndChar

StartChar: u1D568
Encoding: 120168 120168 48
Width: 919
Flags: W
HStem: -27 40<189.483 197.823 574.861 621.119> 388 40<50.9662 100.266> 470 40<92.1539 196.678 825.598 841.48>
VStem: 768 40<228.252 369.827> 870 40<312.435 446.13>
DStem2: 169.85 215.445 130.15 210.555 0.117532 -0.993069<-177.598 206.983> 240.316 449.173 201.684 438.827 0.146947 -0.989144<-5.68883 270.295> 231.738 19.3682 262.534 -7.62012 0.500174 0.865925<0 206.425> 475.044 342.109 447.074 298.353 0.305481 -0.952198<33.121 347.882> 729.189 452.141 762.335 426.828 0.80703 0.59051<10.1656 93.6647>
LayerCount: 2
Back
SplineSet
231 382 m 2
 266 142 l 1
 276 139 l 1
 346 244 413 351 469 463 c 1
 523 493 l 1
 536 491 l 1
 561 365 594 241 645 121 c 0
 647 116 650 109 654 109 c 0
 660 109 669 111 674 115 c 0
 705 139 730 168 753 199 c 0
 775 230 788 265 788 302 c 0
 788 342 764 388 741 423 c 1
 741 436 l 1
 823 496 l 1
 839 494 l 1
 867 463 890 427 890 387 c 0
 890 357 880 328 867 301 c 0
 848 263 824 229 797 195 c 0
 762 152 726 109 687 68 c 0
 663 43 638 17 607 -3 c 0
 601 -7 595 -7 588 -7 c 0
 582 -7 575 -3 571 1 c 0
 560 13 555 28 550 43 c 2
 456 336 l 1
 446 336 l 1
 381 224 307 115 245 2 c 1
 183 -13 l 1
 172 -7 l 1
 168 67 159 140 150 213 c 0
 142 278 130 376 104 400 c 0
 97 407 87 408 78 408 c 0
 54 408 26 400 6 388 c 1
 -8 407 l 1
 21 430 51 452 85 469 c 0
 107 480 130 490 155 490 c 0
 177 490 195 479 210 465 c 1
 217 460 219 452 221 444 c 0
 223 437 228 402 231 382 c 2
EndSplineSet
Fore
SplineSet
447.074 298.353 m 1
 385.816 195.309 318.897 95.1074 262.534 -7.62012 c 1
 249.703 -17.4395 l 1
 187.703 -32.4395 l 1
 173.423 -30.5576 l 1
 162.423 -24.5576 l 1
 152.029 -8.0791 l 1
 148.078 65.0127 139.148 137.554 130.15 210.555 c 0
 125.219 250.568 112.083 362.309 91.0361 384.705 c 0
 90.5067 385.268 90.4648 385.339 90.1465 385.581 c 0
 88.824 386.588 87.2871 387.446 83.125 387.812 c 0
 81.084 387.991 79.2881 388 78 388 c 0
 58.3896 388 32.6504 380.667 16.29 370.851 c 1
 -10.1016 376.136 l 1
 -24.1016 395.136 l 1
 -20.4277 422.67 l 1
 8.95996 445.978 40.0791 468.9 76.0557 486.889 c 0
 98.6094 498.165 124.522 510 155 510 c 0
 184.049 510 205.948 496.311 222.636 480.448 c 0
 226.867 476.426 233.218 472.985 238.27 456.719 c 0
 239.236 453.606 239.87 450.761 240.316 449.173 c 0
 243.417 438.139 248.674 399.004 250.785 384.927 c 2
 280.397 181.866 l 1
 342.476 276.3 401.285 372.291 451.111 471.944 c 1
 459.287 480.483 l 1
 513.287 510.483 l 1
 526.041 512.768 l 1
 539.041 510.768 l 1
 555.617 494.893 l 1
 580.266 370.662 612.726 248.751 662.361 131.283 c 1
 690.96 153.583 714.873 180.538 736.814 210.746 c 0
 757.197 238.809 768 269.754 768 302 c 0
 768 346.007 730.979 401.831 724.286 412.017 c 1
 721 423 l 1
 721 436 l 1
 729.189 452.141 l 1
 811.189 512.141 l 1
 825.48 515.846 l 1
 841.48 513.846 l 1
 853.842 507.405 l 1
 881.838 476.409 910 435.162 910 387 c 0
 910 352.483 898.869 320.455 884.954 292.189 c 0
 865.314 252.295 840.258 216.838 812.587 182.469 c 0
 777.7 139.138 741.108 95.7207 701.459 54.1826 c 0
 677.531 29.1152 651.818 1.42188 617.969 -19.7236 c 0
 614.068 -22.1602 609.521 -25.8764 596.08 -26.8047 c 0
 595.275 -26.8603 594.464 -27 588 -27 c 0
 575.543 -27 563.149 -19.8262 556.558 -12.8281 c 0
 541.938 2.69531 536.133 21.3574 530.991 36.7832 c 2
 447.074 298.353 l 1
762.335 426.828 m 1
 800.165 367.182 808 327.395 808 302 c 0
 808 269.743 799.321 238.816 784.182 210.985 c 1
 809.783 243.063 831.774 274.729 849.046 309.811 c 0
 861.603 335.315 870 361.517 870 387 c 0
 870 404.938 864.902 433.484 829.016 475.093 c 1
 828.4 475.169 l 1
 762.335 426.828 l 1
520.13 468.526 m 1
 484.106 448.514 l 1
 466.688 413.947 448.264 379.888 429.064 346.247 c 1
 446 356 l 1
 456 356 l 1
 475.044 342.109 l 1
 569.009 49.2168 l 2
 575.212 30.6064 578.085 22.7347 585.442 14.8281 c 0
 586.983 13.1719 587.932 13 588 13 c 0
 591.332 13 592.267 13.0273 593.328 13.1006 c 0
 595.281 13.2354 595.402 13.3204 596.031 13.7236 c 0
 624.547 32.0045 648.611 56.748 672.541 81.8174 c 2
 696.178 107.189 l 1
 686.369 99.2842 l 2
 683.491 97.0498 678.531 93.6582 669.693 91.2197 c 0
 663.632 89.5479 663.494 89.3712 654 89 c 0
 639.792 88.4445 632.728 100.606 630.302 105.077 c 0
 629.182 107.142 628.374 108.998 626.512 113.375 c 0
 577.261 229.119 544.834 348.047 520.13 468.526 c 1
211.215 379.073 m 2
 209.429 390.983 203.238 433.1 201.684 438.827 c 0
 200.665 442.58 200.419 443.728 200.068 444.856 c 0
 199.724 445.964 198.941 448.146 198.375 448.726 c 2
 196.354 450.379 l 1
 183.186 462.669 169.951 470 155 470 c 0
 130.578 470 105.225 456.751 93.9443 451.111 c 0
 78.8398 443.56 64.4355 434.881 50.4287 425.438 c 1
 59.625 427.111 68.9082 428 78 428 c 0
 79.7998 428 83.1895 427.959 86.625 427.657 c 0
 106.098 425.947 112.439 418.348 117.854 414.419 c 1
 117.854 414.419 119.648 412.668 120.178 412.104 c 0
 144.462 386.265 156.165 326.496 169.85 215.445 c 0
 178.226 147.471 186.673 79.0986 191.064 9.52832 c 1
 231.738 19.3682 l 1
 265.026 79.4307 301.375 138.147 337.695 196.552 c 1
 292.641 127.906 l 1
 270.253 119.844 l 1
 260.253 122.844 l 1
 246.209 139.114 l 1
 211.215 379.073 l 2
EndSplineSet
EndChar

StartChar: u1D569
Encoding: 120169 120169 49
Width: 550
Flags: W
HStem: -32 40<336.459 433.591> 57 40<409.563 477.674> 398 40<34.839 92.0963> 471 40<64.4212 167.048>
DStem2: 147.361 367.927 175.019 231.204 0.470656 -0.882317<-65.0814 139.835 221.216 413.763> 238.339 424.966 203.661 405.034 0.466425 -0.884561<-66.4846 92.4037 171.808 371.611>
LayerCount: 2
Back
SplineSet
464 489 m 1
 501 453 l 1
 501 443 l 1
 421 396 352 332 293 267 c 1
 324 207 365 129 404 94 c 0
 414 85 424 77 438 77 c 0
 464 77 491 98 510 117 c 1
 520 117 l 1
 531 103 l 1
 510 72 485 42 454 18 c 0
 433 2 409 -12 381 -12 c 0
 360 -12 341 -4 326 10 c 0
 311 24 301 41 290 58 c 1
 223 182 l 1
 213 182 l 1
 166 126 125 62 96 -4 c 1
 80 -8 l 1
 32 17 l 1
 32 24 l 1
 81 94 137 165 199 227 c 1
 177 276 140 341 130 358 c 0
 120 376 107 394 92 408 c 0
 84 415 74 418 64 418 c 0
 45 418 15 400 -5 386 c 1
 -23 410 l 1
 2 432 28 453 57 470 c 0
 77 481 99 491 123 491 c 0
 142 491 162 489 176 476 c 0
 195 459 208 437 221 415 c 0
 240 381 257 345 272 310 c 1
 278 310 l 1
 332 372 388 434 452 489 c 1
 464 489 l 1
EndSplineSet
Fore
SplineSet
474.855 450.533 m 1
 457.57 467.335 l 1
 397.889 415.02 344.777 356.218 293.082 296.864 c 1
 278 290 l 1
 272 290 l 1
 253.617 302.122 l 1
 238.817 336.655 222.529 372.027 203.661 405.034 c 0
 190.96 427.253 178.36 446.842 162.527 461.22 c 0
 152.034 470.749 130.878 471 123 471 c 0
 104.701 471 85.8723 463.427 66.876 452.611 c 0
 55.5968 446.189 44.8438 438.962 34.3643 431.188 c 1
 44.4902 435.218 54.8037 438 64 438 c 0
 71.7695 438 79.79 436.712 87.5605 433.695 c 0
 95.1181 430.762 97.0986 428.879 105.408 422.836 c 1
 122.44 406.939 136.309 387.283 147.361 367.927 c 0
 157.445 350.267 194.571 285.691 217.245 235.191 c 1
 213.143 212.857 l 1
 156.232 155.947 104.135 90.9375 57.9268 26.0469 c 1
 81.9453 13.5371 l 1
 111.492 78.126 151.783 140.172 197.681 194.857 c 1
 213 202 l 1
 223 202 l 1
 240.596 191.508 l 1
 307.193 68.1865 l 1
 318.522 50.6777 327.368 36.0811 339.646 24.6211 c 0
 351.283 13.7598 365.136 8 381 8 c 0
 405.352 8 426.829 22.3266 441.817 33.8613 c 0
 455.028 44.0277 467.139 55.498 478.336 67.8184 c 1
 461.265 58.9893 447.712 57 438 57 c 0
 427.511 57 418.778 59.916 411.776 63.5615 c 0
 402.567 68.3564 396.468 73.9033 390.631 79.125 c 0
 346.396 118.697 301.771 206.452 275.231 257.819 c 1
 278.19 280.442 l 1
 334.104 342.042 399.211 403.22 474.855 450.533 c 1
514.947 467.335 m 1
 521 453 l 1
 521 443 l 1
 511.131 425.756 l 1
 437.772 382.657 373.225 324.283 317.188 263.796 c 1
 350.454 199.947 385.579 137.375 417.369 108.875 c 0
 418.587 107.783 424.589 101.988 430.249 99.041 c 0
 432.878 97.6729 435.2 97 438 97 c 0
 453.09 97 474.143 109.428 495.857 131.143 c 1
 510 137 l 1
 520 137 l 1
 535.727 129.356 l 1
 546.727 115.356 l 1
 547.559 91.7832 l 1
 525.793 59.6523 499.538 27.7979 466.183 2.13867 c 0
 444.077 -14.8662 415.969 -32 381 -32 c 0
 353.541 -32 329.982 -21.0742 312.354 -4.62109 c 0
 294.632 11.9189 283.478 31.3223 272.807 47.8135 c 1
 215.611 153.611 l 1
 175.078 102.792 139.804 45.9736 114.311 -12.0459 c 1
 100.851 -23.4033 l 1
 84.8506 -27.4033 l 1
 70.7617 -25.7383 l 1
 22.7617 -0.738281 l 1
 12 17 l 1
 12 24 l 1
 15.6152 35.4697 l 1
 62.4951 102.441 115.823 170.524 175.019 231.204 c 1
 153.354 276.97 121.312 332.886 112.639 348.073 c 0
 103.269 364.479 91.6985 381.21 78.5918 393.164 c 0
 77.2245 394.411 75.9189 395.307 73.0869 396.406 c 0
 70.4326 397.437 67.3408 398 64 398 c 0
 52.4941 398 27.248 384.16 6.46973 369.615 c 1
 -21 374 l 1
 -39 398 l 1
 -36.2129 425.015 l 1
 -10.7939 447.384 16.2217 469.726 47.124 487.389 c 0
 67.7793 499.194 93.2988 511 123 511 c 0
 142.993 511 168.686 509.719 189.473 490.78 c 0
 211.355 470.843 225.683 447.121 238.339 424.966 c 0
 253.612 398.228 267.268 370.077 279.694 342.31 c 1
 328.803 398.143 380.405 453.844 438.965 504.168 c 1
 452 509 l 1
 464 509 l 1
 477.947 503.335 l 1
 514.947 467.335 l 1
EndSplineSet
EndChar

StartChar: u1D56A
Encoding: 120170 120170 50
Width: 670
Flags: W
HStem: -252 40<162.679 351.884> -202 40<241.547 353.173> -31 40<170.592 321.138> 41 40<270.015 363.447> 397 40<81.8712 107.893> 469 40<104.932 210.995>
VStem: 105 40<35.3166 396.345> 213 40<99.1972 464.967> 414.42 40.5762<-86.461 28.3076 102.847 284.027> 423 40<111.987 445.531> 530.993 40.9756<-39.583 468.758>
DStem2: 70.0732 -148.903 112.319 -159.413 0.604828 0.796356<16.5676 89.19> 320.933 28.7002 335.067 -8.7002 0.922265 0.386559<-85.1987 47.4363> 427.393 474.877 455.801 442.44 0.943858 0.33035<11.6901 95.7628>
LayerCount: 2
Back
SplineSet
552 487 m 1
 548 415 548 398 548 137 c 0
 548 61 545 15 533 -35 c 0
 523 -78 489 -124 460 -149 c 0
 400 -202 332 -232 246 -232 c 0
 189 -232 122 -203 86 -161 c 1
 146 -82 l 1
 167 -82 l 1
 180 -104 205 -137 222 -152 c 0
 242 -170 264 -182 291 -182 c 0
 330 -182 367 -164 387 -137 c 0
 429 -81 433 -47 435 54 c 1
 425 58 l 1
 394 38 362 24 328 10 c 1
 299 0 263 -11 236 -11 c 0
 207 -11 177 -4 156 15 c 0
 141 29 136 50 132 70 c 0
 125 105 125 140 125 176 c 0
 125 227 131 279 131 330 c 1
 130 355 132 390 113 408 c 0
 106 414 96 417 87 417 c 0
 70 417 45 400 29 386 c 1
 11 411 l 1
 38 434 65 452 98 468 c 0
 122 480 147 489 175 489 c 0
 192 489 208 482 220 471 c 0
 231 461 238 446 238 384 c 0
 238 344 235 305 235 265 c 0
 235 247 233 228 233 208 c 0
 233 179 235 151 237 134 c 0
 239 114 243 97 257 84 c 0
 274 69 300 61 324 61 c 0
 365 61 420 92 436 103 c 1
 441 161 443 224 443 287 c 0
 443 345 441 403 434 456 c 1
 534 491 l 1
 552 487 l 1
EndSplineSet
Fore
SplineSet
81.6445 436.684 m 1xff20
 83.4463 436.891 85.2344 437 87 437 c 0
 95.3926 437 103.856 435.36 111.996 431.847 c 0
 117.983 429.262 118.229 428.423 126.386 422.853 c 1
 149.811 400.661 149.512 367.416 150.992 330.399 c 1
 150.992 277.845 145 225.445 145 176 c 0
 145 139.978 145.12 106.378 151.611 73.9219 c 0
 156.403 49.9649 160.419 38.0557 169.532 29.7256 c 0
 188.235 12.6299 216.349 9 236 9 c 0
 253.096 9 279.495 14.4111 320.933 28.7002 c 0
 336.077 34.9365 350.499 41.0537 364.442 47.6074 c 1
 350.806 43.6152 336.928 41 324 41 c 0
 300.085 41 266.938 48.0762 243.579 69.1738 c 0
 223.946 86.9063 219.387 110.857 217.118 131.837 c 0
 215.176 149.796 213 178.058 213 208 c 0
 213 229.329 215 248.477 215 265 c 0
 215 306.01 218 345.01 218 384 c 0
 218 410.445 216.392 438.729 211.071 450.112 c 0
 209.812 452.806 209.147 453.771 206.516 456.229 c 0
 197.961 464.218 186.437 469 175 469 c 0
 151.386 469 129.593 461.266 106.835 450.058 c 0
 98.4922 445.948 90.125 441.564 81.6445 436.684 c 1xff20
155.872 -102.069 m 1
 112.319 -159.413 l 1
 142.94 -187.423 194.938 -212 246 -212 c 0
 326.304 -212 389.828 -183.901 446.851 -133.932 c 0
 474.658 -109.563 504.913 -66.8174 513.536 -30.4014 c 0
 524.882 17.5146 528 61.3652 528 137 c 0
 528 373.107 530.993 410.075 530.993 468.758 c 1
 455.801 442.44 l 1
 461.383 392.674 463 339.713 463 287 c 0xff60
 463 223.574 460.992 160.059 455.926 101.282 c 1
 447.33 86.5195 l 1
 444.647 84.6758 438.759 80.9541 430.667 76.3994 c 1
 432.428 76.5693 l 1
 442.428 72.5693 l 1
 454.996 53.6045 l 1xffa0
 453.001 -47.1416 449.295 -87.0067 403.035 -148.952 c 0
 378.429 -181.902 336.101 -202 291 -202 c 0
 257.785 -202 230.712 -186.605 208.694 -166.932 c 0
 196.147 -155.72 174.143 -130.634 155.872 -102.069 c 1
568 137 m 0
 568 60.6348 564.794 12.5635 552.464 -39.5986 c 0
 540.761 -89.1064 502.486 -138.351 473.149 -164.068 c 0
 408.669 -220.595 336.896 -252 246 -252 c 0
 184.556 -252 111.725 -221.743 70.8145 -174.016 c 1
 70.0732 -148.903 l 1
 130.073 -69.9033 l 1
 146 -62 l 1
 167 -62 l 1
 184.219 -71.8252 l 1
 192.568 -85.9561 217.146 -120.856 235.306 -137.068 c 0
 261.256 -160.234 279.876 -162 291 -162 c 0
 319.11 -162 352.476 -149.796 370.965 -125.048 c 0
 407.511 -76.1309 412.479 -43.8281 414.42 28.3076 c 1xffa0
 388.487 13.7607 361.867 2.33496 335.067 -8.7002 c 1
 305.346 -18.9492 268.131 -31 236 -31 c 0
 203.975 -31 168.682 -23.7607 142.468 0.274414 c 0
 122.793 18.3145 116.595 45.0479 112.389 66.0781 c 0
 104.88 103.622 105 140.022 105 176 c 0
 105 228.555 111.497 280.158 111.008 329.601 c 0
 110.847 345.875 113.27 380.746 99.6143 393.147 c 0
 97.5312 395.039 97.7754 394.418 96.1445 395.122 c 0
 93.4248 396.296 89.8574 397 87 397 c 0
 78.0342 397 57.4902 384.354 42.1699 370.948 c 1
 12.7695 374.313 l 1
 -5.23047 399.313 l 1
 -1.96973 426.225 l 1
 26.1133 450.147 54.8087 469.064 89.165 485.942 c 0
 114.564 498.42 142.614 509 175 509 c 0
 197.563 509 218.282 500.046 233.484 485.771 c 0
 240.201 479.463 243.436 475.333 247.307 467.054 c 0
 254.063 452.602 258 433.832 258 384 c 0
 258 342.99 255 303.99 255 265 c 0
 255 245.524 253 226.671 253 208 c 0
 253 179.942 255.145 152.24 256.882 136.163 c 0
 258.935 117.176 261.692 106.699 270.421 98.8262 c 0
 281.94 88.4356 302.493 81 324 81 c 0
 356.625 81 399.303 104.084 416.892 114.609 c 1
 421.228 169.105 423 228.013 423 287 c 0
 423 344.533 420.989 401.761 414.172 453.381 c 1
 427.393 474.877 l 1
 527.393 509.877 l 1
 538.339 510.523 l 1
 556.339 506.523 l 1
 571.969 485.891 l 1
 567.996 414.375 568 398.229 568 137 c 0
EndSplineSet
EndChar

StartChar: u1D56B
Encoding: 120171 120171 51
Width: 544
Flags: W
HStem: -28 40<173.7 426.191> -3 40<68.9474 274.551> 73 40<209.333 437.58> 378 40<117.593 295.548> 442 40<241.473 448.896> 472 40<134.03 279.169>
DStem2: 213.984 244.268 208.114 125.732 0.676779 0.736186<-87.3679 152.016> 31.8896 364.356 95.1562 391.635 0.51781 0.855496<56.0966 161.712> 374.215 365.246 300.531 226.262 0.676779 0.736186<0 123.647> 460.324 78.3564 495.676 59.6436 0.471658 0.881782<-63.7208 47.288>
LayerCount: 2
Back
SplineSet
471 492 m 1
 492 474 l 1
 429 396 356 312 286 240 c 1
 172 116 l 1
 176 107 l 1
 209 107 249 102 282 98 c 0
 314 95 345 93 376 93 c 0
 406 93 435 103 456 122 c 0
 472 137 487 154 499 171 c 1
 524 155 l 1
 478 69 l 2
 467 48 455 27 437 10 c 0
 419 -6 393 -8 369 -8 c 0
 321 -8 273 -4 225 4 c 0
 183 11 141 17 98 17 c 0
 71 17 53 -1 41 -14 c 1
 31 -14 l 1
 17 -2 l 1
 76 78 157 160 228 230 c 0
 275 276 318 326 359 377 c 1
 352 377 344 376 337 376 c 0
 302 376 268 382 234 385 c 0
 204 388 172 398 154 398 c 0
 141 398 125 389 115 382 c 0
 100 370 87 356 75 342 c 1
 49 354 l 1
 118 468 l 2
 128 484 151 492 172 492 c 0
 200 492 228 484 257 478 c 1
 296 468 336 462 377 462 c 0
 412 462 443 473 471 492 c 1
EndSplineSet
Fore
SplineSet
374.215 365.246 m 1x34
 454.378 459.508 l 1
 430.737 448.368 404.862 442 377 442 c 0x38
 334.043 442 292.808 448.183 252.49 458.521 c 1
 222.528 464.72 196.158 472 172 472 c 0
 152.497 472 139.146 464.1 135.035 457.521 c 2
 95.1562 391.635 l 1
 97.71 393.831 100.33 395.962 103.019 398.001 c 0
 111.4 404.358 133.812 418 154 418 c 0
 178.192 418 199.984 408.292 235.874 404.912 c 0
 271.022 401.602 304.296 396 337 396 c 0
 343.6 396 350.2 397 359 397 c 1
 374.215 365.246 l 1x34
482.627 120.055 m 1
 478.38 115.65 474.013 111.375 469.549 107.289 c 0
 444.436 84.3013 410.387 73 376 73 c 0
 344.138 73 312.189 74.6378 279.863 78.1162 c 0
 246.819 81.6719 207.073 87 176 87 c 1
 157.724 98.877 l 1
 153.724 107.877 l 1
 157.276 129.536 l 1
 171.858 145.396 l 1
 135.976 108.466 100.305 69.873 68.5381 31.3828 c 1
 77.1543 34.8086 86.9424 37 98 37 c 0x70
 142.869 37 185.991 30.777 228.288 23.7275 c 0
 275.222 15.9053 322.111 12 369 12 c 0xb0
 379.942 12 408.898 11.3633 423.49 24.7441 c 0
 438.906 38.8818 449.357 57.8525 460.324 78.3564 c 2
 482.627 120.055 l 1
505.016 489.186 m 1
 507.559 461.434 l 1
 444.222 383.016 371.101 298.848 300.531 226.262 c 1
 208.114 125.732 l 1
 234.106 123.883 260.878 120.391 284.137 117.884 c 0
 315.722 114.48 345.862 113 376 113 c 0
 401.613 113 425.826 121.411 442.451 136.711 c 0
 457.629 150.679 471.562 166.812 482.66 182.533 c 1
 509.781 187.846 l 1
 534.781 171.846 l 1
 541.636 145.567 l 1
 495.676 59.6436 l 2
 484.28 38.339 471.619 14.5528 450.51 -4.74414 c 0
 425.885 -27.2549 393.819 -28 369 -28 c 0xb8
 319.889 -28 270.778 -23.9049 221.712 -15.7275 c 0
 180.009 -8.77734 139.131 -3 98 -3 c 0
 81.0781 -3 68.3789 -13.8262 55.6963 -27.5654 c 1
 41 -34 l 1
 31 -34 l 1
 17.9844 -29.1855 l 1
 3.98438 -17.1855 l 1
 0.904297 9.87109 l 1
 61.1836 91.6064 142.705 174.193 213.984 244.268 c 0
 250.001 279.675 283.908 317.532 316.445 356.565 c 1
 286.838 358.132 258.837 362.577 232.126 365.088 c 0
 200.702 368.042 169.602 378 154 378 c 0
 146.845 378 135.063 372.155 126.981 365.999 c 0
 113.256 355.543 101.829 342.568 90.1855 328.984 c 1
 66.6191 323.841 l 1
 40.6191 335.841 l 1
 31.8896 364.356 l 1
 100.965 478.479 l 2
 116.854 503.9 149.598 512 172 512 c 0x74
 203.842 512 233.472 503.28 261.51 497.479 c 1
 299.192 487.817 337.957 482 377 482 c 0x38
 407.75 482 434.44 491.362 459.77 508.55 c 1
 484.016 507.186 l 1
 505.016 489.186 l 1
EndSplineSet
EndChar

StartChar: uni213C
Encoding: 8508 8508 52
Width: 664
Flags: W
HStem: -19 40<447.893 569.119> 61 40<546.833 601.461> 368 40<104.766 205.502 295.661 396.41 534.159 617.566> 465 40<85.9904 639.525>
VStem: 384 40<43.0748 365.289> 489 40<118.6 366.528>
LayerCount: 2
Back
SplineSet
171 485 m 2
 543 485 l 2
 589 485 642 493 669 523 c 1
 685 511 l 1
 669 478 649 439 630 410 c 1
 615 389 604 388 596 388 c 2
 518 388 l 1
 513 344 509 294 509 258 c 0
 509 203 509 126 538 100 c 0
 549 89 565 81 582 81 c 0
 598 81 620 94 634 107 c 1
 644 105 l 1
 654 85 l 1
 631 63 607 40 578 23 c 0
 557 11 533 1 507 1 c 0
 481 1 454 6 435 23 c 0
 420 37 415 58 411 78 c 0
 404 113 404 148 404 183 c 0
 404 248 410 315 418 380 c 1
 411 388 l 1
 283 388 l 1
 269 314 252 241 231 169 c 0
 214 113 190 58 167 4 c 1
 154 -4 l 1
 76 8 l 1
 75 21 l 1
 89 40 145 125 180 200 c 0
 200 243 221 333 229 388 c 1
 135 388 l 2
 122 388 108 381 98 371 c 0
 73 347 58 314 46 279 c 1
 18 291 l 1
 31 355 55 450 79 468 c 0
 89 476 99 478 111 481 c 0
 130 485 151 485 171 485 c 2
EndSplineSet
Fore
SplineSet
171 465 m 2
 151.022 465 131.542 465.174 115.485 461.513 c 0
 102.585 458.571 97.082 456.854 91.2471 452.191 c 0
 91.1221 452.092 90.3193 451.441 89.5596 450.585 c 0
 77.0781 436.507 62.249 392.157 48.8389 337.169 c 1
 57.7549 353.858 69.2051 370.798 84.0039 385.285 c 0
 106.438 407.248 130.004 408 135 408 c 2
 229 408 l 1
 248.792 385.121 l 1
 243.068 345.769 223.158 245.265 198.129 191.554 c 0
 168.088 127.087 124.197 57.5 101.692 24.2822 c 1
 149.777 16.8848 l 1
 151.097 17.6973 l 1
 173.344 69.8691 196.22 122.092 211.831 174.705 c 0
 232.957 245.904 249.452 318.263 263.349 391.718 c 1
 283 408 l 1
 411 408 l 1
 426.052 401.17 l 1
 433.052 393.17 l 1
 437.851 377.557 l 1
 429.906 313.011 424 246.772 424 183 c 0
 424 147.984 424.119 114.385 430.611 81.9219 c 0
 435.402 57.9648 439.353 46.0645 448.491 37.7627 c 0
 464.772 22.9717 489.769 21 507 21 c 0
 527.763 21 548.514 29.0322 567.981 40.3096 c 0
 579.89 47.208 591.038 55.4336 601.808 64.4014 c 1
 595.301 62.291 588.607 61 582 61 c 0
 558.622 61 538.583 71.1543 524.254 85.4834 c 1
 495.673 111.108 489 161.054 489 258 c 0
 489 295.401 493.066 345.716 498.128 390.258 c 1
 518 408 l 1
 596 408 l 2
 599.937 408 601.922 408.67 605.841 412.326 c 0
 609.382 415.63 611.143 417.827 613.498 421.293 c 0
 622.842 435.041 634.218 454.74 649.522 484.621 c 1
 615.987 468.5 574.416 465 543 465 c 2
 171 465 l 2
543 505 m 2
 609.681 505 641.066 521.859 654.134 536.379 c 1
 681 539 l 1
 697 527 l 1
 702.996 502.274 l 1
 677.389 449.46 659.85 417.973 646.502 398.707 c 0
 641.729 391.818 638.991 388.551 633.128 383.08 c 0
 622.18 372.865 610.852 368 596 368 c 2
 535.949 368 l 1
 531.95 329.248 529 287.966 529 258 c 0
 529 177.321 535.021 130.256 551.746 114.517 c 0
 565.032 102.015 579.069 101 582 101 c 0
 592.077 101 609.177 111.243 620.391 121.656 c 1
 637.922 126.611 l 1
 647.922 124.611 l 1
 661.889 113.944 l 1
 671.889 93.9443 l 1
 667.824 70.5469 l 1
 644.84 48.5615 619.756 24.1006 588.019 5.69043 c 0
 565.636 -7.29297 538.238 -19 507 -19 c 0
 478.684 -19 446.088 -14.1729 421.509 8.2373 c 0
 401.783 26.2217 395.595 53.0479 391.389 74.0781 c 0
 383.881 111.615 384 148.016 384 183 c 0
 384 244.368 389.232 307.054 396.41 368 c 1
 299.52 368 l 1
 286.028 299.011 270.169 230.601 250.169 163.295 c 0
 233.047 105.674 208.355 50.0576 185.4 -3.83691 c 1
 177.482 -13.0332 l 1
 164.482 -21.0332 l 1
 150.959 -23.7676 l 1
 72.959 -11.7676 l 1
 56.0586 6.46582 l 1
 55.0586 19.4658 l 1
 58.8984 32.8643 l 1
 71.7451 50.2988 127.938 135.663 161.871 208.446 c 0
 175.751 238.218 194.764 307.412 205.502 368 c 1
 135 368 l 2
 130.429 368 120.703 365.174 111.996 356.715 c 0
 90.9297 336.248 76.5381 306.404 64.9189 272.514 c 1
 38.1221 260.617 l 1
 10.1221 272.617 l 1
 -1.59961 294.981 l 1
 15.5908 378.374 36.1572 450.646 59.6289 477.121 c 0
 61.8027 479.573 63.998 481.628 66.7529 483.809 c 0
 80.9785 495.071 95.2852 497.974 106.515 500.487 c 0
 128.338 505.373 150.978 505 171 505 c 2
 543 505 l 2
EndSplineSet
EndChar

StartChar: uni213D
Encoding: 8509 8509 53
Width: 645
Flags: W
HStem: 388 40<73.1796 164.761> 451 40<92.9917 254.717>
VStem: 348 40<-151.664 39.5195>
DStem2: 257.78 -144.672 221.747 -168.534 0.826713 -0.562624<0 57.5639>
LayerCount: 2
Back
SplineSet
305 -201 m 1
 233 -152 l 1
 294 -7 l 1
 288 68 273 174 251 246 c 0
 235 296 219 346 178 384 c 0
 161 399 136 408 112 408 c 0
 77 408 40 387 14 366 c 1
 -3 391 l 1
 46 435 108 471 178 471 c 0
 216 471 254 460 281 436 c 1
 315 404 335 363 345 319 c 0
 358 260 363 208 365 133 c 1
 374 131 l 1
 440 241 489 342 527 463 c 1
 546 475 l 1
 625 444 l 1
 560 329 491 233 422 138 c 1
 408 117 378 62 368 33 c 1
 368 -27 368 -112 360 -166 c 1
 305 -201 l 1
EndSplineSet
Fore
SplineSet
305.369 -177.059 m 1
 341.429 -154.112 l 1
 347.838 -102.293 348 -23.4521 348 33 c 1
 349.093 39.5195 l 1
 354.82 56.1309 371.039 89.9834 387.284 119.049 c 1
 369.661 111.477 l 1
 360.661 113.477 l 1
 345.007 132.467 l 1
 343.021 206.901 338.33 257.079 325.482 314.632 c 0
 316.309 355.729 298.453 392.858 267.503 421.244 c 0
 241.871 444.752 205.19 451 178 451 c 0
 139.324 451 103.686 438.832 72.2617 421.183 c 1
 85.0879 425.36 98.5391 428 112 428 c 0
 135.833 428 168.182 420.017 191.414 398.833 c 0
 237.872 356.474 255.325 299.413 270.088 251.97 c 0
 293.276 177.446 307.84 70.7979 313.937 -5.40527 c 1
 312.436 -14.7559 l 1
 257.78 -144.672 l 1
 305.369 -177.059 l 1
221.747 -168.534 m 1
 214.564 -144.244 l 1
 273.667 -3.75586 l 1
 267.503 69.7588 253.026 172.291 231.912 240.03 c 0
 216.222 290.369 201.039 335.776 164.586 369.167 c 0
 153.099 379.688 133.107 388 112 388 c 0
 85.042 388 53.8271 372.46 26.5664 350.441 c 1
 -2.53809 354.754 l 1
 -19.5381 379.754 l 1
 -16.3623 405.881 l 1
 73.5869 486.651 149.202 491 178 491 c 0
 219.744 491 262.714 479.008 294.497 450.756 c 1
 331.915 415.538 354.024 370.346 364.518 323.368 c 0
 374.685 277.854 380.014 236.021 382.885 185.809 c 1
 435.358 278.087 475.595 366.064 507.919 468.992 c 1
 516.32 479.91 l 1
 535.32 491.91 l 1
 553.306 493.618 l 1
 632.306 462.618 l 1
 642.411 434.159 l 1
 576.769 318.022 507.442 221.62 438.411 126.576 c 1
 420.594 99.8506 396.501 52.1846 388 29.5088 c 1
 388.004 -30.4404 388.021 -113.329 379.784 -168.931 c 1
 370.737 -182.873 l 1
 315.737 -217.873 l 1
 293.747 -217.534 l 1
 221.747 -168.534 l 1
417.667 166.069 m 1
 478.492 249.991 538.924 335.241 596.135 433.842 c 1
 548.119 452.684 l 1
 543.859 449.993 l 1
 511.002 347.174 469.989 258.131 417.667 166.069 c 1
EndSplineSet
EndChar

